M48
;Layer_Color=9474304
;FILE_FORMAT=4:4
METRIC,LZ
;TYPE=PLATED
T1F00S00C0.2000
T2F00S00C0.3000
T3F00S00C0.6000
T5F00S00C0.7620
T6F00S00C1.3000
T7F00S00C5.0000
%
T01
X00402Y-00642
X00347Y-00377
X00312Y-00388
Y-00399
Y-0041
X00301
Y-00399
Y-00388
X0029
Y-00399
Y-0041
X00272Y-00474
X00266Y-0048
X00225Y-00474
X00218Y-0048
X00226524Y-00180596
X00224758Y-00174551
X00231Y-00168
X00184
X00185Y-00175
X00189Y-0018
T02
X00188Y-00741
X001975Y-00715
X00193Y-006975
X00207
Y-006825
X00193
X00415Y-0069
X004277
X004135Y-00668
Y-00654
X00428Y-00625
X003635Y-00454
Y-0044
Y-00426
X003192Y-003417
X0031945Y-0032795
X003042Y-003277
Y-003417
X003015Y-00293
Y-00279
Y-00265
X00329Y-00215
X00382476Y-00263
X003825Y-00277
Y-00291
X00538Y-0036
X00535202Y-00143945
X00256298Y-00334
X002505Y-0034
X00262096
Y-00390702
X0024005Y-003926
Y-004076
X0022605
X00255Y-00409
X002509Y-004155
X002425Y-00428
X00252524Y-00451
X00227Y-003135
X00213
X00195Y-003135
X00181
X0007Y-00316
X001255Y00069
X00154Y000835
X001615Y0011725
X001915
X002325
X002315Y00068
X00203Y000825
X00278Y00077
X00285
X002895Y0001
Y-00022
X001205Y0011725
X00298Y00072
X00311Y00078
X00318
X00331Y00072
X003115Y00054
X002965
X00306Y-00004
X00341Y-000015
X00355Y-000015
X00383
Y-000165
X00347Y-00026
X00335Y-00032
X003305Y-000575
Y-000685
X003415
Y-000575
X0037Y-00068
X00336Y-00093
X00299Y-000885
X002991Y-000646
X00374Y0011425
X00408
X00442
X00479Y0011325
X00493Y001135
T03
X0025365Y-001584
Y-001457
Y-00133
Y-001203
X0026635
Y-00133
Y-001457
Y-001584
Y-001076
X0025365
T05
X003426Y-002164
X00368Y-00191
Y-002418
X00286Y-002428
X002606Y-002174
X00286Y-00192
T06
X0056Y-0036
Y-0031
Y-0026
Y-0021
Y-0014
X0004Y-00145
Y-00215
Y-00265
Y-00315
Y-00365
Y-00095
Y-00045
Y00005
X0056Y0001
Y-0004
Y-0009
T07
X0055Y-0045
X0005
Y0009
X0055
M30
