G04*
G04 #@! TF.GenerationSoftware,Altium Limited,Altium Designer,23.4.1 (23)*
G04*
G04 Layer_Color=16711935*
%FSLAX44Y44*%
%MOMM*%
G71*
G04*
G04 #@! TF.SameCoordinates,810E8BC2-B951-4309-8685-973D218C77A5*
G04*
G04*
G04 #@! TF.FilePolarity,Positive*
G04*
G01*
G75*
%ADD87C,0.0100*%
%ADD88C,0.0100*%
D87*
X200000Y-750000D02*
G03*
X225000Y-725000I0J25000D01*
G01*
X150000D02*
G03*
X175000Y-750000I25000J0D01*
G01*
X425000D02*
G03*
X450000Y-725000I0J25000D01*
G01*
X375000D02*
G03*
X400000Y-750000I25000J0D01*
G01*
X275000Y-500000D02*
G03*
X225000Y-550000I0J-50000D01*
G01*
X375000D02*
G03*
X325000Y-500000I-50000J0D01*
G01*
X500000D02*
G03*
X450000Y-550000I0J-50000D01*
G01*
X600000Y90000D02*
G03*
X550000Y140000I-50000J0D01*
G01*
Y-500000D02*
G03*
X600000Y-450000I0J50000D01*
G01*
X150000Y-550000D02*
G03*
X100000Y-500000I-50000J0D01*
G01*
X50000Y140000D02*
G03*
X0Y90000I0J-50000D01*
G01*
Y-450000D02*
G03*
X50000Y-500000I50000J0D01*
G01*
X175000Y-750000D02*
X200000D01*
X150000Y-725000D02*
Y-550000D01*
X225000Y-725000D02*
Y-550000D01*
X400000Y-750000D02*
X425000D01*
X450000Y-725000D02*
Y-550000D01*
X375000Y-725000D02*
Y-550000D01*
X50000Y140000D02*
X550000D01*
X275000Y-500000D02*
X325000D01*
X600000Y-450000D02*
Y90000D01*
X500000Y-500000D02*
X550000D01*
X0Y-450000D02*
Y90000D01*
X50000Y-500000D02*
X100000D01*
D88*
X375000Y-550000D02*
D03*
M02*
