G04*
G04 #@! TF.GenerationSoftware,Altium Limited,Altium Designer,23.4.1 (23)*
G04*
G04 Layer_Physical_Order=4*
G04 Layer_Color=8037893*
%FSLAX44Y44*%
%MOMM*%
G71*
G04*
G04 #@! TF.SameCoordinates,810E8BC2-B951-4309-8685-973D218C77A5*
G04*
G04*
G04 #@! TF.FilePolarity,Positive*
G04*
G01*
G75*
%ADD12C,0.2500*%
%ADD65C,2.5000*%
%ADD66C,1.5240*%
%ADD67C,8.0000*%
G04:AMPARAMS|DCode=68|XSize=1mm|YSize=1mm|CornerRadius=0.125mm|HoleSize=0mm|Usage=FLASHONLY|Rotation=0.000|XOffset=0mm|YOffset=0mm|HoleType=Round|Shape=RoundedRectangle|*
%AMROUNDEDRECTD68*
21,1,1.0000,0.7500,0,0,0.0*
21,1,0.7500,1.0000,0,0,0.0*
1,1,0.2500,0.3750,-0.3750*
1,1,0.2500,-0.3750,-0.3750*
1,1,0.2500,-0.3750,0.3750*
1,1,0.2500,0.3750,0.3750*
%
%ADD68ROUNDEDRECTD68*%
%ADD69C,1.0000*%
G04:AMPARAMS|DCode=70|XSize=1.55mm|YSize=1.05mm|CornerRadius=0.525mm|HoleSize=0mm|Usage=FLASHONLY|Rotation=270.000|XOffset=0mm|YOffset=0mm|HoleType=Round|Shape=RoundedRectangle|*
%AMROUNDEDRECTD70*
21,1,1.5500,0.0000,0,0,270.0*
21,1,0.5000,1.0500,0,0,270.0*
1,1,1.0500,0.0000,-0.2500*
1,1,1.0500,0.0000,0.2500*
1,1,1.0500,0.0000,0.2500*
1,1,1.0500,0.0000,-0.2500*
%
%ADD70ROUNDEDRECTD70*%
G04:AMPARAMS|DCode=71|XSize=1.25mm|YSize=1.05mm|CornerRadius=0.525mm|HoleSize=0mm|Usage=FLASHONLY|Rotation=0.000|XOffset=0mm|YOffset=0mm|HoleType=Round|Shape=RoundedRectangle|*
%AMROUNDEDRECTD71*
21,1,1.2500,0.0000,0,0,0.0*
21,1,0.2000,1.0500,0,0,0.0*
1,1,1.0500,0.1000,0.0000*
1,1,1.0500,-0.1000,0.0000*
1,1,1.0500,-0.1000,0.0000*
1,1,1.0500,0.1000,0.0000*
%
%ADD71ROUNDEDRECTD71*%
%ADD72C,0.6000*%
%ADD73C,0.4500*%
%ADD74C,0.5000*%
G36*
X559381Y137164D02*
X565457Y135536D01*
X571269Y133129D01*
X576716Y129984D01*
X581707Y126155D01*
X586155Y121707D01*
X589984Y116716D01*
X593129Y111269D01*
X595536Y105457D01*
X597164Y99382D01*
X597985Y93145D01*
Y90000D01*
Y-450000D01*
Y-453145D01*
X597164Y-459381D01*
X595536Y-465457D01*
X593129Y-471269D01*
X589984Y-476716D01*
X586155Y-481707D01*
X581707Y-486155D01*
X576716Y-489984D01*
X571269Y-493129D01*
X565457Y-495536D01*
X559381Y-497164D01*
X553145Y-497985D01*
X550000D01*
X500000Y-497985D01*
X499967Y-497992D01*
X499934Y-497986D01*
X496664Y-498093D01*
X496567Y-498116D01*
X496467Y-498110D01*
X489982Y-498963D01*
X489857Y-499006D01*
X489724Y-499015D01*
X483407Y-500708D01*
X483287Y-500766D01*
X483157Y-500792D01*
X477115Y-503295D01*
X477004Y-503369D01*
X476878Y-503412D01*
X471214Y-506682D01*
X471114Y-506769D01*
X470995Y-506828D01*
X465806Y-510810D01*
X465719Y-510910D01*
X465608Y-510983D01*
X460983Y-515608D01*
X460910Y-515719D01*
X460810Y-515806D01*
X456828Y-520995D01*
X456769Y-521114D01*
X456682Y-521214D01*
X453412Y-526878D01*
X453369Y-527004D01*
X453295Y-527115D01*
X450792Y-533157D01*
X450766Y-533287D01*
X450708Y-533407D01*
X449015Y-539724D01*
X449006Y-539857D01*
X448963Y-539982D01*
X448110Y-546467D01*
X448116Y-546567D01*
X448093Y-546664D01*
X447986Y-549934D01*
X447992Y-549967D01*
X447985Y-550000D01*
Y-725000D01*
Y-727264D01*
X447102Y-731705D01*
X445369Y-735888D01*
X442854Y-739652D01*
X439652Y-742854D01*
X435888Y-745369D01*
X431704Y-747102D01*
X427264Y-747985D01*
X397736D01*
X393295Y-747102D01*
X389112Y-745369D01*
X385348Y-742854D01*
X382146Y-739652D01*
X379631Y-735888D01*
X377898Y-731704D01*
X377015Y-727264D01*
Y-725000D01*
X377015Y-550000D01*
X377008Y-549967D01*
X377014Y-549934D01*
X376907Y-546664D01*
X376884Y-546567D01*
X376890Y-546467D01*
X376037Y-539983D01*
X375994Y-539857D01*
X375985Y-539724D01*
X374292Y-533407D01*
X374234Y-533288D01*
X374208Y-533157D01*
X371705Y-527115D01*
X371631Y-527004D01*
X371588Y-526878D01*
X368318Y-521214D01*
X368231Y-521114D01*
X368172Y-520995D01*
X364190Y-515806D01*
X364090Y-515719D01*
X364017Y-515608D01*
X359392Y-510984D01*
X359281Y-510910D01*
X359194Y-510810D01*
X354005Y-506828D01*
X353886Y-506769D01*
X353786Y-506682D01*
X348122Y-503412D01*
X347996Y-503369D01*
X347885Y-503295D01*
X341843Y-500792D01*
X341713Y-500766D01*
X341593Y-500708D01*
X335276Y-499015D01*
X335143Y-499006D01*
X335018Y-498963D01*
X328533Y-498110D01*
X328433Y-498116D01*
X328336Y-498093D01*
X325066Y-497986D01*
X325033Y-497992D01*
X325000Y-497985D01*
X275000Y-497985D01*
X274967Y-497992D01*
X274934Y-497986D01*
X271664Y-498093D01*
X271567Y-498116D01*
X271467Y-498110D01*
X264982Y-498963D01*
X264857Y-499006D01*
X264724Y-499015D01*
X258407Y-500708D01*
X258287Y-500766D01*
X258157Y-500792D01*
X252115Y-503295D01*
X252004Y-503369D01*
X251878Y-503412D01*
X246214Y-506682D01*
X246114Y-506769D01*
X245995Y-506828D01*
X240806Y-510810D01*
X240719Y-510910D01*
X240608Y-510983D01*
X235983Y-515608D01*
X235910Y-515719D01*
X235810Y-515806D01*
X231828Y-520995D01*
X231769Y-521114D01*
X231682Y-521214D01*
X228412Y-526878D01*
X228369Y-527004D01*
X228295Y-527115D01*
X225792Y-533157D01*
X225766Y-533287D01*
X225707Y-533407D01*
X224015Y-539724D01*
X224006Y-539857D01*
X223963Y-539982D01*
X223110Y-546467D01*
X223116Y-546567D01*
X223093Y-546664D01*
X222986Y-549934D01*
X222992Y-549967D01*
X222985Y-550000D01*
Y-725000D01*
Y-727264D01*
X222102Y-731705D01*
X220369Y-735888D01*
X217854Y-739652D01*
X214652Y-742854D01*
X210888Y-745369D01*
X206705Y-747102D01*
X202264Y-747985D01*
X172736D01*
X168295Y-747102D01*
X164112Y-745369D01*
X160348Y-742854D01*
X157146Y-739652D01*
X154631Y-735888D01*
X152898Y-731704D01*
X152015Y-727264D01*
Y-725000D01*
X152015Y-550000D01*
X152008Y-549967D01*
X152014Y-549934D01*
X151907Y-546664D01*
X151884Y-546567D01*
X151890Y-546467D01*
X151037Y-539982D01*
X150994Y-539857D01*
X150985Y-539724D01*
X149292Y-533407D01*
X149234Y-533287D01*
X149208Y-533157D01*
X146705Y-527115D01*
X146631Y-527004D01*
X146588Y-526878D01*
X143318Y-521214D01*
X143231Y-521114D01*
X143172Y-520995D01*
X139190Y-515806D01*
X139090Y-515719D01*
X139017Y-515608D01*
X134392Y-510984D01*
X134281Y-510910D01*
X134194Y-510810D01*
X129005Y-506828D01*
X128886Y-506769D01*
X128786Y-506682D01*
X123122Y-503412D01*
X122996Y-503369D01*
X122885Y-503295D01*
X116843Y-500792D01*
X116713Y-500766D01*
X116593Y-500708D01*
X110276Y-499015D01*
X110143Y-499006D01*
X110017Y-498963D01*
X103533Y-498110D01*
X103434Y-498116D01*
X103336Y-498093D01*
X100066Y-497986D01*
X100033Y-497992D01*
X100000Y-497985D01*
X46855D01*
X40619Y-497164D01*
X34543Y-495536D01*
X28731Y-493129D01*
X23284Y-489984D01*
X18293Y-486155D01*
X13845Y-481707D01*
X10016Y-476716D01*
X6871Y-471269D01*
X4464Y-465457D01*
X2836Y-459381D01*
X2015Y-453145D01*
Y-450000D01*
Y90000D01*
Y93145D01*
X2836Y99382D01*
X4464Y105457D01*
X6871Y111269D01*
X10016Y116716D01*
X13845Y121707D01*
X18293Y126155D01*
X23284Y129984D01*
X28731Y133129D01*
X34543Y135536D01*
X40619Y137164D01*
X46855Y137985D01*
X553145D01*
X559381Y137164D01*
D02*
G37*
%LPC*%
G36*
X233400Y121774D02*
X233262D01*
Y118012D01*
X237024D01*
Y118150D01*
X236335Y119813D01*
X235063Y121085D01*
X233400Y121774D01*
D02*
G37*
G36*
X231738D02*
X231600D01*
X229937Y121085D01*
X228665Y119813D01*
X227976Y118150D01*
Y118012D01*
X231738D01*
Y121774D01*
D02*
G37*
G36*
X192400D02*
X192262D01*
Y118012D01*
X196024D01*
Y118150D01*
X195335Y119813D01*
X194063Y121085D01*
X192400Y121774D01*
D02*
G37*
G36*
X190738D02*
X190600D01*
X188937Y121085D01*
X187665Y119813D01*
X186976Y118150D01*
Y118012D01*
X190738D01*
Y121774D01*
D02*
G37*
G36*
X162400D02*
X162262D01*
Y118012D01*
X166024D01*
Y118150D01*
X165335Y119813D01*
X164063Y121085D01*
X162400Y121774D01*
D02*
G37*
G36*
X160738D02*
X160600D01*
X158937Y121085D01*
X157665Y119813D01*
X156976Y118150D01*
Y118012D01*
X160738D01*
Y121774D01*
D02*
G37*
G36*
X121400D02*
X121262D01*
Y118012D01*
X125024D01*
Y118150D01*
X124335Y119813D01*
X123063Y121085D01*
X121400Y121774D01*
D02*
G37*
G36*
X119738D02*
X119600D01*
X117937Y121085D01*
X116665Y119813D01*
X115976Y118150D01*
Y118012D01*
X119738D01*
Y121774D01*
D02*
G37*
G36*
X442900Y118774D02*
X442762D01*
Y115012D01*
X446524D01*
Y115150D01*
X445835Y116813D01*
X444563Y118085D01*
X442900Y118774D01*
D02*
G37*
G36*
X441238D02*
X441100D01*
X439437Y118085D01*
X438165Y116813D01*
X437476Y115150D01*
Y115012D01*
X441238D01*
Y118774D01*
D02*
G37*
G36*
X408900D02*
X408762D01*
Y115012D01*
X412524D01*
Y115150D01*
X411835Y116813D01*
X410563Y118085D01*
X408900Y118774D01*
D02*
G37*
G36*
X407238D02*
X407100D01*
X405437Y118085D01*
X404165Y116813D01*
X403476Y115150D01*
Y115012D01*
X407238D01*
Y118774D01*
D02*
G37*
G36*
X374900D02*
X374762D01*
Y115012D01*
X378524D01*
Y115150D01*
X377835Y116813D01*
X376563Y118085D01*
X374900Y118774D01*
D02*
G37*
G36*
X373238D02*
X373100D01*
X371437Y118085D01*
X370165Y116813D01*
X369476Y115150D01*
Y115012D01*
X373238D01*
Y118774D01*
D02*
G37*
G36*
X479900Y117774D02*
X479762D01*
Y114012D01*
X483524D01*
Y114150D01*
X482835Y115813D01*
X481563Y117085D01*
X479900Y117774D01*
D02*
G37*
G36*
X478238D02*
X478100D01*
X476437Y117085D01*
X475165Y115813D01*
X474476Y114150D01*
Y114012D01*
X478238D01*
Y117774D01*
D02*
G37*
G36*
X237024Y116488D02*
X233262D01*
Y112726D01*
X233400D01*
X235063Y113415D01*
X236335Y114687D01*
X237024Y116350D01*
Y116488D01*
D02*
G37*
G36*
X231738D02*
X227976D01*
Y116350D01*
X228665Y114687D01*
X229937Y113415D01*
X231600Y112726D01*
X231738D01*
Y116488D01*
D02*
G37*
G36*
X196024D02*
X192262D01*
Y112726D01*
X192400D01*
X194063Y113415D01*
X195335Y114687D01*
X196024Y116350D01*
Y116488D01*
D02*
G37*
G36*
X190738D02*
X186976D01*
Y116350D01*
X187665Y114687D01*
X188937Y113415D01*
X190600Y112726D01*
X190738D01*
Y116488D01*
D02*
G37*
G36*
X166024D02*
X162262D01*
Y112726D01*
X162400D01*
X164063Y113415D01*
X165335Y114687D01*
X166024Y116350D01*
Y116488D01*
D02*
G37*
G36*
X160738D02*
X156976D01*
Y116350D01*
X157665Y114687D01*
X158937Y113415D01*
X160600Y112726D01*
X160738D01*
Y116488D01*
D02*
G37*
G36*
X125024D02*
X121262D01*
Y112726D01*
X121400D01*
X123063Y113415D01*
X124335Y114687D01*
X125024Y116350D01*
Y116488D01*
D02*
G37*
G36*
X119738D02*
X115976D01*
Y116350D01*
X116665Y114687D01*
X117937Y113415D01*
X119600Y112726D01*
X119738D01*
Y116488D01*
D02*
G37*
G36*
X446524Y113488D02*
X442762D01*
Y109726D01*
X442900D01*
X444563Y110415D01*
X445835Y111687D01*
X446524Y113350D01*
Y113488D01*
D02*
G37*
G36*
X441238D02*
X437476D01*
Y113350D01*
X438165Y111687D01*
X439437Y110415D01*
X441100Y109726D01*
X441238D01*
Y113488D01*
D02*
G37*
G36*
X412524D02*
X408762D01*
Y109726D01*
X408900D01*
X410563Y110415D01*
X411835Y111687D01*
X412524Y113350D01*
Y113488D01*
D02*
G37*
G36*
X407238D02*
X403476D01*
Y113350D01*
X404165Y111687D01*
X405437Y110415D01*
X407100Y109726D01*
X407238D01*
Y113488D01*
D02*
G37*
G36*
X378524D02*
X374762D01*
Y109726D01*
X374900D01*
X376563Y110415D01*
X377835Y111687D01*
X378524Y113350D01*
Y113488D01*
D02*
G37*
G36*
X373238D02*
X369476D01*
Y113350D01*
X370165Y111687D01*
X371437Y110415D01*
X373100Y109726D01*
X373238D01*
Y113488D01*
D02*
G37*
G36*
X493905Y118048D02*
X492095D01*
X490424Y117356D01*
X489144Y116076D01*
X488452Y114405D01*
Y112595D01*
X489144Y110924D01*
X490424Y109644D01*
X492095Y108952D01*
X493905D01*
X495576Y109644D01*
X496856Y110924D01*
X497548Y112595D01*
Y114405D01*
X496856Y116076D01*
X495576Y117356D01*
X493905Y118048D01*
D02*
G37*
G36*
X483524Y112488D02*
X479762D01*
Y108726D01*
X479900D01*
X481563Y109415D01*
X482835Y110687D01*
X483524Y112350D01*
Y112488D01*
D02*
G37*
G36*
X478238D02*
X474476D01*
Y112350D01*
X475165Y110687D01*
X476437Y109415D01*
X478100Y108726D01*
X478238D01*
Y112488D01*
D02*
G37*
G36*
X333202Y126832D02*
X331434Y126600D01*
X329786Y125917D01*
X328371Y124831D01*
X327285Y123416D01*
X326602Y121768D01*
X326370Y120000D01*
Y115000D01*
X326602Y113232D01*
X327285Y111584D01*
X328371Y110169D01*
X329786Y109083D01*
X331434Y108400D01*
X333202Y108168D01*
X334970Y108400D01*
X336618Y109083D01*
X338033Y110169D01*
X339119Y111584D01*
X339802Y113232D01*
X340034Y115000D01*
Y120000D01*
X339802Y121768D01*
X339119Y123416D01*
X338033Y124831D01*
X336618Y125917D01*
X334970Y126600D01*
X333202Y126832D01*
D02*
G37*
G36*
X263202D02*
X261434Y126600D01*
X259786Y125917D01*
X258371Y124831D01*
X257285Y123416D01*
X256602Y121768D01*
X256369Y120000D01*
Y115000D01*
X256602Y113232D01*
X257285Y111584D01*
X258371Y110169D01*
X259786Y109083D01*
X261434Y108400D01*
X263202Y108168D01*
X264970Y108400D01*
X266618Y109083D01*
X268033Y110169D01*
X269119Y111584D01*
X269802Y113232D01*
X270034Y115000D01*
Y120000D01*
X269802Y121768D01*
X269119Y123416D01*
X268033Y124831D01*
X266618Y125917D01*
X264970Y126600D01*
X263202Y126832D01*
D02*
G37*
G36*
X552722Y131524D02*
X550762D01*
Y90762D01*
X591524D01*
Y92722D01*
X590813Y98118D01*
X589405Y103376D01*
X587322Y108405D01*
X584600Y113119D01*
X581286Y117437D01*
X577437Y121286D01*
X573119Y124600D01*
X568405Y127322D01*
X563376Y129405D01*
X558118Y130814D01*
X552722Y131524D01*
D02*
G37*
G36*
X549238D02*
X547278D01*
X541882Y130814D01*
X536624Y129405D01*
X531595Y127322D01*
X526881Y124600D01*
X522562Y121286D01*
X518714Y117437D01*
X515400Y113119D01*
X512678Y108405D01*
X510595Y103376D01*
X509187Y98118D01*
X508476Y92722D01*
Y90762D01*
X549238D01*
Y131524D01*
D02*
G37*
G36*
X52722D02*
X50762D01*
Y90762D01*
X91524D01*
Y92722D01*
X90814Y98118D01*
X89405Y103376D01*
X87322Y108405D01*
X84600Y113119D01*
X81286Y117437D01*
X77437Y121286D01*
X73119Y124600D01*
X68405Y127322D01*
X63376Y129405D01*
X58118Y130814D01*
X52722Y131524D01*
D02*
G37*
G36*
X49238D02*
X47278D01*
X41882Y130814D01*
X36624Y129405D01*
X31595Y127322D01*
X26881Y124600D01*
X22563Y121286D01*
X18714Y117437D01*
X15400Y113119D01*
X12678Y108405D01*
X10595Y103376D01*
X9186Y98118D01*
X8476Y92722D01*
Y90762D01*
X49238D01*
Y131524D01*
D02*
G37*
G36*
X324202Y97332D02*
X322202D01*
X320434Y97100D01*
X318786Y96417D01*
X317371Y95331D01*
X316285Y93916D01*
X315602Y92268D01*
X315369Y90500D01*
X315602Y88732D01*
X316285Y87084D01*
X317371Y85669D01*
X318786Y84583D01*
X320434Y83900D01*
X322202Y83667D01*
X324202D01*
X325970Y83900D01*
X327618Y84583D01*
X329033Y85669D01*
X330119Y87084D01*
X330802Y88732D01*
X331034Y90500D01*
X330802Y92268D01*
X330119Y93916D01*
X329033Y95331D01*
X327618Y96417D01*
X325970Y97100D01*
X324202Y97332D01*
D02*
G37*
G36*
X274202D02*
X272202D01*
X270434Y97100D01*
X268786Y96417D01*
X267371Y95331D01*
X266285Y93916D01*
X265602Y92268D01*
X265369Y90500D01*
X265602Y88732D01*
X266285Y87084D01*
X267371Y85669D01*
X268786Y84583D01*
X270434Y83900D01*
X272202Y83667D01*
X274202D01*
X275970Y83900D01*
X277618Y84583D01*
X279033Y85669D01*
X280119Y87084D01*
X280802Y88732D01*
X281034Y90500D01*
X280802Y92268D01*
X280119Y93916D01*
X279033Y95331D01*
X277618Y96417D01*
X275970Y97100D01*
X274202Y97332D01*
D02*
G37*
G36*
X203900Y87024D02*
X203762D01*
Y83262D01*
X207524D01*
Y83400D01*
X206835Y85063D01*
X205563Y86335D01*
X203900Y87024D01*
D02*
G37*
G36*
X202238D02*
X202100D01*
X200437Y86335D01*
X199165Y85063D01*
X198476Y83400D01*
Y83262D01*
X202238D01*
Y87024D01*
D02*
G37*
G36*
X318905Y82548D02*
X317095D01*
X315424Y81856D01*
X314500Y80932D01*
X313576Y81856D01*
X311905Y82548D01*
X310095D01*
X308424Y81856D01*
X307144Y80576D01*
X306452Y78905D01*
Y77095D01*
X306865Y76098D01*
X306080Y74828D01*
X301604D01*
X300576Y75856D01*
X298905Y76548D01*
X297095D01*
X295424Y75856D01*
X294144Y74576D01*
X293452Y72905D01*
Y71095D01*
X294144Y69424D01*
X295424Y68144D01*
X297095Y67452D01*
X298905D01*
X300576Y68144D01*
X301604Y69172D01*
X327397D01*
X328424Y68144D01*
X330095Y67452D01*
X331905D01*
X333576Y68144D01*
X334856Y69424D01*
X335548Y71095D01*
Y72905D01*
X334856Y74576D01*
X333576Y75856D01*
X331905Y76548D01*
X330095D01*
X328424Y75856D01*
X327397Y74828D01*
X322920D01*
X322135Y76098D01*
X322548Y77095D01*
Y78905D01*
X321856Y80576D01*
X320576Y81856D01*
X318905Y82548D01*
D02*
G37*
G36*
X284238Y81524D02*
X284100D01*
X282437Y80835D01*
X281500Y79898D01*
X280563Y80835D01*
X278900Y81524D01*
X278762D01*
Y77000D01*
Y72476D01*
X278900D01*
X280563Y73165D01*
X281500Y74102D01*
X282437Y73165D01*
X284100Y72476D01*
X284238D01*
Y77000D01*
Y81524D01*
D02*
G37*
G36*
X154905Y88048D02*
X153095D01*
X151424Y87356D01*
X150144Y86076D01*
X149452Y84405D01*
Y82595D01*
X150144Y80924D01*
X151424Y79644D01*
X153095Y78952D01*
X154905D01*
X156576Y79644D01*
X157856Y80924D01*
X158548Y82595D01*
Y84405D01*
X157856Y86076D01*
X156576Y87356D01*
X154905Y88048D01*
D02*
G37*
G36*
X207524Y81738D02*
X203762D01*
Y77976D01*
X203900D01*
X205563Y78665D01*
X206835Y79937D01*
X207524Y81600D01*
Y81738D01*
D02*
G37*
G36*
X202238D02*
X198476D01*
Y81600D01*
X199165Y79937D01*
X200437Y78665D01*
X202100Y77976D01*
X202238D01*
Y81738D01*
D02*
G37*
G36*
X285900Y81524D02*
X285762D01*
Y77762D01*
X289524D01*
Y77900D01*
X288835Y79563D01*
X287563Y80835D01*
X285900Y81524D01*
D02*
G37*
G36*
X277238D02*
X277100D01*
X275437Y80835D01*
X274165Y79563D01*
X273476Y77900D01*
Y77762D01*
X277238D01*
Y81524D01*
D02*
G37*
G36*
X289524Y76238D02*
X285762D01*
Y72476D01*
X285900D01*
X287563Y73165D01*
X288835Y74437D01*
X289524Y76100D01*
Y76238D01*
D02*
G37*
G36*
X277238D02*
X273476D01*
Y76100D01*
X274165Y74437D01*
X275437Y73165D01*
X277100Y72476D01*
X277238D01*
Y76238D01*
D02*
G37*
G36*
X126400Y73524D02*
X126262D01*
Y69762D01*
X130024D01*
Y69900D01*
X129335Y71563D01*
X128063Y72835D01*
X126400Y73524D01*
D02*
G37*
G36*
X124738D02*
X124600D01*
X122937Y72835D01*
X121665Y71563D01*
X120976Y69900D01*
Y69762D01*
X124738D01*
Y73524D01*
D02*
G37*
G36*
X130024Y68238D02*
X126262D01*
Y64476D01*
X126400D01*
X128063Y65165D01*
X129335Y66437D01*
X130024Y68100D01*
Y68238D01*
D02*
G37*
G36*
X124738D02*
X120976D01*
Y68100D01*
X121665Y66437D01*
X122937Y65165D01*
X124600Y64476D01*
X124738D01*
Y68238D01*
D02*
G37*
G36*
X232405Y72548D02*
X230595D01*
X228924Y71856D01*
X227644Y70576D01*
X226952Y68905D01*
Y67095D01*
X227644Y65424D01*
X228924Y64144D01*
X230595Y63452D01*
X232405D01*
X234076Y64144D01*
X235356Y65424D01*
X236048Y67095D01*
Y68905D01*
X235356Y70576D01*
X234076Y71856D01*
X232405Y72548D01*
D02*
G37*
G36*
X297400Y58524D02*
X297262D01*
Y54762D01*
X301024D01*
Y54900D01*
X300335Y56563D01*
X299063Y57835D01*
X297400Y58524D01*
D02*
G37*
G36*
X295738D02*
X295600D01*
X293937Y57835D01*
X292665Y56563D01*
X291976Y54900D01*
Y54762D01*
X295738D01*
Y58524D01*
D02*
G37*
G36*
X301024Y53238D02*
X297262D01*
Y49476D01*
X297400D01*
X299063Y50165D01*
X300335Y51437D01*
X301024Y53100D01*
Y53238D01*
D02*
G37*
G36*
X295738D02*
X291976D01*
Y53100D01*
X292665Y51437D01*
X293937Y50165D01*
X295600Y49476D01*
X295738D01*
Y53238D01*
D02*
G37*
G36*
X312405Y58548D02*
X310595D01*
X308924Y57856D01*
X307644Y56576D01*
X306952Y54905D01*
Y53095D01*
X307644Y51424D01*
X308924Y50144D01*
X310595Y49452D01*
X312405D01*
X314076Y50144D01*
X315356Y51424D01*
X316048Y53095D01*
Y54905D01*
X315356Y56576D01*
X314076Y57856D01*
X312405Y58548D01*
D02*
G37*
G36*
X591524Y89238D02*
X550762D01*
Y48476D01*
X552722D01*
X558118Y49187D01*
X563376Y50595D01*
X568405Y52678D01*
X573119Y55400D01*
X577437Y58714D01*
X581286Y62563D01*
X584600Y66881D01*
X587322Y71595D01*
X589405Y76624D01*
X590813Y81882D01*
X591524Y87278D01*
Y89238D01*
D02*
G37*
G36*
X549238D02*
X508476D01*
Y87278D01*
X509187Y81882D01*
X510595Y76624D01*
X512678Y71595D01*
X515400Y66881D01*
X518714Y62563D01*
X522562Y58714D01*
X526881Y55400D01*
X531595Y52678D01*
X536624Y50595D01*
X541882Y49187D01*
X547278Y48476D01*
X549238D01*
Y89238D01*
D02*
G37*
G36*
X91524D02*
X50762D01*
Y48476D01*
X52722D01*
X58118Y49187D01*
X63376Y50595D01*
X68405Y52678D01*
X73119Y55400D01*
X77437Y58714D01*
X81286Y62563D01*
X84600Y66881D01*
X87322Y71595D01*
X89405Y76624D01*
X90814Y81882D01*
X91524Y87278D01*
Y89238D01*
D02*
G37*
G36*
X49238D02*
X8476D01*
Y87278D01*
X9186Y81882D01*
X10595Y76624D01*
X12678Y71595D01*
X15400Y66881D01*
X18714Y62563D01*
X22563Y58714D01*
X26881Y55400D01*
X31595Y52678D01*
X36624Y50595D01*
X41882Y49187D01*
X47278Y48476D01*
X49238D01*
Y89238D01*
D02*
G37*
G36*
X561846Y24024D02*
X560762D01*
Y10762D01*
X574024D01*
Y11846D01*
X573068Y15413D01*
X571222Y18611D01*
X568611Y21222D01*
X565413Y23068D01*
X561846Y24024D01*
D02*
G37*
G36*
X559238D02*
X558154D01*
X554587Y23068D01*
X551389Y21222D01*
X548778Y18611D01*
X546932Y15413D01*
X545976Y11846D01*
Y10762D01*
X559238D01*
Y24024D01*
D02*
G37*
G36*
X290405Y14548D02*
X288595D01*
X286924Y13856D01*
X285644Y12576D01*
X284952Y10905D01*
Y9095D01*
X285644Y7424D01*
X286924Y6144D01*
X288595Y5452D01*
X290405D01*
X292076Y6144D01*
X293356Y7424D01*
X294048Y9095D01*
Y10905D01*
X293356Y12576D01*
X292076Y13856D01*
X290405Y14548D01*
D02*
G37*
G36*
X355900Y3024D02*
X355762D01*
Y-738D01*
X359524D01*
Y-600D01*
X358835Y1063D01*
X357563Y2335D01*
X355900Y3024D01*
D02*
G37*
G36*
X354238D02*
X354100D01*
X352437Y2335D01*
X351165Y1063D01*
X350476Y-600D01*
Y-738D01*
X354238D01*
Y3024D01*
D02*
G37*
G36*
X341900Y3024D02*
X341762D01*
Y-738D01*
X345524D01*
Y-600D01*
X344835Y1063D01*
X343563Y2335D01*
X341900Y3024D01*
D02*
G37*
G36*
X340238D02*
X340100D01*
X338437Y2335D01*
X337165Y1063D01*
X336476Y-600D01*
Y-657D01*
X335306Y-1372D01*
X335206Y-1372D01*
X334200Y-1172D01*
X309604D01*
X308576Y-144D01*
X306905Y548D01*
X305095D01*
X303424Y-144D01*
X302144Y-1424D01*
X301452Y-3095D01*
Y-4905D01*
X302144Y-6576D01*
X303424Y-7856D01*
X305095Y-8548D01*
X306905D01*
X308576Y-7856D01*
X309604Y-6828D01*
X333028D01*
X346478Y-20279D01*
X345926Y-21522D01*
X344424Y-22144D01*
X343195Y-23374D01*
X330498D01*
X330498Y-23374D01*
X329416Y-23589D01*
X328498Y-24202D01*
X297100Y-55600D01*
X296487Y-56518D01*
X296272Y-57600D01*
Y-60996D01*
X295244Y-62024D01*
X294552Y-63695D01*
Y-65505D01*
X295244Y-67176D01*
X296524Y-68456D01*
X298195Y-69148D01*
X300005D01*
X301676Y-68456D01*
X302956Y-67176D01*
X303648Y-65505D01*
Y-63695D01*
X302956Y-62024D01*
X301928Y-60996D01*
Y-58772D01*
X329206Y-31494D01*
X330476Y-32020D01*
Y-32900D01*
X331165Y-34563D01*
X332437Y-35835D01*
X334100Y-36524D01*
X334238D01*
Y-32000D01*
X335000D01*
Y-31238D01*
X339524D01*
Y-31100D01*
X339193Y-30300D01*
X340041Y-29030D01*
X343599D01*
X344424Y-29856D01*
X346095Y-30548D01*
X347905D01*
X349576Y-29856D01*
X350856Y-28576D01*
X351478Y-27074D01*
X352721Y-26522D01*
X367172Y-40972D01*
Y-64397D01*
X366144Y-65424D01*
X365452Y-67095D01*
Y-68905D01*
X366144Y-70576D01*
X367424Y-71856D01*
X369095Y-72548D01*
X370905D01*
X372576Y-71856D01*
X373856Y-70576D01*
X374548Y-68905D01*
Y-67095D01*
X373856Y-65424D01*
X372828Y-64397D01*
Y-39801D01*
X372828Y-39800D01*
X372613Y-38718D01*
X372000Y-37801D01*
X372000Y-37800D01*
X341397Y-7197D01*
X341883Y-6024D01*
X341900D01*
X343563Y-5335D01*
X344835Y-4063D01*
X345524Y-2400D01*
Y-2262D01*
X341000D01*
Y-1500D01*
X340238D01*
Y3024D01*
D02*
G37*
G36*
X574024Y9238D02*
X560762D01*
Y-4024D01*
X561846D01*
X565413Y-3068D01*
X568611Y-1222D01*
X571222Y1389D01*
X573068Y4587D01*
X574024Y8154D01*
Y9238D01*
D02*
G37*
G36*
X559238D02*
X545976D01*
Y8154D01*
X546932Y4587D01*
X548778Y1389D01*
X551389Y-1222D01*
X554587Y-3068D01*
X558154Y-4024D01*
X559238D01*
Y9238D01*
D02*
G37*
G36*
X359524Y-2262D02*
X355762D01*
Y-6024D01*
X355900D01*
X357563Y-5335D01*
X358835Y-4063D01*
X359524Y-2400D01*
Y-2262D01*
D02*
G37*
G36*
X354238D02*
X350476D01*
Y-2400D01*
X351165Y-4063D01*
X352437Y-5335D01*
X354100Y-6024D01*
X354238D01*
Y-2262D01*
D02*
G37*
G36*
X383905Y3048D02*
X382095D01*
X380424Y2356D01*
X379144Y1076D01*
X378452Y-595D01*
Y-2405D01*
X379144Y-4076D01*
X380424Y-5356D01*
X382095Y-6048D01*
X383905D01*
X385576Y-5356D01*
X386856Y-4076D01*
X387548Y-2405D01*
Y-595D01*
X386856Y1076D01*
X385576Y2356D01*
X383905Y3048D01*
D02*
G37*
G36*
X41846Y19024D02*
X38154D01*
X34587Y18068D01*
X31389Y16222D01*
X28778Y13611D01*
X26932Y10413D01*
X25976Y6846D01*
Y3154D01*
X26932Y-413D01*
X28778Y-3611D01*
X31389Y-6222D01*
X34587Y-8068D01*
X38154Y-9024D01*
X41846D01*
X45413Y-8068D01*
X48611Y-6222D01*
X51222Y-3611D01*
X53068Y-413D01*
X54024Y3154D01*
Y6846D01*
X53068Y10413D01*
X51222Y13611D01*
X48611Y16222D01*
X45413Y18068D01*
X41846Y19024D01*
D02*
G37*
G36*
X383900Y-11976D02*
X383762D01*
Y-15738D01*
X387524D01*
Y-15600D01*
X386835Y-13937D01*
X385563Y-12665D01*
X383900Y-11976D01*
D02*
G37*
G36*
X382238D02*
X382100D01*
X380437Y-12665D01*
X379165Y-13937D01*
X378476Y-15600D01*
Y-15738D01*
X382238D01*
Y-11976D01*
D02*
G37*
G36*
X387524Y-17262D02*
X383762D01*
Y-21024D01*
X383900D01*
X385563Y-20335D01*
X386835Y-19063D01*
X387524Y-17400D01*
Y-17262D01*
D02*
G37*
G36*
X382238D02*
X378476D01*
Y-17400D01*
X379165Y-19063D01*
X380437Y-20335D01*
X382100Y-21024D01*
X382238D01*
Y-17262D01*
D02*
G37*
G36*
X290405Y-17452D02*
X288595D01*
X286924Y-18144D01*
X285644Y-19424D01*
X284952Y-21095D01*
Y-22905D01*
X285644Y-24576D01*
X286924Y-25856D01*
X288595Y-26548D01*
X290405D01*
X292076Y-25856D01*
X293356Y-24576D01*
X294048Y-22905D01*
Y-21095D01*
X293356Y-19424D01*
X292076Y-18144D01*
X290405Y-17452D01*
D02*
G37*
G36*
X339524Y-32762D02*
X335762D01*
Y-36524D01*
X335900D01*
X337563Y-35835D01*
X338835Y-34563D01*
X339524Y-32900D01*
Y-32762D01*
D02*
G37*
G36*
X41846Y-30976D02*
X40762D01*
Y-44238D01*
X54024D01*
Y-43154D01*
X53068Y-39587D01*
X51222Y-36389D01*
X48611Y-33778D01*
X45413Y-31932D01*
X41846Y-30976D01*
D02*
G37*
G36*
X39238D02*
X38154D01*
X34587Y-31932D01*
X31389Y-33778D01*
X28778Y-36389D01*
X26932Y-39587D01*
X25976Y-43154D01*
Y-44238D01*
X39238D01*
Y-30976D01*
D02*
G37*
G36*
X561846Y-25976D02*
X558154D01*
X554587Y-26932D01*
X551389Y-28778D01*
X548778Y-31389D01*
X546932Y-34587D01*
X545976Y-38154D01*
Y-41846D01*
X546932Y-45413D01*
X548778Y-48611D01*
X551389Y-51222D01*
X554587Y-53068D01*
X558154Y-54024D01*
X561846D01*
X565413Y-53068D01*
X568611Y-51222D01*
X571222Y-48611D01*
X573068Y-45413D01*
X574024Y-41846D01*
Y-38154D01*
X573068Y-34587D01*
X571222Y-31389D01*
X568611Y-28778D01*
X565413Y-26932D01*
X561846Y-25976D01*
D02*
G37*
G36*
X342400Y-52976D02*
X342262D01*
Y-56738D01*
X346024D01*
Y-56600D01*
X345335Y-54937D01*
X344063Y-53665D01*
X342400Y-52976D01*
D02*
G37*
G36*
X340738D02*
X340600D01*
X338937Y-53665D01*
X337665Y-54937D01*
X336976Y-56600D01*
Y-56738D01*
X340738D01*
Y-52976D01*
D02*
G37*
G36*
X331400D02*
X331262D01*
Y-56738D01*
X335024D01*
Y-56600D01*
X334335Y-54937D01*
X333063Y-53665D01*
X331400Y-52976D01*
D02*
G37*
G36*
X329738D02*
X329600D01*
X327937Y-53665D01*
X326665Y-54937D01*
X325976Y-56600D01*
Y-56738D01*
X329738D01*
Y-52976D01*
D02*
G37*
G36*
X54024Y-45762D02*
X40762D01*
Y-59024D01*
X41846D01*
X45413Y-58068D01*
X48611Y-56222D01*
X51222Y-53611D01*
X53068Y-50413D01*
X54024Y-46846D01*
Y-45762D01*
D02*
G37*
G36*
X39238D02*
X25976D01*
Y-46846D01*
X26932Y-50413D01*
X28778Y-53611D01*
X31389Y-56222D01*
X34587Y-58068D01*
X38154Y-59024D01*
X39238D01*
Y-45762D01*
D02*
G37*
G36*
X346024Y-58262D02*
X342262D01*
Y-62024D01*
X342400D01*
X344063Y-61335D01*
X345335Y-60063D01*
X346024Y-58400D01*
Y-58262D01*
D02*
G37*
G36*
X340738D02*
X336976D01*
Y-58400D01*
X337665Y-60063D01*
X338937Y-61335D01*
X340600Y-62024D01*
X340738D01*
Y-58262D01*
D02*
G37*
G36*
X335024D02*
X331262D01*
Y-62024D01*
X331400D01*
X333063Y-61335D01*
X334335Y-60063D01*
X335024Y-58400D01*
Y-58262D01*
D02*
G37*
G36*
X329738D02*
X325976D01*
Y-58400D01*
X326665Y-60063D01*
X327937Y-61335D01*
X329600Y-62024D01*
X329738D01*
Y-58262D01*
D02*
G37*
G36*
X342400Y-63976D02*
X342262D01*
Y-67738D01*
X346024D01*
Y-67600D01*
X345335Y-65937D01*
X344063Y-64665D01*
X342400Y-63976D01*
D02*
G37*
G36*
X340738D02*
X340600D01*
X338937Y-64665D01*
X337665Y-65937D01*
X336976Y-67600D01*
Y-67738D01*
X340738D01*
Y-63976D01*
D02*
G37*
G36*
X331400D02*
X331262D01*
Y-67738D01*
X335024D01*
Y-67600D01*
X334335Y-65937D01*
X333063Y-64665D01*
X331400Y-63976D01*
D02*
G37*
G36*
X329738D02*
X329600D01*
X327937Y-64665D01*
X326665Y-65937D01*
X325976Y-67600D01*
Y-67738D01*
X329738D01*
Y-63976D01*
D02*
G37*
G36*
X346024Y-69262D02*
X342262D01*
Y-73024D01*
X342400D01*
X344063Y-72335D01*
X345335Y-71063D01*
X346024Y-69400D01*
Y-69262D01*
D02*
G37*
G36*
X340738D02*
X336976D01*
Y-69400D01*
X337665Y-71063D01*
X338937Y-72335D01*
X340600Y-73024D01*
X340738D01*
Y-69262D01*
D02*
G37*
G36*
X335024D02*
X331262D01*
Y-73024D01*
X331400D01*
X333063Y-72335D01*
X334335Y-71063D01*
X335024Y-69400D01*
Y-69262D01*
D02*
G37*
G36*
X329738D02*
X325976D01*
Y-69400D01*
X326665Y-71063D01*
X327937Y-72335D01*
X329600Y-73024D01*
X329738D01*
Y-69262D01*
D02*
G37*
G36*
X299900Y-83976D02*
X299762D01*
Y-87738D01*
X303524D01*
Y-87600D01*
X302835Y-85937D01*
X301563Y-84665D01*
X299900Y-83976D01*
D02*
G37*
G36*
X298238D02*
X298100D01*
X296437Y-84665D01*
X295165Y-85937D01*
X294476Y-87600D01*
Y-87738D01*
X298238D01*
Y-83976D01*
D02*
G37*
G36*
X336900Y-88476D02*
X336762D01*
Y-92238D01*
X340524D01*
Y-92100D01*
X339835Y-90437D01*
X338563Y-89165D01*
X336900Y-88476D01*
D02*
G37*
G36*
X335238D02*
X335100D01*
X333437Y-89165D01*
X332165Y-90437D01*
X331476Y-92100D01*
Y-92238D01*
X335238D01*
Y-88476D01*
D02*
G37*
G36*
X303524Y-89262D02*
X299762D01*
Y-93024D01*
X299900D01*
X301563Y-92335D01*
X302835Y-91063D01*
X303524Y-89400D01*
Y-89262D01*
D02*
G37*
G36*
X298238D02*
X294476D01*
Y-89400D01*
X295165Y-91063D01*
X296437Y-92335D01*
X298100Y-93024D01*
X298238D01*
Y-89262D01*
D02*
G37*
G36*
X340524Y-93762D02*
X336762D01*
Y-97524D01*
X336900D01*
X338563Y-96835D01*
X339835Y-95563D01*
X340524Y-93900D01*
Y-93762D01*
D02*
G37*
G36*
X335238D02*
X331476D01*
Y-93900D01*
X332165Y-95563D01*
X333437Y-96835D01*
X335100Y-97524D01*
X335238D01*
Y-93762D01*
D02*
G37*
G36*
X561846Y-75976D02*
X558154D01*
X554587Y-76932D01*
X551389Y-78778D01*
X548778Y-81389D01*
X546932Y-84587D01*
X545976Y-88154D01*
Y-91846D01*
X546932Y-95413D01*
X548778Y-98611D01*
X551389Y-101222D01*
X554587Y-103068D01*
X558154Y-104024D01*
X561846D01*
X565413Y-103068D01*
X568611Y-101222D01*
X571222Y-98611D01*
X573068Y-95413D01*
X574024Y-91846D01*
Y-88154D01*
X573068Y-84587D01*
X571222Y-81389D01*
X568611Y-78778D01*
X565413Y-76932D01*
X561846Y-75976D01*
D02*
G37*
G36*
X267209Y-101076D02*
X267112D01*
Y-106838D01*
X272874D01*
Y-106741D01*
X272429Y-105082D01*
X271570Y-103594D01*
X270356Y-102380D01*
X268868Y-101521D01*
X267209Y-101076D01*
D02*
G37*
G36*
X41846Y-80976D02*
X38154D01*
X34587Y-81932D01*
X31389Y-83778D01*
X28778Y-86389D01*
X26932Y-89587D01*
X25976Y-93154D01*
Y-96846D01*
X26932Y-100413D01*
X28778Y-103611D01*
X31389Y-106222D01*
X34587Y-108068D01*
X38154Y-109024D01*
X41846D01*
X45413Y-108068D01*
X48611Y-106222D01*
X51222Y-103611D01*
X53068Y-100413D01*
X54024Y-96846D01*
Y-93154D01*
X53068Y-89587D01*
X51222Y-86389D01*
X48611Y-83778D01*
X45413Y-81932D01*
X41846Y-80976D01*
D02*
G37*
G36*
Y-130976D02*
X40762D01*
Y-144238D01*
X54024D01*
Y-143154D01*
X53068Y-139587D01*
X51222Y-136389D01*
X48611Y-133778D01*
X45413Y-131932D01*
X41846Y-130976D01*
D02*
G37*
G36*
X39238D02*
X38154D01*
X34587Y-131932D01*
X31389Y-133778D01*
X28778Y-136389D01*
X26932Y-139587D01*
X25976Y-143154D01*
Y-144238D01*
X39238D01*
Y-130976D01*
D02*
G37*
G36*
X536107Y-139397D02*
X534297D01*
X532626Y-140090D01*
X531346Y-141369D01*
X530654Y-143041D01*
Y-144850D01*
X531346Y-146521D01*
X532626Y-147801D01*
X534297Y-148493D01*
X536107D01*
X537778Y-147801D01*
X539058Y-146521D01*
X539750Y-144850D01*
Y-143041D01*
X539058Y-141369D01*
X537778Y-140090D01*
X536107Y-139397D01*
D02*
G37*
G36*
X561846Y-125976D02*
X558154D01*
X554587Y-126932D01*
X551389Y-128778D01*
X548778Y-131389D01*
X546932Y-134587D01*
X545976Y-138154D01*
Y-141846D01*
X546932Y-145413D01*
X548778Y-148611D01*
X551389Y-151222D01*
X554587Y-153068D01*
X558154Y-154024D01*
X561846D01*
X565413Y-153068D01*
X568611Y-151222D01*
X571222Y-148611D01*
X573068Y-145413D01*
X574024Y-141846D01*
Y-138154D01*
X573068Y-134587D01*
X571222Y-131389D01*
X568611Y-128778D01*
X565413Y-126932D01*
X561846Y-125976D01*
D02*
G37*
G36*
X54024Y-145762D02*
X40762D01*
Y-159024D01*
X41846D01*
X45413Y-158068D01*
X48611Y-156222D01*
X51222Y-153611D01*
X53068Y-150413D01*
X54024Y-146846D01*
Y-145762D01*
D02*
G37*
G36*
X39238D02*
X25976D01*
Y-146846D01*
X26932Y-150413D01*
X28778Y-153611D01*
X31389Y-156222D01*
X34587Y-158068D01*
X38154Y-159024D01*
X39238D01*
Y-145762D01*
D02*
G37*
G36*
X257400Y-101022D02*
X249900D01*
X248818Y-101237D01*
X247900Y-101850D01*
X247287Y-102768D01*
X247072Y-103850D01*
Y-111350D01*
X247287Y-112432D01*
X247900Y-113350D01*
X248818Y-113963D01*
X248995Y-113998D01*
X249172Y-114294D01*
X249358Y-115365D01*
X248430Y-116294D01*
X247571Y-117782D01*
X247126Y-119441D01*
Y-121159D01*
X247571Y-122818D01*
X248430Y-124306D01*
X249644Y-125520D01*
X250331Y-125917D01*
Y-127383D01*
X249644Y-127780D01*
X248430Y-128994D01*
X247571Y-130482D01*
X247126Y-132141D01*
Y-133859D01*
X247571Y-135518D01*
X248430Y-137006D01*
X249644Y-138221D01*
X250331Y-138617D01*
Y-140083D01*
X249644Y-140479D01*
X248430Y-141694D01*
X247571Y-143182D01*
X247126Y-144841D01*
Y-146559D01*
X247571Y-148218D01*
X248430Y-149706D01*
X249644Y-150920D01*
X250331Y-151317D01*
Y-152783D01*
X249644Y-153180D01*
X248430Y-154394D01*
X247571Y-155882D01*
X247126Y-157541D01*
Y-159259D01*
X247571Y-160918D01*
X248430Y-162406D01*
X249644Y-163620D01*
X251132Y-164479D01*
X252791Y-164924D01*
X254509D01*
X256168Y-164479D01*
X257656Y-163620D01*
X258871Y-162406D01*
X259267Y-161719D01*
X260733D01*
X261129Y-162406D01*
X262344Y-163620D01*
X263832Y-164479D01*
X265491Y-164924D01*
X267209D01*
X268868Y-164479D01*
X270356Y-163620D01*
X271570Y-162406D01*
X272429Y-160918D01*
X272874Y-159259D01*
Y-157541D01*
X272429Y-155882D01*
X271570Y-154394D01*
X270356Y-153180D01*
X269669Y-152783D01*
Y-151317D01*
X270356Y-150920D01*
X271570Y-149706D01*
X272429Y-148218D01*
X272874Y-146559D01*
Y-144841D01*
X272429Y-143182D01*
X271570Y-141694D01*
X270356Y-140479D01*
X269669Y-140083D01*
Y-138617D01*
X270356Y-138221D01*
X271570Y-137006D01*
X272429Y-135518D01*
X272874Y-133859D01*
Y-132141D01*
X272429Y-130482D01*
X271570Y-128994D01*
X270356Y-127780D01*
X269669Y-127383D01*
Y-125917D01*
X270356Y-125520D01*
X271570Y-124306D01*
X272429Y-122818D01*
X272874Y-121159D01*
Y-119441D01*
X272429Y-117782D01*
X271570Y-116294D01*
X270356Y-115079D01*
X269669Y-114683D01*
Y-113217D01*
X270356Y-112821D01*
X271570Y-111606D01*
X272429Y-110118D01*
X272874Y-108459D01*
Y-108362D01*
X266350D01*
Y-107600D01*
X265588D01*
Y-101076D01*
X265491D01*
X263832Y-101521D01*
X262344Y-102380D01*
X261416Y-103308D01*
X260344Y-103122D01*
X260048Y-102945D01*
X260013Y-102768D01*
X259400Y-101850D01*
X258482Y-101237D01*
X257400Y-101022D01*
D02*
G37*
G36*
X231805Y-163952D02*
X230195D01*
X228707Y-164568D01*
X228104Y-165172D01*
X186896D01*
X186293Y-164568D01*
X184805Y-163952D01*
X183195D01*
X181707Y-164568D01*
X180568Y-165707D01*
X179952Y-167195D01*
Y-168805D01*
X180568Y-170293D01*
X181535Y-171259D01*
X181613Y-172663D01*
X181568Y-172707D01*
X180952Y-174195D01*
Y-175805D01*
X181568Y-177293D01*
X182707Y-178432D01*
X184195Y-179048D01*
X184412D01*
X184952Y-179195D01*
Y-180805D01*
X185568Y-182293D01*
X186707Y-183432D01*
X188195Y-184048D01*
X189805D01*
X191293Y-183432D01*
X191300Y-183424D01*
X223627D01*
X224231Y-184028D01*
X225718Y-184644D01*
X227329D01*
X228817Y-184028D01*
X229955Y-182889D01*
X230572Y-181401D01*
Y-179791D01*
X229955Y-178303D01*
X228817Y-177164D01*
X228654Y-175722D01*
X228806Y-175356D01*
Y-173745D01*
X228357Y-172661D01*
X229247Y-171655D01*
X230195Y-172048D01*
X231805D01*
X233293Y-171432D01*
X234432Y-170293D01*
X235048Y-168805D01*
Y-167195D01*
X234432Y-165707D01*
X233293Y-164568D01*
X231805Y-163952D01*
D02*
G37*
G36*
X369204Y-181856D02*
X366796D01*
X364470Y-182479D01*
X362385Y-183683D01*
X360683Y-185385D01*
X359479Y-187470D01*
X358856Y-189796D01*
Y-192204D01*
X359479Y-194529D01*
X360683Y-196614D01*
X362385Y-198317D01*
X364470Y-199521D01*
X366796Y-200144D01*
X369204D01*
X371530Y-199521D01*
X373615Y-198317D01*
X375317Y-196614D01*
X376521Y-194529D01*
X377144Y-192204D01*
Y-189796D01*
X376521Y-187470D01*
X375317Y-185385D01*
X373615Y-183683D01*
X371530Y-182479D01*
X369204Y-181856D01*
D02*
G37*
G36*
X287204Y-182856D02*
X284796D01*
X282471Y-183479D01*
X280385Y-184683D01*
X278683Y-186385D01*
X277479Y-188470D01*
X276856Y-190796D01*
Y-193204D01*
X277479Y-195529D01*
X278683Y-197614D01*
X280385Y-199317D01*
X282471Y-200521D01*
X284796Y-201144D01*
X287204D01*
X289529Y-200521D01*
X291615Y-199317D01*
X293317Y-197614D01*
X294521Y-195529D01*
X295144Y-193204D01*
Y-190796D01*
X294521Y-188470D01*
X293317Y-186385D01*
X291615Y-184683D01*
X289529Y-183479D01*
X287204Y-182856D01*
D02*
G37*
G36*
X561846Y-195976D02*
X560762D01*
Y-209238D01*
X574024D01*
Y-208154D01*
X573068Y-204587D01*
X571222Y-201389D01*
X568611Y-198778D01*
X565413Y-196932D01*
X561846Y-195976D01*
D02*
G37*
G36*
X559238D02*
X558154D01*
X554587Y-196932D01*
X551389Y-198778D01*
X548778Y-201389D01*
X546932Y-204587D01*
X545976Y-208154D01*
Y-209238D01*
X559238D01*
Y-195976D01*
D02*
G37*
G36*
X343804Y-207256D02*
X341396D01*
X339071Y-207879D01*
X336986Y-209083D01*
X335283Y-210785D01*
X334275Y-212532D01*
X333185Y-212591D01*
X332886Y-212498D01*
X332856Y-212424D01*
X331576Y-211144D01*
X329905Y-210452D01*
X328095D01*
X326424Y-211144D01*
X325144Y-212424D01*
X324452Y-214095D01*
Y-215905D01*
X325144Y-217576D01*
X326424Y-218856D01*
X328095Y-219548D01*
X329905D01*
X331576Y-218856D01*
X332286Y-218146D01*
X333703Y-218525D01*
X334079Y-219929D01*
X335283Y-222015D01*
X336986Y-223717D01*
X339071Y-224921D01*
X341396Y-225544D01*
X343804D01*
X346129Y-224921D01*
X348214Y-223717D01*
X349917Y-222015D01*
X351121Y-219929D01*
X351744Y-217604D01*
Y-215196D01*
X351121Y-212871D01*
X349917Y-210785D01*
X348214Y-209083D01*
X346129Y-207879D01*
X343804Y-207256D01*
D02*
G37*
G36*
X574024Y-210762D02*
X560762D01*
Y-224024D01*
X561846D01*
X565413Y-223068D01*
X568611Y-221222D01*
X571222Y-218611D01*
X573068Y-215413D01*
X574024Y-211846D01*
Y-210762D01*
D02*
G37*
G36*
X559238D02*
X545976D01*
Y-211846D01*
X546932Y-215413D01*
X548778Y-218611D01*
X551389Y-221222D01*
X554587Y-223068D01*
X558154Y-224024D01*
X559238D01*
Y-210762D01*
D02*
G37*
G36*
X261804Y-208256D02*
X259396D01*
X257071Y-208879D01*
X254986Y-210083D01*
X253283Y-211786D01*
X252079Y-213871D01*
X251456Y-216196D01*
Y-218604D01*
X252079Y-220930D01*
X253283Y-223015D01*
X254986Y-224717D01*
X257071Y-225921D01*
X259396Y-226544D01*
X261804D01*
X264130Y-225921D01*
X266215Y-224717D01*
X267917Y-223015D01*
X269121Y-220930D01*
X269744Y-218604D01*
Y-216196D01*
X269121Y-213871D01*
X267917Y-211786D01*
X266215Y-210083D01*
X264130Y-208879D01*
X261804Y-208256D01*
D02*
G37*
G36*
X41846Y-200976D02*
X38154D01*
X34587Y-201932D01*
X31389Y-203778D01*
X28778Y-206389D01*
X26932Y-209587D01*
X25976Y-213154D01*
Y-216846D01*
X26932Y-220413D01*
X28778Y-223611D01*
X31389Y-226222D01*
X34587Y-228068D01*
X38154Y-229024D01*
X41846D01*
X45413Y-228068D01*
X48611Y-226222D01*
X51222Y-223611D01*
X53068Y-220413D01*
X54024Y-216846D01*
Y-213154D01*
X53068Y-209587D01*
X51222Y-206389D01*
X48611Y-203778D01*
X45413Y-201932D01*
X41846Y-200976D01*
D02*
G37*
G36*
X369204Y-232656D02*
X366796D01*
X364470Y-233279D01*
X362385Y-234483D01*
X360683Y-236185D01*
X359479Y-238270D01*
X358856Y-240596D01*
Y-243004D01*
X359479Y-245329D01*
X360683Y-247414D01*
X362385Y-249117D01*
X364470Y-250321D01*
X366796Y-250944D01*
X369204D01*
X371530Y-250321D01*
X373615Y-249117D01*
X375317Y-247414D01*
X376521Y-245329D01*
X377144Y-243004D01*
Y-240596D01*
X376521Y-238270D01*
X375317Y-236185D01*
X373615Y-234483D01*
X371530Y-233279D01*
X369204Y-232656D01*
D02*
G37*
G36*
X287204Y-233656D02*
X284796D01*
X282471Y-234279D01*
X280385Y-235483D01*
X278683Y-237185D01*
X277479Y-239270D01*
X276856Y-241596D01*
Y-244004D01*
X277479Y-246329D01*
X278683Y-248414D01*
X280385Y-250117D01*
X282471Y-251321D01*
X284796Y-251944D01*
X287204D01*
X289529Y-251321D01*
X291615Y-250117D01*
X293317Y-248414D01*
X294521Y-246329D01*
X295144Y-244004D01*
Y-241596D01*
X294521Y-239270D01*
X293317Y-237185D01*
X291615Y-235483D01*
X289529Y-234279D01*
X287204Y-233656D01*
D02*
G37*
G36*
X383376Y-258476D02*
X383238D01*
Y-262238D01*
X387000D01*
Y-262100D01*
X386311Y-260437D01*
X385039Y-259165D01*
X383376Y-258476D01*
D02*
G37*
G36*
X381714D02*
X381576D01*
X379913Y-259165D01*
X378641Y-260437D01*
X377952Y-262100D01*
Y-262238D01*
X381714D01*
Y-258476D01*
D02*
G37*
G36*
X302400Y-260476D02*
X302262D01*
Y-264238D01*
X306024D01*
Y-264100D01*
X305335Y-262437D01*
X304063Y-261165D01*
X302400Y-260476D01*
D02*
G37*
G36*
X300738D02*
X300600D01*
X298937Y-261165D01*
X297665Y-262437D01*
X296976Y-264100D01*
Y-264238D01*
X300738D01*
Y-260476D01*
D02*
G37*
G36*
X387000Y-263762D02*
X383238D01*
Y-267524D01*
X383376D01*
X385039Y-266835D01*
X386311Y-265563D01*
X387000Y-263900D01*
Y-263762D01*
D02*
G37*
G36*
X381714D02*
X377952D01*
Y-263900D01*
X378641Y-265563D01*
X379913Y-266835D01*
X381576Y-267524D01*
X381714D01*
Y-263762D01*
D02*
G37*
G36*
X306024Y-265762D02*
X302262D01*
Y-269524D01*
X302400D01*
X304063Y-268835D01*
X305335Y-267563D01*
X306024Y-265900D01*
Y-265762D01*
D02*
G37*
G36*
X300738D02*
X296976D01*
Y-265900D01*
X297665Y-267563D01*
X298937Y-268835D01*
X300600Y-269524D01*
X300738D01*
Y-265762D01*
D02*
G37*
G36*
X561846Y-245976D02*
X558154D01*
X554587Y-246932D01*
X551389Y-248778D01*
X548778Y-251389D01*
X546932Y-254587D01*
X545976Y-258154D01*
Y-261846D01*
X546932Y-265413D01*
X548778Y-268611D01*
X551389Y-271222D01*
X554587Y-273068D01*
X558154Y-274024D01*
X561846D01*
X565413Y-273068D01*
X568611Y-271222D01*
X571222Y-268611D01*
X573068Y-265413D01*
X574024Y-261846D01*
Y-258154D01*
X573068Y-254587D01*
X571222Y-251389D01*
X568611Y-248778D01*
X565413Y-246932D01*
X561846Y-245976D01*
D02*
G37*
G36*
X383400Y-272476D02*
X383262D01*
Y-276238D01*
X387024D01*
Y-276100D01*
X386335Y-274437D01*
X385063Y-273165D01*
X383400Y-272476D01*
D02*
G37*
G36*
X381738D02*
X381600D01*
X379937Y-273165D01*
X378665Y-274437D01*
X377976Y-276100D01*
Y-276238D01*
X381738D01*
Y-272476D01*
D02*
G37*
G36*
X302400Y-274476D02*
X302262D01*
Y-278238D01*
X306024D01*
Y-278100D01*
X305335Y-276437D01*
X304063Y-275165D01*
X302400Y-274476D01*
D02*
G37*
G36*
X300738D02*
X300600D01*
X298937Y-275165D01*
X297665Y-276437D01*
X296976Y-278100D01*
Y-278238D01*
X300738D01*
Y-274476D01*
D02*
G37*
G36*
X41846Y-250976D02*
X38154D01*
X34587Y-251932D01*
X31389Y-253778D01*
X28778Y-256389D01*
X26932Y-259587D01*
X25976Y-263154D01*
Y-266846D01*
X26932Y-270413D01*
X28778Y-273611D01*
X31389Y-276222D01*
X34587Y-278068D01*
X38154Y-279024D01*
X41846D01*
X45413Y-278068D01*
X48611Y-276222D01*
X51222Y-273611D01*
X53068Y-270413D01*
X54024Y-266846D01*
Y-263154D01*
X53068Y-259587D01*
X51222Y-256389D01*
X48611Y-253778D01*
X45413Y-251932D01*
X41846Y-250976D01*
D02*
G37*
G36*
X387024Y-277762D02*
X383262D01*
Y-281524D01*
X383400D01*
X385063Y-280835D01*
X386335Y-279563D01*
X387024Y-277900D01*
Y-277762D01*
D02*
G37*
G36*
X381738D02*
X377976D01*
Y-277900D01*
X378665Y-279563D01*
X379937Y-280835D01*
X381600Y-281524D01*
X381738D01*
Y-277762D01*
D02*
G37*
G36*
X306024Y-279762D02*
X302262D01*
Y-283524D01*
X302400D01*
X304063Y-282835D01*
X305335Y-281563D01*
X306024Y-279900D01*
Y-279762D01*
D02*
G37*
G36*
X300738D02*
X296976D01*
Y-279900D01*
X297665Y-281563D01*
X298937Y-282835D01*
X300600Y-283524D01*
X300738D01*
Y-279762D01*
D02*
G37*
G36*
X383400Y-286476D02*
X383262D01*
Y-290238D01*
X387024D01*
Y-290100D01*
X386335Y-288437D01*
X385063Y-287165D01*
X383400Y-286476D01*
D02*
G37*
G36*
X381738D02*
X381600D01*
X379937Y-287165D01*
X378665Y-288437D01*
X377976Y-290100D01*
Y-290238D01*
X381738D01*
Y-286476D01*
D02*
G37*
G36*
X302400Y-288476D02*
X302262D01*
Y-292238D01*
X306024D01*
Y-292100D01*
X305335Y-290437D01*
X304063Y-289165D01*
X302400Y-288476D01*
D02*
G37*
G36*
X300738D02*
X300600D01*
X298937Y-289165D01*
X297665Y-290437D01*
X296976Y-292100D01*
Y-292238D01*
X300738D01*
Y-288476D01*
D02*
G37*
G36*
X387024Y-291762D02*
X383262D01*
Y-295524D01*
X383400D01*
X385063Y-294835D01*
X386335Y-293563D01*
X387024Y-291900D01*
Y-291762D01*
D02*
G37*
G36*
X381738D02*
X377976D01*
Y-291900D01*
X378665Y-293563D01*
X379937Y-294835D01*
X381600Y-295524D01*
X381738D01*
Y-291762D01*
D02*
G37*
G36*
X306024Y-293762D02*
X302262D01*
Y-297524D01*
X302400D01*
X304063Y-296835D01*
X305335Y-295563D01*
X306024Y-293900D01*
Y-293762D01*
D02*
G37*
G36*
X300738D02*
X296976D01*
Y-293900D01*
X297665Y-295563D01*
X298937Y-296835D01*
X300600Y-297524D01*
X300738D01*
Y-293762D01*
D02*
G37*
G36*
X181900Y-308976D02*
X181762D01*
Y-312738D01*
X185524D01*
Y-312600D01*
X184835Y-310937D01*
X183563Y-309665D01*
X181900Y-308976D01*
D02*
G37*
G36*
X180238D02*
X180100D01*
X178437Y-309665D01*
X177165Y-310937D01*
X176476Y-312600D01*
Y-312738D01*
X180238D01*
Y-308976D01*
D02*
G37*
G36*
X213900Y-308976D02*
X213762D01*
Y-312738D01*
X217524D01*
Y-312600D01*
X216835Y-310937D01*
X215563Y-309665D01*
X213900Y-308976D01*
D02*
G37*
G36*
X212238D02*
X212100D01*
X210437Y-309665D01*
X209165Y-310937D01*
X208476Y-312600D01*
Y-312738D01*
X212238D01*
Y-308976D01*
D02*
G37*
G36*
X185524Y-314262D02*
X181762D01*
Y-318024D01*
X181900D01*
X183563Y-317335D01*
X184835Y-316063D01*
X185524Y-314400D01*
Y-314262D01*
D02*
G37*
G36*
X180238D02*
X176476D01*
Y-314400D01*
X177165Y-316063D01*
X178437Y-317335D01*
X180100Y-318024D01*
X180238D01*
Y-314262D01*
D02*
G37*
G36*
X217524Y-314262D02*
X213762D01*
Y-318024D01*
X213900D01*
X215563Y-317335D01*
X216835Y-316063D01*
X217524Y-314400D01*
Y-314262D01*
D02*
G37*
G36*
X212238D02*
X208476D01*
Y-314400D01*
X209165Y-316063D01*
X210437Y-317335D01*
X212100Y-318024D01*
X212238D01*
Y-314262D01*
D02*
G37*
G36*
X195905Y-308952D02*
X194095D01*
X192424Y-309644D01*
X191144Y-310924D01*
X190452Y-312595D01*
Y-314405D01*
X191144Y-316076D01*
X192424Y-317356D01*
X194095Y-318048D01*
X195905D01*
X197576Y-317356D01*
X198856Y-316076D01*
X199548Y-314405D01*
Y-312595D01*
X198856Y-310924D01*
X197576Y-309644D01*
X195905Y-308952D01*
D02*
G37*
G36*
X227905Y-308952D02*
X226095D01*
X224424Y-309644D01*
X223144Y-310924D01*
X222452Y-312595D01*
Y-314405D01*
X223144Y-316076D01*
X224424Y-317356D01*
X226095Y-318048D01*
X227905D01*
X229576Y-317356D01*
X230856Y-316076D01*
X231548Y-314405D01*
Y-312595D01*
X230856Y-310924D01*
X229576Y-309644D01*
X227905Y-308952D01*
D02*
G37*
G36*
X70905Y-311452D02*
X69095D01*
X67424Y-312144D01*
X66144Y-313424D01*
X65452Y-315095D01*
Y-316905D01*
X66144Y-318576D01*
X67424Y-319856D01*
X69095Y-320548D01*
X70905D01*
X72576Y-319856D01*
X73856Y-318576D01*
X74548Y-316905D01*
Y-315095D01*
X73856Y-313424D01*
X72576Y-312144D01*
X70905Y-311452D01*
D02*
G37*
G36*
X561846Y-295976D02*
X558154D01*
X554587Y-296932D01*
X551389Y-298778D01*
X548778Y-301389D01*
X546932Y-304587D01*
X545976Y-308154D01*
Y-311846D01*
X546932Y-315413D01*
X548778Y-318611D01*
X551389Y-321222D01*
X554587Y-323068D01*
X558154Y-324024D01*
X561846D01*
X565413Y-323068D01*
X568611Y-321222D01*
X571222Y-318611D01*
X573068Y-315413D01*
X574024Y-311846D01*
Y-308154D01*
X573068Y-304587D01*
X571222Y-301389D01*
X568611Y-298778D01*
X565413Y-296932D01*
X561846Y-295976D01*
D02*
G37*
G36*
X305100Y-323176D02*
X304962D01*
Y-326938D01*
X308724D01*
Y-326800D01*
X308035Y-325137D01*
X306763Y-323865D01*
X305100Y-323176D01*
D02*
G37*
G36*
X303438D02*
X303300D01*
X301637Y-323865D01*
X300365Y-325137D01*
X299676Y-326800D01*
Y-326938D01*
X303438D01*
Y-323176D01*
D02*
G37*
G36*
X41846Y-300976D02*
X38154D01*
X34587Y-301932D01*
X31389Y-303778D01*
X28778Y-306389D01*
X26932Y-309587D01*
X25976Y-313154D01*
Y-316846D01*
X26932Y-320413D01*
X28778Y-323611D01*
X31389Y-326222D01*
X34587Y-328068D01*
X38154Y-329024D01*
X41846D01*
X45413Y-328068D01*
X48611Y-326222D01*
X51222Y-323611D01*
X53068Y-320413D01*
X54024Y-316846D01*
Y-313154D01*
X53068Y-309587D01*
X51222Y-306389D01*
X48611Y-303778D01*
X45413Y-301932D01*
X41846Y-300976D01*
D02*
G37*
G36*
X308724Y-328462D02*
X304962D01*
Y-332224D01*
X305100D01*
X306763Y-331535D01*
X308035Y-330263D01*
X308724Y-328600D01*
Y-328462D01*
D02*
G37*
G36*
X303438D02*
X299676D01*
Y-328600D01*
X300365Y-330263D01*
X301637Y-331535D01*
X303300Y-332224D01*
X303438D01*
Y-328462D01*
D02*
G37*
G36*
X320355Y-323402D02*
X318545D01*
X316874Y-324094D01*
X315594Y-325374D01*
X314902Y-327045D01*
Y-328855D01*
X315594Y-330526D01*
X316874Y-331806D01*
X318545Y-332498D01*
X320355D01*
X322026Y-331806D01*
X323306Y-330526D01*
X323998Y-328855D01*
Y-327045D01*
X323306Y-325374D01*
X322026Y-324094D01*
X320355Y-323402D01*
D02*
G37*
G36*
X305100Y-337176D02*
X304962D01*
Y-340938D01*
X308724D01*
Y-340800D01*
X308035Y-339137D01*
X306763Y-337865D01*
X305100Y-337176D01*
D02*
G37*
G36*
X303438D02*
X303300D01*
X301637Y-337865D01*
X300365Y-339137D01*
X299676Y-340800D01*
Y-340938D01*
X303438D01*
Y-337176D01*
D02*
G37*
G36*
X308724Y-342462D02*
X304962D01*
Y-346224D01*
X305100D01*
X306763Y-345535D01*
X308035Y-344263D01*
X308724Y-342600D01*
Y-342462D01*
D02*
G37*
G36*
X303438D02*
X299676D01*
Y-342600D01*
X300365Y-344263D01*
X301637Y-345535D01*
X303300Y-346224D01*
X303438D01*
Y-342462D01*
D02*
G37*
G36*
X320105Y-337152D02*
X318295D01*
X316624Y-337844D01*
X315344Y-339124D01*
X314652Y-340795D01*
Y-342605D01*
X315344Y-344276D01*
X316624Y-345556D01*
X318295Y-346248D01*
X320105D01*
X321776Y-345556D01*
X323056Y-344276D01*
X323748Y-342605D01*
Y-340795D01*
X323056Y-339124D01*
X321776Y-337844D01*
X320105Y-337152D01*
D02*
G37*
G36*
X41846Y-350976D02*
X40762D01*
Y-364238D01*
X54024D01*
Y-363154D01*
X53068Y-359587D01*
X51222Y-356389D01*
X48611Y-353778D01*
X45413Y-351932D01*
X41846Y-350976D01*
D02*
G37*
G36*
X39238D02*
X38154D01*
X34587Y-351932D01*
X31389Y-353778D01*
X28778Y-356389D01*
X26932Y-359587D01*
X25976Y-363154D01*
Y-364238D01*
X39238D01*
Y-350976D01*
D02*
G37*
G36*
X538905Y-355452D02*
X537095D01*
X535424Y-356144D01*
X534144Y-357424D01*
X533452Y-359095D01*
Y-360905D01*
X534144Y-362576D01*
X535424Y-363856D01*
X537095Y-364548D01*
X538905D01*
X540576Y-363856D01*
X541856Y-362576D01*
X542548Y-360905D01*
Y-359095D01*
X541856Y-357424D01*
X540576Y-356144D01*
X538905Y-355452D01*
D02*
G37*
G36*
X561846Y-345976D02*
X558154D01*
X554587Y-346932D01*
X551389Y-348778D01*
X548778Y-351389D01*
X546932Y-354587D01*
X545976Y-358154D01*
Y-361846D01*
X546932Y-365413D01*
X548778Y-368611D01*
X551389Y-371222D01*
X554587Y-373068D01*
X558154Y-374024D01*
X561846D01*
X565413Y-373068D01*
X568611Y-371222D01*
X571222Y-368611D01*
X573068Y-365413D01*
X574024Y-361846D01*
Y-358154D01*
X573068Y-354587D01*
X571222Y-351389D01*
X568611Y-348778D01*
X565413Y-346932D01*
X561846Y-345976D01*
D02*
G37*
G36*
X54024Y-365762D02*
X40762D01*
Y-379024D01*
X41846D01*
X45413Y-378068D01*
X48611Y-376222D01*
X51222Y-373611D01*
X53068Y-370413D01*
X54024Y-366846D01*
Y-365762D01*
D02*
G37*
G36*
X39238D02*
X25976D01*
Y-366846D01*
X26932Y-370413D01*
X28778Y-373611D01*
X31389Y-376222D01*
X34587Y-378068D01*
X38154Y-379024D01*
X39238D01*
Y-365762D01*
D02*
G37*
G36*
X312805Y-383952D02*
X311195D01*
X309707Y-384568D01*
X308568Y-385707D01*
X307952Y-387195D01*
Y-388805D01*
X308568Y-390293D01*
X309707Y-391432D01*
X311195Y-392048D01*
X312805D01*
X314293Y-391432D01*
X315432Y-390293D01*
X316048Y-388805D01*
Y-387195D01*
X315432Y-385707D01*
X314293Y-384568D01*
X312805Y-383952D01*
D02*
G37*
G36*
X301805D02*
X300195D01*
X298707Y-384568D01*
X297568Y-385707D01*
X296952Y-387195D01*
Y-388805D01*
X297568Y-390293D01*
X298707Y-391432D01*
X300195Y-392048D01*
X301805D01*
X303293Y-391432D01*
X304432Y-390293D01*
X305048Y-388805D01*
Y-387195D01*
X304432Y-385707D01*
X303293Y-384568D01*
X301805Y-383952D01*
D02*
G37*
G36*
X290805D02*
X289195D01*
X287707Y-384568D01*
X286568Y-385707D01*
X285952Y-387195D01*
Y-388805D01*
X286568Y-390293D01*
X287707Y-391432D01*
X289195Y-392048D01*
X290805D01*
X292293Y-391432D01*
X293432Y-390293D01*
X294048Y-388805D01*
Y-387195D01*
X293432Y-385707D01*
X292293Y-384568D01*
X290805Y-383952D01*
D02*
G37*
G36*
X257203Y-329452D02*
X255393D01*
X253722Y-330144D01*
X252442Y-331424D01*
X251750Y-333095D01*
Y-334279D01*
X251536Y-335007D01*
X250602Y-335452D01*
X249595D01*
X247924Y-336144D01*
X246644Y-337424D01*
X245952Y-339095D01*
Y-340905D01*
X246644Y-342576D01*
X247672Y-343604D01*
Y-374354D01*
X247202Y-374823D01*
X246589Y-375741D01*
X246374Y-376823D01*
Y-412855D01*
X246589Y-413937D01*
X246611Y-413970D01*
X246352Y-414595D01*
Y-416405D01*
X247044Y-418076D01*
X248324Y-419356D01*
X249995Y-420048D01*
X251805D01*
X253476Y-419356D01*
X254756Y-418076D01*
X255448Y-416405D01*
Y-414595D01*
X256108Y-413464D01*
X257576Y-412856D01*
X258856Y-411576D01*
X259548Y-409905D01*
Y-408095D01*
X258953Y-406658D01*
X259126Y-405785D01*
Y-395769D01*
X260396Y-394921D01*
X261191Y-395250D01*
X263001D01*
X264672Y-394558D01*
X265952Y-393278D01*
X266644Y-391607D01*
Y-389797D01*
X265952Y-388126D01*
X264924Y-387099D01*
Y-343604D01*
X265952Y-342576D01*
X266644Y-340905D01*
Y-339095D01*
X265952Y-337424D01*
X264672Y-336144D01*
X263001Y-335452D01*
X261994D01*
X261060Y-335007D01*
X260846Y-334279D01*
Y-333095D01*
X260154Y-331424D01*
X258874Y-330144D01*
X257203Y-329452D01*
D02*
G37*
G36*
X240955Y-388052D02*
X239145D01*
X237474Y-388744D01*
X236194Y-390024D01*
X235502Y-391695D01*
Y-393505D01*
X236194Y-395176D01*
X237474Y-396456D01*
X239145Y-397148D01*
X240955D01*
X242626Y-396456D01*
X243906Y-395176D01*
X244598Y-393505D01*
Y-391695D01*
X243906Y-390024D01*
X242626Y-388744D01*
X240955Y-388052D01*
D02*
G37*
G36*
X312805Y-394952D02*
X311195D01*
X309707Y-395568D01*
X308568Y-396707D01*
X307952Y-398195D01*
Y-399805D01*
X308568Y-401293D01*
X309707Y-402432D01*
X311195Y-403048D01*
X312805D01*
X314293Y-402432D01*
X315432Y-401293D01*
X316048Y-399805D01*
Y-398195D01*
X315432Y-396707D01*
X314293Y-395568D01*
X312805Y-394952D01*
D02*
G37*
G36*
X301805D02*
X300195D01*
X298707Y-395568D01*
X297568Y-396707D01*
X296952Y-398195D01*
Y-399805D01*
X297568Y-401293D01*
X298707Y-402432D01*
X300195Y-403048D01*
X301805D01*
X303293Y-402432D01*
X304432Y-401293D01*
X305048Y-399805D01*
Y-398195D01*
X304432Y-396707D01*
X303293Y-395568D01*
X301805Y-394952D01*
D02*
G37*
G36*
X290805D02*
X289195D01*
X287707Y-395568D01*
X286568Y-396707D01*
X285952Y-398195D01*
Y-399805D01*
X286568Y-401293D01*
X287707Y-402432D01*
X289195Y-403048D01*
X290805D01*
X292293Y-402432D01*
X293432Y-401293D01*
X294048Y-399805D01*
Y-398195D01*
X293432Y-396707D01*
X292293Y-395568D01*
X290805Y-394952D01*
D02*
G37*
G36*
X240950Y-403076D02*
X240812D01*
Y-406838D01*
X244574D01*
Y-406700D01*
X243885Y-405037D01*
X242613Y-403765D01*
X240950Y-403076D01*
D02*
G37*
G36*
X239288D02*
X239150D01*
X237487Y-403765D01*
X236215Y-405037D01*
X235526Y-406700D01*
Y-406838D01*
X239288D01*
Y-403076D01*
D02*
G37*
G36*
X226950D02*
X226812D01*
Y-406838D01*
X230574D01*
Y-406700D01*
X229885Y-405037D01*
X228613Y-403765D01*
X226950Y-403076D01*
D02*
G37*
G36*
X225288D02*
X225150D01*
X223487Y-403765D01*
X222215Y-405037D01*
X221526Y-406700D01*
Y-406838D01*
X225288D01*
Y-403076D01*
D02*
G37*
G36*
X244574Y-408362D02*
X240812D01*
Y-412124D01*
X240950D01*
X242613Y-411435D01*
X243885Y-410163D01*
X244574Y-408500D01*
Y-408362D01*
D02*
G37*
G36*
X239288D02*
X235526D01*
Y-408500D01*
X236215Y-410163D01*
X237487Y-411435D01*
X239150Y-412124D01*
X239288D01*
Y-408362D01*
D02*
G37*
G36*
X230574D02*
X226812D01*
Y-412124D01*
X226950D01*
X228613Y-411435D01*
X229885Y-410163D01*
X230574Y-408500D01*
Y-408362D01*
D02*
G37*
G36*
X225288D02*
X221526D01*
Y-408500D01*
X222215Y-410163D01*
X223487Y-411435D01*
X225150Y-412124D01*
X225288D01*
Y-408362D01*
D02*
G37*
G36*
X312805Y-405952D02*
X311195D01*
X309707Y-406568D01*
X308568Y-407707D01*
X307952Y-409195D01*
Y-410805D01*
X308568Y-412293D01*
X309707Y-413432D01*
X311195Y-414048D01*
X312805D01*
X314293Y-413432D01*
X315432Y-412293D01*
X316048Y-410805D01*
Y-409195D01*
X315432Y-407707D01*
X314293Y-406568D01*
X312805Y-405952D01*
D02*
G37*
G36*
X301805D02*
X300195D01*
X298707Y-406568D01*
X297568Y-407707D01*
X296952Y-409195D01*
Y-410805D01*
X297568Y-412293D01*
X298707Y-413432D01*
X300195Y-414048D01*
X301805D01*
X303293Y-413432D01*
X304432Y-412293D01*
X305048Y-410805D01*
Y-409195D01*
X304432Y-407707D01*
X303293Y-406568D01*
X301805Y-405952D01*
D02*
G37*
G36*
X290805D02*
X289195D01*
X287707Y-406568D01*
X286568Y-407707D01*
X285952Y-409195D01*
Y-410805D01*
X286568Y-412293D01*
X287707Y-413432D01*
X289195Y-414048D01*
X290805D01*
X292293Y-413432D01*
X293432Y-412293D01*
X294048Y-410805D01*
Y-409195D01*
X293432Y-407707D01*
X292293Y-406568D01*
X290805Y-405952D01*
D02*
G37*
G36*
X364405Y-421452D02*
X362595D01*
X360924Y-422144D01*
X359644Y-423424D01*
X358952Y-425095D01*
Y-426905D01*
X359644Y-428576D01*
X360924Y-429856D01*
X362595Y-430548D01*
X364405D01*
X366076Y-429856D01*
X367356Y-428576D01*
X368048Y-426905D01*
Y-425095D01*
X367356Y-423424D01*
X366076Y-422144D01*
X364405Y-421452D01*
D02*
G37*
G36*
X243405Y-423452D02*
X241595D01*
X239924Y-424144D01*
X238644Y-425424D01*
X237952Y-427095D01*
Y-428905D01*
X238644Y-430576D01*
X239924Y-431856D01*
X241595Y-432548D01*
X243405D01*
X245076Y-431856D01*
X246356Y-430576D01*
X247048Y-428905D01*
Y-427095D01*
X246356Y-425424D01*
X245076Y-424144D01*
X243405Y-423452D01*
D02*
G37*
G36*
X364400Y-435476D02*
X364262D01*
Y-439238D01*
X368024D01*
Y-439100D01*
X367335Y-437437D01*
X366063Y-436165D01*
X364400Y-435476D01*
D02*
G37*
G36*
X362738D02*
X362600D01*
X360937Y-436165D01*
X359665Y-437437D01*
X358976Y-439100D01*
Y-439238D01*
X362738D01*
Y-435476D01*
D02*
G37*
G36*
X368024Y-440762D02*
X364262D01*
Y-444524D01*
X364400D01*
X366063Y-443835D01*
X367335Y-442563D01*
X368024Y-440900D01*
Y-440762D01*
D02*
G37*
G36*
X362738D02*
X358976D01*
Y-440900D01*
X359665Y-442563D01*
X360937Y-443835D01*
X362600Y-444524D01*
X362738D01*
Y-440762D01*
D02*
G37*
G36*
X552722Y-408476D02*
X550762D01*
Y-449238D01*
X591524D01*
Y-447278D01*
X590813Y-441882D01*
X589405Y-436624D01*
X587322Y-431595D01*
X584600Y-426881D01*
X581286Y-422563D01*
X577437Y-418714D01*
X573119Y-415400D01*
X568405Y-412678D01*
X563376Y-410595D01*
X558118Y-409187D01*
X552722Y-408476D01*
D02*
G37*
G36*
X549238D02*
X547278D01*
X541882Y-409187D01*
X536624Y-410595D01*
X531595Y-412678D01*
X526881Y-415400D01*
X522563Y-418714D01*
X518714Y-422563D01*
X515400Y-426881D01*
X512678Y-431595D01*
X510595Y-436624D01*
X509187Y-441882D01*
X508476Y-447278D01*
Y-449238D01*
X549238D01*
Y-408476D01*
D02*
G37*
G36*
X52722D02*
X50762D01*
Y-449238D01*
X91524D01*
Y-447278D01*
X90814Y-441882D01*
X89405Y-436624D01*
X87322Y-431595D01*
X84600Y-426881D01*
X81286Y-422563D01*
X77437Y-418714D01*
X73119Y-415400D01*
X68405Y-412678D01*
X63376Y-410595D01*
X58118Y-409187D01*
X52722Y-408476D01*
D02*
G37*
G36*
X49238D02*
X47278D01*
X41882Y-409187D01*
X36624Y-410595D01*
X31595Y-412678D01*
X26881Y-415400D01*
X22563Y-418714D01*
X18714Y-422563D01*
X15400Y-426881D01*
X12678Y-431595D01*
X10595Y-436624D01*
X9186Y-441882D01*
X8476Y-447278D01*
Y-449238D01*
X49238D01*
Y-408476D01*
D02*
G37*
G36*
X364400Y-449476D02*
X364262D01*
Y-453238D01*
X368024D01*
Y-453100D01*
X367335Y-451437D01*
X366063Y-450165D01*
X364400Y-449476D01*
D02*
G37*
G36*
X362738D02*
X362600D01*
X360937Y-450165D01*
X359665Y-451437D01*
X358976Y-453100D01*
Y-453238D01*
X362738D01*
Y-449476D01*
D02*
G37*
G36*
X253429Y-446452D02*
X251619D01*
X249948Y-447144D01*
X248668Y-448424D01*
X247976Y-450095D01*
Y-451905D01*
X248668Y-453576D01*
X249948Y-454856D01*
X251619Y-455548D01*
X253429D01*
X255100Y-454856D01*
X256380Y-453576D01*
X257072Y-451905D01*
Y-450095D01*
X256380Y-448424D01*
X255100Y-447144D01*
X253429Y-446452D01*
D02*
G37*
G36*
X368024Y-454762D02*
X364262D01*
Y-458524D01*
X364400D01*
X366063Y-457835D01*
X367335Y-456563D01*
X368024Y-454900D01*
Y-454762D01*
D02*
G37*
G36*
X362738D02*
X358976D01*
Y-454900D01*
X359665Y-456563D01*
X360937Y-457835D01*
X362600Y-458524D01*
X362738D01*
Y-454762D01*
D02*
G37*
G36*
X272805Y-469952D02*
X271195D01*
X269707Y-470568D01*
X269104Y-471172D01*
X227896D01*
X227293Y-470568D01*
X225805Y-469952D01*
X224195D01*
X222707Y-470568D01*
X221568Y-471707D01*
X220952Y-473195D01*
Y-474805D01*
X221395Y-475874D01*
X220318Y-476593D01*
X220293Y-476568D01*
X218805Y-475952D01*
X217195D01*
X215707Y-476568D01*
X214568Y-477707D01*
X213952Y-479195D01*
Y-480805D01*
X214568Y-482293D01*
X215707Y-483432D01*
X217195Y-484048D01*
X218805D01*
X220293Y-483432D01*
X220896Y-482828D01*
X263104D01*
X263707Y-483432D01*
X265195Y-484048D01*
X266805D01*
X268293Y-483432D01*
X269432Y-482293D01*
X270048Y-480805D01*
Y-479195D01*
X269924Y-478896D01*
X270896Y-477924D01*
X271195Y-478048D01*
X272805D01*
X274293Y-477432D01*
X275432Y-476293D01*
X276048Y-474805D01*
Y-473195D01*
X275432Y-471707D01*
X274293Y-470568D01*
X272805Y-469952D01*
D02*
G37*
G36*
X591524Y-450762D02*
X550762D01*
Y-491524D01*
X552722D01*
X558118Y-490813D01*
X563376Y-489405D01*
X568405Y-487322D01*
X573119Y-484600D01*
X577437Y-481286D01*
X581286Y-477437D01*
X584600Y-473119D01*
X587322Y-468405D01*
X589405Y-463376D01*
X590813Y-458118D01*
X591524Y-452722D01*
Y-450762D01*
D02*
G37*
G36*
X549238D02*
X508476D01*
Y-452722D01*
X509187Y-458118D01*
X510595Y-463376D01*
X512678Y-468405D01*
X515400Y-473119D01*
X518714Y-477437D01*
X522563Y-481286D01*
X526881Y-484600D01*
X531595Y-487322D01*
X536624Y-489405D01*
X541882Y-490813D01*
X547278Y-491524D01*
X549238D01*
Y-450762D01*
D02*
G37*
G36*
X91524D02*
X50762D01*
Y-491524D01*
X52722D01*
X58118Y-490813D01*
X63376Y-489405D01*
X68405Y-487322D01*
X73119Y-484600D01*
X77437Y-481286D01*
X81286Y-477437D01*
X84600Y-473119D01*
X87322Y-468405D01*
X89405Y-463376D01*
X90814Y-458118D01*
X91524Y-452722D01*
Y-450762D01*
D02*
G37*
G36*
X49238D02*
X8476D01*
Y-452722D01*
X9186Y-458118D01*
X10595Y-463376D01*
X12678Y-468405D01*
X15400Y-473119D01*
X18714Y-477437D01*
X22563Y-481286D01*
X26881Y-484600D01*
X31595Y-487322D01*
X36624Y-489405D01*
X41882Y-490813D01*
X47278Y-491524D01*
X49238D01*
Y-450762D01*
D02*
G37*
G36*
X428905Y-620452D02*
X427095D01*
X425424Y-621144D01*
X424144Y-622424D01*
X423452Y-624095D01*
Y-625905D01*
X424144Y-627576D01*
X425424Y-628856D01*
X427095Y-629548D01*
X428905D01*
X430576Y-628856D01*
X431856Y-627576D01*
X432548Y-625905D01*
Y-624095D01*
X431856Y-622424D01*
X430576Y-621144D01*
X428905Y-620452D01*
D02*
G37*
G36*
X347805Y-372952D02*
X346195D01*
X344707Y-373568D01*
X343568Y-374707D01*
X342952Y-376195D01*
Y-377805D01*
X343568Y-379293D01*
X344707Y-380432D01*
X346195Y-381048D01*
X347048D01*
X399172Y-433172D01*
Y-639104D01*
X398568Y-639707D01*
X397952Y-641195D01*
Y-642805D01*
X398568Y-644293D01*
X399707Y-645432D01*
X401195Y-646048D01*
X402805D01*
X404293Y-645432D01*
X405432Y-644293D01*
X406048Y-642805D01*
Y-641195D01*
X405432Y-639707D01*
X404828Y-639104D01*
Y-432000D01*
X404613Y-430918D01*
X404000Y-430000D01*
X404000Y-430000D01*
X351048Y-377048D01*
Y-376195D01*
X350432Y-374707D01*
X349293Y-373568D01*
X347805Y-372952D01*
D02*
G37*
G36*
X414400Y-649476D02*
X414262D01*
Y-653238D01*
X418024D01*
Y-653100D01*
X417335Y-651437D01*
X416063Y-650165D01*
X414400Y-649476D01*
D02*
G37*
G36*
X412738D02*
X412600D01*
X410937Y-650165D01*
X409665Y-651437D01*
X408976Y-653100D01*
Y-653238D01*
X412738D01*
Y-649476D01*
D02*
G37*
G36*
X418024Y-654762D02*
X414262D01*
Y-658524D01*
X414400D01*
X416063Y-657835D01*
X417335Y-656562D01*
X418024Y-654900D01*
Y-654762D01*
D02*
G37*
G36*
X412738D02*
X408976D01*
Y-654900D01*
X409665Y-656562D01*
X410937Y-657835D01*
X412600Y-658524D01*
X412738D01*
Y-654762D01*
D02*
G37*
G36*
X414400Y-663476D02*
X414262D01*
Y-667238D01*
X418024D01*
Y-667100D01*
X417335Y-665437D01*
X416063Y-664165D01*
X414400Y-663476D01*
D02*
G37*
G36*
X412738D02*
X412600D01*
X410937Y-664165D01*
X409665Y-665437D01*
X408976Y-667100D01*
Y-667238D01*
X412738D01*
Y-663476D01*
D02*
G37*
G36*
X418024Y-668762D02*
X414262D01*
Y-672524D01*
X414400D01*
X416063Y-671835D01*
X417335Y-670563D01*
X418024Y-668900D01*
Y-668762D01*
D02*
G37*
G36*
X412738D02*
X408976D01*
Y-668900D01*
X409665Y-670563D01*
X410937Y-671835D01*
X412600Y-672524D01*
X412738D01*
Y-668762D01*
D02*
G37*
G36*
X207900Y-677976D02*
X207762D01*
Y-681738D01*
X211524D01*
Y-681600D01*
X210835Y-679937D01*
X209562Y-678665D01*
X207900Y-677976D01*
D02*
G37*
G36*
X206238D02*
X206100D01*
X204437Y-678665D01*
X203165Y-679937D01*
X202476Y-681600D01*
Y-681738D01*
X206238D01*
Y-677976D01*
D02*
G37*
G36*
X193900D02*
X193762D01*
Y-681738D01*
X197524D01*
Y-681600D01*
X196835Y-679937D01*
X195562Y-678665D01*
X193900Y-677976D01*
D02*
G37*
G36*
X192238D02*
X192100D01*
X190437Y-678665D01*
X189165Y-679937D01*
X188476Y-681600D01*
Y-681738D01*
X192238D01*
Y-677976D01*
D02*
G37*
G36*
X211524Y-683262D02*
X207762D01*
Y-687024D01*
X207900D01*
X209562Y-686335D01*
X210835Y-685063D01*
X211524Y-683400D01*
Y-683262D01*
D02*
G37*
G36*
X206238D02*
X202476D01*
Y-683400D01*
X203165Y-685063D01*
X204437Y-686335D01*
X206100Y-687024D01*
X206238D01*
Y-683262D01*
D02*
G37*
G36*
X197524D02*
X193762D01*
Y-687024D01*
X193900D01*
X195562Y-686335D01*
X196835Y-685063D01*
X197524Y-683400D01*
Y-683262D01*
D02*
G37*
G36*
X192238D02*
X188476D01*
Y-683400D01*
X189165Y-685063D01*
X190437Y-686335D01*
X192100Y-687024D01*
X192238D01*
Y-683262D01*
D02*
G37*
G36*
X415900Y-685476D02*
X415762D01*
Y-689238D01*
X419524D01*
Y-689100D01*
X418835Y-687437D01*
X417563Y-686165D01*
X415900Y-685476D01*
D02*
G37*
G36*
X414238D02*
X414100D01*
X412438Y-686165D01*
X411165Y-687437D01*
X410476Y-689100D01*
Y-689238D01*
X414238D01*
Y-685476D01*
D02*
G37*
G36*
X419524Y-690762D02*
X415762D01*
Y-694524D01*
X415900D01*
X417563Y-693835D01*
X418835Y-692563D01*
X419524Y-690900D01*
Y-690762D01*
D02*
G37*
G36*
X414238D02*
X410476D01*
Y-690900D01*
X411165Y-692563D01*
X412438Y-693835D01*
X414100Y-694524D01*
X414238D01*
Y-690762D01*
D02*
G37*
G36*
X428605Y-685452D02*
X426796D01*
X425124Y-686144D01*
X423844Y-687424D01*
X423152Y-689095D01*
Y-690905D01*
X423844Y-692576D01*
X425124Y-693856D01*
X426796Y-694548D01*
X428605D01*
X430276Y-693856D01*
X431556Y-692576D01*
X432248Y-690905D01*
Y-689095D01*
X431556Y-687424D01*
X430276Y-686144D01*
X428605Y-685452D01*
D02*
G37*
G36*
X207904Y-692952D02*
X206095D01*
X204424Y-693644D01*
X203144Y-694924D01*
X202452Y-696595D01*
Y-698405D01*
X203144Y-700076D01*
X204424Y-701356D01*
X206095Y-702048D01*
X207904D01*
X209576Y-701356D01*
X210856Y-700076D01*
X211548Y-698405D01*
Y-696595D01*
X210856Y-694924D01*
X209576Y-693644D01*
X207904Y-692952D01*
D02*
G37*
G36*
X193904D02*
X192095D01*
X190424Y-693644D01*
X189144Y-694924D01*
X188452Y-696595D01*
Y-698405D01*
X189144Y-700076D01*
X190424Y-701356D01*
X192095Y-702048D01*
X193904D01*
X195576Y-701356D01*
X196856Y-700076D01*
X197548Y-698405D01*
Y-696595D01*
X196856Y-694924D01*
X195576Y-693644D01*
X193904Y-692952D01*
D02*
G37*
G36*
X198405Y-710452D02*
X196595D01*
X194924Y-711144D01*
X193644Y-712424D01*
X192952Y-714095D01*
Y-715905D01*
X193644Y-717576D01*
X194924Y-718856D01*
X196595Y-719548D01*
X198405D01*
X200076Y-718856D01*
X201355Y-717576D01*
X202048Y-715905D01*
Y-714095D01*
X201355Y-712424D01*
X200076Y-711144D01*
X198405Y-710452D01*
D02*
G37*
G36*
X188900Y-736476D02*
X188762D01*
Y-740238D01*
X192524D01*
Y-740100D01*
X191835Y-738437D01*
X190562Y-737165D01*
X188900Y-736476D01*
D02*
G37*
G36*
X187238D02*
X187100D01*
X185437Y-737165D01*
X184165Y-738437D01*
X183476Y-740100D01*
Y-740238D01*
X187238D01*
Y-736476D01*
D02*
G37*
G36*
X192524Y-741762D02*
X188762D01*
Y-745524D01*
X188900D01*
X190562Y-744835D01*
X191835Y-743563D01*
X192524Y-741900D01*
Y-741762D01*
D02*
G37*
G36*
X187238D02*
X183476D01*
Y-741900D01*
X184165Y-743563D01*
X185437Y-744835D01*
X187100Y-745524D01*
X187238D01*
Y-741762D01*
D02*
G37*
%LPD*%
D12*
X225000Y-474000D02*
X272000D01*
X218000Y-480000D02*
X266000D01*
X191010Y-180596D02*
X226524D01*
X189000Y-180000D02*
X189383Y-180383D01*
X190797D01*
X191010Y-180596D01*
X185383Y-174617D02*
X187797D01*
X185000Y-175000D02*
X185383Y-174617D01*
X187864Y-174551D02*
X224758D01*
X187797Y-174617D02*
X187864Y-174551D01*
X184000Y-168000D02*
X231000D01*
X370000Y-68000D02*
Y-39800D01*
X347000Y-377000D02*
X402000Y-432000D01*
Y-642000D02*
Y-432000D01*
X256298Y-405785D02*
Y-334000D01*
X262096Y-390702D02*
Y-340000D01*
X255000Y-409000D02*
X255670Y-408330D01*
X250500Y-375525D02*
Y-340000D01*
X255670Y-408330D02*
Y-406414D01*
X256298Y-405785D01*
X249202Y-376823D02*
X250500Y-375525D01*
X249202Y-412855D02*
Y-376823D01*
Y-412855D02*
X250900Y-414553D01*
Y-415500D02*
Y-414553D01*
X330498Y-26202D02*
X346798D01*
X347000Y-26000D01*
X334200Y-4000D02*
X370000Y-39800D01*
X306000Y-4000D02*
X334200D01*
X299100Y-57600D02*
X330498Y-26202D01*
X299100Y-64600D02*
Y-57600D01*
X298000Y72000D02*
X331000D01*
D65*
X40000Y-315000D02*
D03*
Y-365000D02*
D03*
Y-265000D02*
D03*
Y-215000D02*
D03*
X560000Y-140000D02*
D03*
Y-90000D02*
D03*
Y10000D02*
D03*
Y-40000D02*
D03*
Y-260000D02*
D03*
Y-210000D02*
D03*
Y-310000D02*
D03*
Y-360000D02*
D03*
X40000Y5000D02*
D03*
Y-45000D02*
D03*
Y-145000D02*
D03*
Y-95000D02*
D03*
D66*
X260600Y-217400D02*
D03*
X286000Y-192000D02*
D03*
Y-242800D02*
D03*
X342600Y-216400D02*
D03*
X368000Y-191000D02*
D03*
Y-241800D02*
D03*
D67*
X550000Y90000D02*
D03*
X50000D02*
D03*
Y-450000D02*
D03*
X550000D02*
D03*
D68*
X253650Y-107600D02*
D03*
D69*
X266350D02*
D03*
Y-120300D02*
D03*
X253650D02*
D03*
X266350Y-133000D02*
D03*
X253650D02*
D03*
X266350Y-145700D02*
D03*
X253650D02*
D03*
X266350Y-158400D02*
D03*
X253650D02*
D03*
D70*
X263202Y117500D02*
D03*
X333202D02*
D03*
D71*
X273202Y90500D02*
D03*
X323202D02*
D03*
D72*
X535202Y-143945D02*
D03*
X370000Y-68000D02*
D03*
X428000Y-625000D02*
D03*
X363500Y-426000D02*
D03*
X336000Y-93000D02*
D03*
X252524Y-451000D02*
D03*
X227000Y-313500D02*
D03*
X195000Y-313500D02*
D03*
X213000Y-313500D02*
D03*
X256298Y-334000D02*
D03*
X250500Y-340000D02*
D03*
X262096D02*
D03*
X382476Y-263000D02*
D03*
X262096Y-390702D02*
D03*
X255000Y-409000D02*
D03*
X347000Y-26000D02*
D03*
X335000Y-32000D02*
D03*
X299100Y-64600D02*
D03*
X197500Y-715000D02*
D03*
X427700Y-690000D02*
D03*
X207000Y-697500D02*
D03*
X193000D02*
D03*
X319450Y-327950D02*
D03*
X319200Y-341700D02*
D03*
X250900Y-415500D02*
D03*
X203000Y82500D02*
D03*
X311500Y54000D02*
D03*
X240050Y-392600D02*
D03*
X242500Y-428000D02*
D03*
X363500Y-440000D02*
D03*
Y-454000D02*
D03*
X240050Y-407600D02*
D03*
X226050D02*
D03*
X299000Y-88500D02*
D03*
X383000Y-16500D02*
D03*
X355000Y-1500D02*
D03*
X341000Y-1500D02*
D03*
X296500Y54000D02*
D03*
X415000Y-690000D02*
D03*
X188000Y-741000D02*
D03*
X193000Y-682500D02*
D03*
X207000D02*
D03*
X413500Y-668000D02*
D03*
Y-654000D02*
D03*
X301500Y-265000D02*
D03*
Y-279000D02*
D03*
Y-293000D02*
D03*
X382500Y-291000D02*
D03*
Y-277000D02*
D03*
X479000Y113250D02*
D03*
X442000Y114250D02*
D03*
X408000D02*
D03*
X374000D02*
D03*
X181000Y-313500D02*
D03*
X125500Y69000D02*
D03*
X120500Y117250D02*
D03*
X161500D02*
D03*
X191500D02*
D03*
X232500D02*
D03*
X278000Y77000D02*
D03*
X285000D02*
D03*
X304200Y-341700D02*
D03*
Y-327700D02*
D03*
X289500Y-22000D02*
D03*
Y10000D02*
D03*
X383000Y-1500D02*
D03*
X318000Y78000D02*
D03*
X311000D02*
D03*
X331000Y72000D02*
D03*
X298000D02*
D03*
X493000Y113500D02*
D03*
X154000Y83500D02*
D03*
X231500Y68000D02*
D03*
X70000Y-316000D02*
D03*
X329000Y-215000D02*
D03*
X538000Y-360000D02*
D03*
X306000Y-4000D02*
D03*
X330500Y-68500D02*
D03*
Y-57500D02*
D03*
X341500Y-68500D02*
D03*
Y-57500D02*
D03*
D73*
X225000Y-474000D02*
D03*
X218000Y-480000D02*
D03*
X272000Y-474000D02*
D03*
X266000Y-480000D02*
D03*
X189000Y-180000D02*
D03*
X185000Y-175000D02*
D03*
X184000Y-168000D02*
D03*
X231000D02*
D03*
X226524Y-180596D02*
D03*
X224758Y-174551D02*
D03*
X347000Y-377000D02*
D03*
X402000Y-642000D02*
D03*
D74*
X312000Y-388000D02*
D03*
Y-399000D02*
D03*
Y-410000D02*
D03*
X301000Y-388000D02*
D03*
Y-399000D02*
D03*
Y-410000D02*
D03*
X290000Y-388000D02*
D03*
Y-399000D02*
D03*
Y-410000D02*
D03*
M02*
