G04*
G04 #@! TF.GenerationSoftware,Altium Limited,Altium Designer,23.4.1 (23)*
G04*
G04 Layer_Physical_Order=1*
G04 Layer_Color=3326705*
%FSLAX44Y44*%
%MOMM*%
G71*
G04*
G04 #@! TF.SameCoordinates,810E8BC2-B951-4309-8685-973D218C77A5*
G04*
G04*
G04 #@! TF.FilePolarity,Positive*
G04*
G01*
G75*
%ADD12C,0.2500*%
%ADD16C,1.5000*%
G04:AMPARAMS|DCode=17|XSize=0.8mm|YSize=0.8mm|CornerRadius=0.1mm|HoleSize=0mm|Usage=FLASHONLY|Rotation=270.000|XOffset=0mm|YOffset=0mm|HoleType=Round|Shape=RoundedRectangle|*
%AMROUNDEDRECTD17*
21,1,0.8000,0.6000,0,0,270.0*
21,1,0.6000,0.8000,0,0,270.0*
1,1,0.2000,-0.3000,-0.3000*
1,1,0.2000,-0.3000,0.3000*
1,1,0.2000,0.3000,0.3000*
1,1,0.2000,0.3000,-0.3000*
%
%ADD17ROUNDEDRECTD17*%
G04:AMPARAMS|DCode=18|XSize=0.6mm|YSize=0.9mm|CornerRadius=0.075mm|HoleSize=0mm|Usage=FLASHONLY|Rotation=90.000|XOffset=0mm|YOffset=0mm|HoleType=Round|Shape=RoundedRectangle|*
%AMROUNDEDRECTD18*
21,1,0.6000,0.7500,0,0,90.0*
21,1,0.4500,0.9000,0,0,90.0*
1,1,0.1500,0.3750,0.2250*
1,1,0.1500,0.3750,-0.2250*
1,1,0.1500,-0.3750,-0.2250*
1,1,0.1500,-0.3750,0.2250*
%
%ADD18ROUNDEDRECTD18*%
G04:AMPARAMS|DCode=19|XSize=0.6mm|YSize=0.9mm|CornerRadius=0.075mm|HoleSize=0mm|Usage=FLASHONLY|Rotation=180.000|XOffset=0mm|YOffset=0mm|HoleType=Round|Shape=RoundedRectangle|*
%AMROUNDEDRECTD19*
21,1,0.6000,0.7500,0,0,180.0*
21,1,0.4500,0.9000,0,0,180.0*
1,1,0.1500,-0.2250,0.3750*
1,1,0.1500,0.2250,0.3750*
1,1,0.1500,0.2250,-0.3750*
1,1,0.1500,-0.2250,-0.3750*
%
%ADD19ROUNDEDRECTD19*%
G04:AMPARAMS|DCode=20|XSize=0.8mm|YSize=0.8mm|CornerRadius=0.1mm|HoleSize=0mm|Usage=FLASHONLY|Rotation=180.000|XOffset=0mm|YOffset=0mm|HoleType=Round|Shape=RoundedRectangle|*
%AMROUNDEDRECTD20*
21,1,0.8000,0.6000,0,0,180.0*
21,1,0.6000,0.8000,0,0,180.0*
1,1,0.2000,-0.3000,0.3000*
1,1,0.2000,0.3000,0.3000*
1,1,0.2000,0.3000,-0.3000*
1,1,0.2000,-0.3000,-0.3000*
%
%ADD20ROUNDEDRECTD20*%
%ADD21O,0.2500X0.9000*%
%ADD22O,0.9000X0.2500*%
G04:AMPARAMS|DCode=23|XSize=1.98mm|YSize=1.98mm|CornerRadius=0.198mm|HoleSize=0mm|Usage=FLASHONLY|Rotation=90.000|XOffset=0mm|YOffset=0mm|HoleType=Round|Shape=RoundedRectangle|*
%AMROUNDEDRECTD23*
21,1,1.9800,1.5840,0,0,90.0*
21,1,1.5840,1.9800,0,0,90.0*
1,1,0.3960,0.7920,0.7920*
1,1,0.3960,0.7920,-0.7920*
1,1,0.3960,-0.7920,-0.7920*
1,1,0.3960,-0.7920,0.7920*
%
%ADD23ROUNDEDRECTD23*%
G04:AMPARAMS|DCode=24|XSize=0.6mm|YSize=0.8mm|CornerRadius=0.075mm|HoleSize=0mm|Usage=FLASHONLY|Rotation=0.000|XOffset=0mm|YOffset=0mm|HoleType=Round|Shape=RoundedRectangle|*
%AMROUNDEDRECTD24*
21,1,0.6000,0.6500,0,0,0.0*
21,1,0.4500,0.8000,0,0,0.0*
1,1,0.1500,0.2250,-0.3250*
1,1,0.1500,-0.2250,-0.3250*
1,1,0.1500,-0.2250,0.3250*
1,1,0.1500,0.2250,0.3250*
%
%ADD24ROUNDEDRECTD24*%
G04:AMPARAMS|DCode=25|XSize=0.8mm|YSize=2.3mm|CornerRadius=0.2mm|HoleSize=0mm|Usage=FLASHONLY|Rotation=180.000|XOffset=0mm|YOffset=0mm|HoleType=Round|Shape=RoundedRectangle|*
%AMROUNDEDRECTD25*
21,1,0.8000,1.9000,0,0,180.0*
21,1,0.4000,2.3000,0,0,180.0*
1,1,0.4000,-0.2000,0.9500*
1,1,0.4000,0.2000,0.9500*
1,1,0.4000,0.2000,-0.9500*
1,1,0.4000,-0.2000,-0.9500*
%
%ADD25ROUNDEDRECTD25*%
G04:AMPARAMS|DCode=26|XSize=0.6mm|YSize=1mm|CornerRadius=0.15mm|HoleSize=0mm|Usage=FLASHONLY|Rotation=180.000|XOffset=0mm|YOffset=0mm|HoleType=Round|Shape=RoundedRectangle|*
%AMROUNDEDRECTD26*
21,1,0.6000,0.7000,0,0,180.0*
21,1,0.3000,1.0000,0,0,180.0*
1,1,0.3000,-0.1500,0.3500*
1,1,0.3000,0.1500,0.3500*
1,1,0.3000,0.1500,-0.3500*
1,1,0.3000,-0.1500,-0.3500*
%
%ADD26ROUNDEDRECTD26*%
%ADD27R,3.1000X3.1000*%
%ADD28O,1.0000X0.2500*%
%ADD29O,0.2500X1.0000*%
G04:AMPARAMS|DCode=30|XSize=0.9mm|YSize=1mm|CornerRadius=0.1125mm|HoleSize=0mm|Usage=FLASHONLY|Rotation=0.000|XOffset=0mm|YOffset=0mm|HoleType=Round|Shape=RoundedRectangle|*
%AMROUNDEDRECTD30*
21,1,0.9000,0.7750,0,0,0.0*
21,1,0.6750,1.0000,0,0,0.0*
1,1,0.2250,0.3375,-0.3875*
1,1,0.2250,-0.3375,-0.3875*
1,1,0.2250,-0.3375,0.3875*
1,1,0.2250,0.3375,0.3875*
%
%ADD30ROUNDEDRECTD30*%
G04:AMPARAMS|DCode=31|XSize=1.37mm|YSize=1.55mm|CornerRadius=0.1713mm|HoleSize=0mm|Usage=FLASHONLY|Rotation=0.000|XOffset=0mm|YOffset=0mm|HoleType=Round|Shape=RoundedRectangle|*
%AMROUNDEDRECTD31*
21,1,1.3700,1.2075,0,0,0.0*
21,1,1.0275,1.5500,0,0,0.0*
1,1,0.3425,0.5138,-0.6038*
1,1,0.3425,-0.5138,-0.6038*
1,1,0.3425,-0.5138,0.6038*
1,1,0.3425,0.5138,0.6038*
%
%ADD31ROUNDEDRECTD31*%
G04:AMPARAMS|DCode=32|XSize=0.4mm|YSize=1.35mm|CornerRadius=0.05mm|HoleSize=0mm|Usage=FLASHONLY|Rotation=180.000|XOffset=0mm|YOffset=0mm|HoleType=Round|Shape=RoundedRectangle|*
%AMROUNDEDRECTD32*
21,1,0.4000,1.2500,0,0,180.0*
21,1,0.3000,1.3500,0,0,180.0*
1,1,0.1000,-0.1500,0.6250*
1,1,0.1000,0.1500,0.6250*
1,1,0.1000,0.1500,-0.6250*
1,1,0.1000,-0.1500,-0.6250*
%
%ADD32ROUNDEDRECTD32*%
G04:AMPARAMS|DCode=33|XSize=1.5mm|YSize=1.55mm|CornerRadius=0.1875mm|HoleSize=0mm|Usage=FLASHONLY|Rotation=180.000|XOffset=0mm|YOffset=0mm|HoleType=Round|Shape=RoundedRectangle|*
%AMROUNDEDRECTD33*
21,1,1.5000,1.1750,0,0,180.0*
21,1,1.1250,1.5500,0,0,180.0*
1,1,0.3750,-0.5625,0.5875*
1,1,0.3750,0.5625,0.5875*
1,1,0.3750,0.5625,-0.5875*
1,1,0.3750,-0.5625,-0.5875*
%
%ADD33ROUNDEDRECTD33*%
G04:AMPARAMS|DCode=34|XSize=0.6mm|YSize=0.8mm|CornerRadius=0.075mm|HoleSize=0mm|Usage=FLASHONLY|Rotation=90.000|XOffset=0mm|YOffset=0mm|HoleType=Round|Shape=RoundedRectangle|*
%AMROUNDEDRECTD34*
21,1,0.6000,0.6500,0,0,90.0*
21,1,0.4500,0.8000,0,0,90.0*
1,1,0.1500,0.3250,0.2250*
1,1,0.1500,0.3250,-0.2250*
1,1,0.1500,-0.3250,-0.2250*
1,1,0.1500,-0.3250,0.2250*
%
%ADD34ROUNDEDRECTD34*%
%ADD63C,0.3810*%
%ADD64C,0.3500*%
%ADD65C,2.5000*%
%ADD66C,1.5240*%
%ADD67C,8.0000*%
G04:AMPARAMS|DCode=68|XSize=1mm|YSize=1mm|CornerRadius=0.125mm|HoleSize=0mm|Usage=FLASHONLY|Rotation=0.000|XOffset=0mm|YOffset=0mm|HoleType=Round|Shape=RoundedRectangle|*
%AMROUNDEDRECTD68*
21,1,1.0000,0.7500,0,0,0.0*
21,1,0.7500,1.0000,0,0,0.0*
1,1,0.2500,0.3750,-0.3750*
1,1,0.2500,-0.3750,-0.3750*
1,1,0.2500,-0.3750,0.3750*
1,1,0.2500,0.3750,0.3750*
%
%ADD68ROUNDEDRECTD68*%
%ADD69C,1.0000*%
G04:AMPARAMS|DCode=70|XSize=1.55mm|YSize=1.05mm|CornerRadius=0.525mm|HoleSize=0mm|Usage=FLASHONLY|Rotation=270.000|XOffset=0mm|YOffset=0mm|HoleType=Round|Shape=RoundedRectangle|*
%AMROUNDEDRECTD70*
21,1,1.5500,0.0000,0,0,270.0*
21,1,0.5000,1.0500,0,0,270.0*
1,1,1.0500,0.0000,-0.2500*
1,1,1.0500,0.0000,0.2500*
1,1,1.0500,0.0000,0.2500*
1,1,1.0500,0.0000,-0.2500*
%
%ADD70ROUNDEDRECTD70*%
G04:AMPARAMS|DCode=71|XSize=1.25mm|YSize=1.05mm|CornerRadius=0.525mm|HoleSize=0mm|Usage=FLASHONLY|Rotation=0.000|XOffset=0mm|YOffset=0mm|HoleType=Round|Shape=RoundedRectangle|*
%AMROUNDEDRECTD71*
21,1,1.2500,0.0000,0,0,0.0*
21,1,0.2000,1.0500,0,0,0.0*
1,1,1.0500,0.1000,0.0000*
1,1,1.0500,-0.1000,0.0000*
1,1,1.0500,-0.1000,0.0000*
1,1,1.0500,0.1000,0.0000*
%
%ADD71ROUNDEDRECTD71*%
%ADD72C,0.6000*%
%ADD73C,0.4500*%
%ADD74C,0.5000*%
G36*
X559381Y137164D02*
X565457Y135536D01*
X571269Y133129D01*
X576716Y129984D01*
X581707Y126155D01*
X586155Y121707D01*
X589984Y116716D01*
X593129Y111269D01*
X595536Y105457D01*
X597164Y99382D01*
X597985Y93145D01*
Y90000D01*
Y-450000D01*
Y-453145D01*
X597164Y-459381D01*
X595536Y-465457D01*
X593129Y-471269D01*
X589984Y-476716D01*
X586155Y-481707D01*
X581707Y-486155D01*
X576716Y-489984D01*
X571269Y-493129D01*
X565457Y-495536D01*
X559381Y-497164D01*
X553145Y-497985D01*
X550000D01*
X500000Y-497985D01*
X499967Y-497992D01*
X499934Y-497986D01*
X496664Y-498093D01*
X496567Y-498116D01*
X496467Y-498110D01*
X489982Y-498963D01*
X489857Y-499006D01*
X489724Y-499015D01*
X483407Y-500708D01*
X483287Y-500766D01*
X483157Y-500792D01*
X477115Y-503295D01*
X477004Y-503369D01*
X476878Y-503412D01*
X471214Y-506682D01*
X471114Y-506769D01*
X470995Y-506828D01*
X465806Y-510810D01*
X465719Y-510910D01*
X465608Y-510983D01*
X460983Y-515608D01*
X460910Y-515719D01*
X460810Y-515806D01*
X456828Y-520995D01*
X456769Y-521114D01*
X456682Y-521214D01*
X453412Y-526878D01*
X453369Y-527004D01*
X453295Y-527115D01*
X450792Y-533157D01*
X450766Y-533287D01*
X450708Y-533407D01*
X449015Y-539724D01*
X449006Y-539857D01*
X448963Y-539982D01*
X448110Y-546467D01*
X448116Y-546567D01*
X448093Y-546664D01*
X447986Y-549934D01*
X447992Y-549967D01*
X447985Y-550000D01*
Y-725000D01*
Y-727264D01*
X447102Y-731705D01*
X445369Y-735888D01*
X442854Y-739652D01*
X439652Y-742854D01*
X435888Y-745369D01*
X431704Y-747102D01*
X427264Y-747985D01*
X397736D01*
X393295Y-747102D01*
X389112Y-745369D01*
X385348Y-742854D01*
X382146Y-739652D01*
X379631Y-735888D01*
X377898Y-731704D01*
X377015Y-727264D01*
Y-725000D01*
X377015Y-550000D01*
X377008Y-549967D01*
X377014Y-549934D01*
X376907Y-546664D01*
X376884Y-546567D01*
X376890Y-546467D01*
X376037Y-539983D01*
X375994Y-539857D01*
X375985Y-539724D01*
X374292Y-533407D01*
X374234Y-533288D01*
X374208Y-533157D01*
X371705Y-527115D01*
X371631Y-527004D01*
X371588Y-526878D01*
X368318Y-521214D01*
X368231Y-521114D01*
X368172Y-520995D01*
X364190Y-515806D01*
X364090Y-515719D01*
X364017Y-515608D01*
X359392Y-510984D01*
X359281Y-510910D01*
X359194Y-510810D01*
X354005Y-506828D01*
X353886Y-506769D01*
X353786Y-506682D01*
X348122Y-503412D01*
X347996Y-503369D01*
X347885Y-503295D01*
X341843Y-500792D01*
X341713Y-500766D01*
X341593Y-500708D01*
X335276Y-499015D01*
X335143Y-499006D01*
X335018Y-498963D01*
X328533Y-498110D01*
X328433Y-498116D01*
X328336Y-498093D01*
X325066Y-497986D01*
X325033Y-497992D01*
X325000Y-497985D01*
X275000Y-497985D01*
X274967Y-497992D01*
X274934Y-497986D01*
X271664Y-498093D01*
X271567Y-498116D01*
X271467Y-498110D01*
X264982Y-498963D01*
X264857Y-499006D01*
X264724Y-499015D01*
X258407Y-500708D01*
X258287Y-500766D01*
X258157Y-500792D01*
X252115Y-503295D01*
X252004Y-503369D01*
X251878Y-503412D01*
X246214Y-506682D01*
X246114Y-506769D01*
X245995Y-506828D01*
X240806Y-510810D01*
X240719Y-510910D01*
X240608Y-510983D01*
X235983Y-515608D01*
X235910Y-515719D01*
X235810Y-515806D01*
X231828Y-520995D01*
X231769Y-521114D01*
X231682Y-521214D01*
X228412Y-526878D01*
X228369Y-527004D01*
X228295Y-527115D01*
X225792Y-533157D01*
X225766Y-533287D01*
X225707Y-533407D01*
X224015Y-539724D01*
X224006Y-539857D01*
X223963Y-539982D01*
X223110Y-546467D01*
X223116Y-546567D01*
X223093Y-546664D01*
X222986Y-549934D01*
X222992Y-549967D01*
X222985Y-550000D01*
Y-725000D01*
Y-727264D01*
X222102Y-731705D01*
X220369Y-735888D01*
X217854Y-739652D01*
X214652Y-742854D01*
X210888Y-745369D01*
X206705Y-747102D01*
X202264Y-747985D01*
X201513D01*
X201127Y-746715D01*
X201180Y-746680D01*
X201848Y-745680D01*
X202083Y-744500D01*
Y-737500D01*
X201848Y-736320D01*
X201180Y-735320D01*
X200328Y-734751D01*
Y-731500D01*
X200328Y-731500D01*
X200113Y-730417D01*
X199500Y-729500D01*
X195000Y-725000D01*
X194082Y-724387D01*
X193000Y-724172D01*
X177419D01*
X176456Y-723173D01*
X176479Y-722729D01*
X177000Y-721583D01*
X180000D01*
X181180Y-721348D01*
X182180Y-720680D01*
X182848Y-719680D01*
X183083Y-718500D01*
Y-711500D01*
X182848Y-710320D01*
X182180Y-709320D01*
X181328Y-708751D01*
Y-557172D01*
X261656Y-476844D01*
X262568Y-477707D01*
X261952Y-479195D01*
Y-480805D01*
X262568Y-482293D01*
X263707Y-483432D01*
X265195Y-484048D01*
X266805D01*
X268293Y-483432D01*
X268896Y-482828D01*
X291000D01*
X292082Y-482613D01*
X293000Y-482000D01*
X315500Y-459500D01*
X316113Y-458582D01*
X316328Y-457500D01*
Y-430413D01*
X317101Y-429846D01*
X317598Y-429649D01*
X318500Y-429828D01*
X319582Y-429613D01*
X320500Y-429000D01*
X321113Y-428082D01*
X321328Y-427000D01*
Y-420559D01*
X321479Y-419479D01*
X322559Y-419328D01*
X329000D01*
X330082Y-419113D01*
X331000Y-418500D01*
X331613Y-417582D01*
X331828Y-416500D01*
X331785Y-416283D01*
X332672Y-415018D01*
X333465Y-414965D01*
X342927Y-424426D01*
Y-429000D01*
X343122Y-429985D01*
X343680Y-430820D01*
X344515Y-431378D01*
X345500Y-431573D01*
X345672D01*
Y-434427D01*
X345500D01*
X344515Y-434622D01*
X343680Y-435180D01*
X343122Y-436015D01*
X342927Y-437000D01*
Y-443000D01*
X343122Y-443985D01*
X343680Y-444820D01*
X344515Y-445378D01*
X345500Y-445574D01*
X345672D01*
Y-448427D01*
X345500D01*
X344515Y-448622D01*
X343680Y-449180D01*
X343122Y-450015D01*
X342927Y-451000D01*
Y-457000D01*
X343122Y-457985D01*
X343680Y-458820D01*
X344515Y-459378D01*
X345500Y-459574D01*
X351500D01*
X352485Y-459378D01*
X353320Y-458820D01*
X353878Y-457985D01*
X354073Y-457000D01*
Y-451000D01*
X353878Y-450015D01*
X353320Y-449180D01*
X352485Y-448622D01*
X351500Y-448427D01*
X351328D01*
Y-445574D01*
X351500D01*
X352485Y-445378D01*
X353320Y-444820D01*
X353878Y-443985D01*
X354073Y-443000D01*
Y-437000D01*
X353878Y-436015D01*
X353320Y-435180D01*
X352485Y-434622D01*
X351500Y-434427D01*
X351328D01*
Y-431573D01*
X351500D01*
X352485Y-431378D01*
X353320Y-430820D01*
X353878Y-429985D01*
X354073Y-429000D01*
Y-423000D01*
X353878Y-422015D01*
X353320Y-421180D01*
X352485Y-420622D01*
X351500Y-420427D01*
X346926D01*
X337098Y-410598D01*
X337624Y-409328D01*
X463500D01*
X464582Y-409113D01*
X465500Y-408500D01*
X552270Y-321730D01*
X554587Y-323068D01*
X558154Y-324024D01*
X561846D01*
X565413Y-323068D01*
X568611Y-321222D01*
X571222Y-318611D01*
X573068Y-315413D01*
X574024Y-311846D01*
Y-308154D01*
X573068Y-304587D01*
X571222Y-301389D01*
X568611Y-298778D01*
X565413Y-296932D01*
X561846Y-295976D01*
X558154D01*
X554587Y-296932D01*
X551389Y-298778D01*
X548778Y-301389D01*
X546932Y-304587D01*
X545976Y-308154D01*
Y-311846D01*
X546932Y-315413D01*
X548270Y-317731D01*
X462328Y-403672D01*
X422124D01*
X421598Y-402402D01*
X552270Y-271730D01*
X554587Y-273068D01*
X558154Y-274024D01*
X561846D01*
X565413Y-273068D01*
X568611Y-271222D01*
X571222Y-268611D01*
X573068Y-265413D01*
X574024Y-261846D01*
Y-258154D01*
X573068Y-254587D01*
X571222Y-251389D01*
X568611Y-248778D01*
X565413Y-246932D01*
X561846Y-245976D01*
X558154D01*
X554587Y-246932D01*
X551389Y-248778D01*
X548778Y-251389D01*
X546932Y-254587D01*
X545976Y-258154D01*
Y-261846D01*
X546932Y-265413D01*
X548270Y-267730D01*
X417328Y-398672D01*
X414124D01*
X413598Y-397402D01*
X543000Y-268000D01*
X543000Y-268000D01*
X543613Y-267082D01*
X543828Y-266000D01*
Y-110171D01*
X552270Y-101730D01*
X554587Y-103068D01*
X558154Y-104024D01*
X561846D01*
X565413Y-103068D01*
X568611Y-101222D01*
X571222Y-98611D01*
X573068Y-95413D01*
X574024Y-91846D01*
Y-88154D01*
X573068Y-84587D01*
X571222Y-81389D01*
X568611Y-78778D01*
X565413Y-76932D01*
X561846Y-75976D01*
X558154D01*
X554587Y-76932D01*
X551389Y-78778D01*
X548778Y-81389D01*
X546932Y-84587D01*
X545976Y-88154D01*
Y-91846D01*
X546932Y-95413D01*
X548270Y-97731D01*
X539000Y-107000D01*
X538387Y-107918D01*
X538172Y-109000D01*
Y-138878D01*
X536902Y-139726D01*
X536107Y-139397D01*
X534297D01*
X533502Y-139726D01*
X532232Y-138878D01*
Y-71768D01*
X552270Y-51730D01*
X554587Y-53068D01*
X558154Y-54024D01*
X561846D01*
X565413Y-53068D01*
X568611Y-51222D01*
X571222Y-48611D01*
X573068Y-45413D01*
X574024Y-41846D01*
Y-38154D01*
X573068Y-34587D01*
X571222Y-31389D01*
X568611Y-28778D01*
X565413Y-26932D01*
X561846Y-25976D01*
X558154D01*
X554587Y-26932D01*
X551389Y-28778D01*
X548778Y-31389D01*
X546932Y-34587D01*
X545976Y-38154D01*
Y-41846D01*
X546932Y-45413D01*
X548270Y-47730D01*
X527404Y-68596D01*
X526791Y-69514D01*
X526576Y-70596D01*
Y-267425D01*
X405328Y-388672D01*
X341124D01*
X340598Y-387402D01*
X346952Y-381048D01*
X347805D01*
X349293Y-380432D01*
X350432Y-379293D01*
X351048Y-377805D01*
Y-376195D01*
X350432Y-374707D01*
X349293Y-373568D01*
X347805Y-372952D01*
X346844D01*
X346318Y-371682D01*
X369500Y-348500D01*
X369500Y-348500D01*
X370113Y-347582D01*
X370328Y-346500D01*
Y-318451D01*
X370483Y-318409D01*
X372541Y-317221D01*
X374221Y-315541D01*
X375409Y-313483D01*
X376024Y-311188D01*
Y-308812D01*
X375409Y-306517D01*
X374221Y-304459D01*
X372541Y-302779D01*
X370483Y-301591D01*
X370328Y-301549D01*
Y-296573D01*
X370500D01*
X371485Y-296378D01*
X372320Y-295820D01*
X372878Y-294985D01*
X373073Y-294000D01*
Y-288000D01*
X372878Y-287015D01*
X372320Y-286180D01*
X371485Y-285622D01*
X370996Y-285525D01*
Y-282475D01*
X371485Y-282377D01*
X372320Y-281820D01*
X372878Y-280985D01*
X373073Y-280000D01*
Y-274000D01*
X372878Y-273015D01*
X372320Y-272180D01*
X371485Y-271622D01*
X370500Y-271427D01*
X364500D01*
X363515Y-271622D01*
X362680Y-272180D01*
X362122Y-273015D01*
X361926Y-274000D01*
Y-274004D01*
X359475D01*
X359378Y-273515D01*
X358820Y-272680D01*
X357985Y-272122D01*
X357000Y-271927D01*
X351000D01*
X350015Y-272122D01*
X349180Y-272680D01*
X348622Y-273515D01*
X348427Y-274500D01*
Y-280500D01*
X348622Y-281485D01*
X349180Y-282320D01*
X350015Y-282878D01*
X351000Y-283073D01*
X357000D01*
X357985Y-282878D01*
X358820Y-282320D01*
X359378Y-281485D01*
X359475Y-280996D01*
X362130D01*
X362680Y-281820D01*
X363515Y-282377D01*
X364004Y-282475D01*
Y-285525D01*
X363515Y-285622D01*
X362680Y-286180D01*
X362122Y-287015D01*
X361926Y-288000D01*
Y-294000D01*
X362122Y-294985D01*
X362680Y-295820D01*
X363515Y-296378D01*
X364500Y-296573D01*
X364672D01*
Y-301282D01*
X363517Y-301591D01*
X361459Y-302779D01*
X359779Y-304459D01*
X358591Y-306517D01*
X357976Y-308812D01*
Y-311188D01*
X358591Y-313483D01*
X359779Y-315541D01*
X361459Y-317221D01*
X363517Y-318409D01*
X364672Y-318718D01*
Y-345328D01*
X331328Y-378672D01*
X322559D01*
X321479Y-378521D01*
X321328Y-377441D01*
Y-365672D01*
X328500Y-358500D01*
X329113Y-357582D01*
X329328Y-356500D01*
Y-319500D01*
X329113Y-318418D01*
X328500Y-317500D01*
X325070Y-314070D01*
X325409Y-313483D01*
X326024Y-311188D01*
Y-308812D01*
X325409Y-306517D01*
X324221Y-304459D01*
X322541Y-302779D01*
X320483Y-301591D01*
X318188Y-300976D01*
X315812D01*
X313517Y-301591D01*
X312930Y-301930D01*
X311000Y-300000D01*
X310082Y-299387D01*
X309000Y-299172D01*
X306582D01*
X306197Y-297902D01*
X306320Y-297820D01*
X306878Y-296985D01*
X307073Y-296000D01*
Y-293762D01*
X301500D01*
X295927D01*
Y-296000D01*
X296083Y-296787D01*
X295605Y-297247D01*
X295036Y-297536D01*
X292073Y-294573D01*
Y-290000D01*
X291877Y-289015D01*
X291320Y-288180D01*
X290485Y-287622D01*
X289500Y-287426D01*
X289328D01*
Y-284573D01*
X289500D01*
X290485Y-284377D01*
X291320Y-283820D01*
X291877Y-282985D01*
X292073Y-282000D01*
Y-276000D01*
X291877Y-275015D01*
X291320Y-274180D01*
X290485Y-273622D01*
X289500Y-273426D01*
X283500D01*
X282515Y-273622D01*
X281680Y-274180D01*
X281122Y-275015D01*
X280926Y-276000D01*
Y-276672D01*
X278573D01*
Y-276500D01*
X278377Y-275515D01*
X277820Y-274680D01*
X276985Y-274122D01*
X276000Y-273927D01*
X270000D01*
X269015Y-274122D01*
X268180Y-274680D01*
X267622Y-275515D01*
X267426Y-276500D01*
Y-282500D01*
X267622Y-283485D01*
X268180Y-284320D01*
X269015Y-284878D01*
X270000Y-285073D01*
X276000D01*
X276985Y-284878D01*
X277820Y-284320D01*
X278377Y-283485D01*
X278573Y-282500D01*
Y-282328D01*
X280992D01*
X281122Y-282985D01*
X281680Y-283820D01*
X282515Y-284377D01*
X283500Y-284573D01*
X283672D01*
Y-287426D01*
X283500D01*
X282515Y-287622D01*
X281680Y-288180D01*
X281122Y-289015D01*
X280926Y-290000D01*
Y-296000D01*
X281122Y-296985D01*
X281680Y-297820D01*
X282515Y-298377D01*
X283500Y-298573D01*
X288074D01*
X293500Y-304000D01*
X294418Y-304613D01*
X295500Y-304828D01*
X307829D01*
X308930Y-305930D01*
X308591Y-306517D01*
X307976Y-308812D01*
Y-311188D01*
X308591Y-313483D01*
X309779Y-315541D01*
X311459Y-317221D01*
X313517Y-318409D01*
X315812Y-319024D01*
X318188D01*
X320483Y-318409D01*
X321070Y-318070D01*
X323155Y-320155D01*
X323087Y-321213D01*
X322200Y-322127D01*
X316200D01*
X315215Y-322322D01*
X314380Y-322880D01*
X313822Y-323715D01*
X313627Y-324700D01*
Y-330700D01*
X313822Y-331685D01*
X314380Y-332520D01*
X315215Y-333078D01*
X315704Y-333175D01*
Y-336225D01*
X315215Y-336322D01*
X314380Y-336880D01*
X313822Y-337715D01*
X313627Y-338700D01*
Y-344700D01*
X313822Y-345685D01*
X314380Y-346520D01*
X315215Y-347078D01*
X316200Y-347273D01*
X316372D01*
Y-351729D01*
X311500Y-356600D01*
X310887Y-357518D01*
X310672Y-358600D01*
Y-367587D01*
X309900Y-368154D01*
X309402Y-368351D01*
X309262Y-368323D01*
Y-374750D01*
X307738D01*
Y-368323D01*
X307598Y-368351D01*
X307101Y-368154D01*
X306328Y-367587D01*
Y-363809D01*
X306113Y-362727D01*
X305500Y-361809D01*
X288691Y-345000D01*
X287773Y-344387D01*
X286691Y-344172D01*
X266152D01*
X265626Y-342902D01*
X265952Y-342576D01*
X266644Y-340905D01*
Y-339095D01*
X265952Y-337424D01*
X264924Y-336396D01*
Y-259405D01*
X264709Y-258323D01*
X264096Y-257405D01*
X264096Y-257405D01*
X221972Y-215282D01*
Y-183429D01*
X222534Y-183158D01*
X223242Y-183039D01*
X224231Y-184028D01*
X225718Y-184644D01*
X227329D01*
X228817Y-184028D01*
X229420Y-183424D01*
X280026D01*
X280373Y-184641D01*
X280374Y-184694D01*
X278683Y-186385D01*
X277479Y-188470D01*
X276856Y-190796D01*
Y-193204D01*
X277479Y-195529D01*
X278683Y-197614D01*
X280385Y-199317D01*
X282471Y-200521D01*
X284796Y-201144D01*
X287204D01*
X289529Y-200521D01*
X291615Y-199317D01*
X293317Y-197614D01*
X294521Y-195529D01*
X295144Y-193204D01*
Y-190796D01*
X294521Y-188470D01*
X293317Y-186385D01*
X291626Y-184694D01*
X291627Y-184641D01*
X291975Y-183424D01*
X356786D01*
X357868Y-183209D01*
X358786Y-182596D01*
X416048Y-125333D01*
X416661Y-124416D01*
X416876Y-123334D01*
X416876Y-123333D01*
Y15952D01*
X416661Y17034D01*
X416048Y17952D01*
X416048Y17952D01*
X360828Y73172D01*
Y119828D01*
X361124Y120124D01*
X375870D01*
X375893Y120089D01*
X375214Y118819D01*
X374762D01*
Y115012D01*
X379569D01*
Y115954D01*
X380839Y116480D01*
X381931Y115387D01*
Y112250D01*
X382108Y111363D01*
X382611Y110611D01*
X383363Y110108D01*
X384250Y109931D01*
X391750D01*
X392637Y110108D01*
X393390Y110611D01*
X393892Y111363D01*
X394069Y112250D01*
Y116750D01*
X393892Y117637D01*
X393390Y118390D01*
X392637Y118892D01*
X391750Y119069D01*
X386249D01*
X382344Y122974D01*
X382830Y124148D01*
X406852D01*
X410912Y120089D01*
X410386Y118819D01*
X408762D01*
Y115012D01*
X413569D01*
Y115635D01*
X414839Y116162D01*
X415932Y115069D01*
Y112250D01*
X416108Y111363D01*
X416611Y110611D01*
X417363Y110108D01*
X418250Y109931D01*
X425750D01*
X426637Y110108D01*
X427389Y110611D01*
X427892Y111363D01*
X428069Y112250D01*
Y116750D01*
X427892Y117637D01*
X427389Y118390D01*
X426637Y118892D01*
X425750Y119069D01*
X419931D01*
X412002Y126998D01*
X412488Y128172D01*
X436828D01*
X444912Y120089D01*
X444385Y118819D01*
X442762D01*
Y115012D01*
X447569D01*
Y115635D01*
X448839Y116162D01*
X449931Y115069D01*
Y112250D01*
X450108Y111363D01*
X450611Y110611D01*
X451363Y110108D01*
X452250Y109931D01*
X459750D01*
X460637Y110108D01*
X461390Y110611D01*
X461892Y111363D01*
X462069Y112250D01*
Y116750D01*
X461892Y117637D01*
X461390Y118390D01*
X460637Y118892D01*
X459750Y119069D01*
X453931D01*
X440000Y133000D01*
X439082Y133613D01*
X438000Y133828D01*
X356618D01*
X355536Y133613D01*
X354618Y133000D01*
X347000Y125381D01*
X346387Y124464D01*
X346172Y123382D01*
Y69624D01*
X346159Y69612D01*
X345000Y69000D01*
X340000Y74000D01*
X339082Y74613D01*
X338000Y74828D01*
X334604D01*
X333576Y75856D01*
X331905Y76548D01*
X330095D01*
X328424Y75856D01*
X327144Y74576D01*
X326452Y72905D01*
Y71095D01*
X326865Y70098D01*
X326081Y68828D01*
X315172D01*
X311721Y72279D01*
X312215Y73581D01*
X313576Y74144D01*
X314500Y75068D01*
X315424Y74144D01*
X317095Y73452D01*
X318905D01*
X320576Y74144D01*
X321856Y75424D01*
X322548Y77095D01*
Y78905D01*
X321856Y80576D01*
X320576Y81856D01*
X318905Y82548D01*
X317095D01*
X315810Y82016D01*
X315134Y82343D01*
X314609Y83460D01*
X314766Y84250D01*
Y87433D01*
X316036Y87686D01*
X316285Y87084D01*
X317371Y85669D01*
X318786Y84583D01*
X320434Y83900D01*
X322202Y83667D01*
X324202D01*
X325970Y83900D01*
X327618Y84583D01*
X329033Y85669D01*
X330119Y87084D01*
X330802Y88732D01*
X331034Y90500D01*
X330802Y92268D01*
X330119Y93916D01*
X329033Y95331D01*
X327618Y96417D01*
X325970Y97100D01*
X324202Y97332D01*
X322202D01*
X320434Y97100D01*
X318786Y96417D01*
X317371Y95331D01*
X316285Y93916D01*
X316036Y93314D01*
X314766Y93567D01*
Y96750D01*
X314609Y97540D01*
X314161Y98209D01*
X313492Y98657D01*
X312702Y98814D01*
X309702D01*
X308912Y98657D01*
X308897Y98646D01*
X307952Y98312D01*
X307007Y98646D01*
X306992Y98657D01*
X306202Y98814D01*
X303202D01*
X302412Y98657D01*
X302397Y98646D01*
X301452Y98312D01*
X300507Y98646D01*
X300492Y98657D01*
X299702Y98814D01*
X296702D01*
X295912Y98657D01*
X295897Y98646D01*
X294952Y98312D01*
X294007Y98646D01*
X293992Y98657D01*
X293202Y98814D01*
X290202D01*
X289412Y98657D01*
X289397Y98646D01*
X288452Y98312D01*
X287507Y98646D01*
X287492Y98657D01*
X286702Y98814D01*
X285964D01*
Y90500D01*
X284440D01*
Y98814D01*
X283702D01*
X282912Y98657D01*
X282243Y98209D01*
X281795Y97540D01*
X281638Y96750D01*
Y93567D01*
X280368Y93314D01*
X280119Y93916D01*
X279033Y95331D01*
X277618Y96417D01*
X275970Y97100D01*
X274202Y97332D01*
X272202D01*
X270434Y97100D01*
X268786Y96417D01*
X267371Y95331D01*
X266285Y93916D01*
X265602Y92268D01*
X265369Y90500D01*
X265602Y88732D01*
X266285Y87084D01*
X267371Y85669D01*
X268786Y84583D01*
X270434Y83900D01*
X272202Y83667D01*
X274202D01*
X275970Y83900D01*
X277618Y84583D01*
X279033Y85669D01*
X280119Y87084D01*
X280368Y87686D01*
X281638Y87433D01*
Y84250D01*
X281795Y83460D01*
X282243Y82791D01*
X282854Y82382D01*
X282918Y82049D01*
X282939Y81043D01*
X282437Y80835D01*
X281500Y79898D01*
X280563Y80835D01*
X278900Y81524D01*
X278762D01*
Y77000D01*
Y72476D01*
X278900D01*
X280563Y73165D01*
X281500Y74102D01*
X282437Y73165D01*
X284100Y72476D01*
X284238D01*
Y77000D01*
X285000D01*
Y77762D01*
X289524D01*
Y77900D01*
X288835Y79563D01*
X287563Y80835D01*
X287192Y80989D01*
X287322Y82310D01*
X287492Y82343D01*
X287507Y82354D01*
X288452Y82688D01*
X289397Y82354D01*
X289412Y82343D01*
X290202Y82186D01*
X293202D01*
X293992Y82343D01*
X294007Y82354D01*
X294138Y82400D01*
X295374Y81745D01*
Y75806D01*
X294144Y74576D01*
X293452Y72905D01*
Y71095D01*
X294144Y69424D01*
X295424Y68144D01*
X297095Y67452D01*
X298905D01*
X300576Y68144D01*
X301856Y69424D01*
X302548Y71095D01*
Y71656D01*
X303818Y72182D01*
X312000Y64000D01*
X312918Y63387D01*
X314000Y63172D01*
X337138D01*
X391148Y9162D01*
Y-23852D01*
X362031Y-52969D01*
X360725Y-52479D01*
X360613Y-51918D01*
X360000Y-51000D01*
X359082Y-50387D01*
X358000Y-50172D01*
X357578D01*
Y-47750D01*
X357363Y-46668D01*
X356750Y-45750D01*
X356750Y-45750D01*
X354000Y-43000D01*
X353082Y-42387D01*
X352000Y-42172D01*
X348828D01*
Y-32000D01*
X348828Y-32000D01*
Y-30165D01*
X349576Y-29856D01*
X350856Y-28576D01*
X351548Y-26905D01*
Y-25095D01*
X350856Y-23424D01*
X350775Y-23343D01*
X351056Y-21957D01*
X351128Y-21900D01*
X352000Y-22074D01*
X358000D01*
X358985Y-21878D01*
X359820Y-21320D01*
X360378Y-20485D01*
X360475Y-19996D01*
X363525D01*
X363623Y-20485D01*
X364180Y-21320D01*
X365015Y-21878D01*
X366000Y-22074D01*
X372000D01*
X372985Y-21878D01*
X373820Y-21320D01*
X374378Y-20485D01*
X374574Y-19500D01*
Y-13500D01*
X374378Y-12515D01*
X373820Y-11680D01*
X372985Y-11122D01*
X372000Y-10927D01*
X366000D01*
X365015Y-11122D01*
X364180Y-11680D01*
X363623Y-12515D01*
X363525Y-13004D01*
X360475D01*
X360378Y-12515D01*
X359820Y-11680D01*
X358985Y-11122D01*
X358000Y-10927D01*
X352000D01*
X351015Y-11122D01*
X350180Y-11680D01*
X349622Y-12515D01*
X349525Y-13004D01*
X346475D01*
X346378Y-12515D01*
X345820Y-11680D01*
X344985Y-11122D01*
X344000Y-10927D01*
X338000D01*
X337015Y-11122D01*
X336180Y-11680D01*
X335622Y-12515D01*
X335427Y-13500D01*
Y-19500D01*
X335622Y-20485D01*
X336180Y-21320D01*
X337015Y-21878D01*
X338000Y-22074D01*
X338172D01*
Y-27115D01*
X336902Y-27891D01*
X335900Y-27476D01*
X335762D01*
Y-32000D01*
X335000D01*
Y-32762D01*
X329887D01*
X329383Y-33209D01*
X329303Y-33232D01*
X329000Y-33172D01*
X293818D01*
Y-32750D01*
X293642Y-31863D01*
X293139Y-31111D01*
X292387Y-30608D01*
X291500Y-30431D01*
X287000D01*
X286113Y-30608D01*
X285361Y-31111D01*
X284858Y-31863D01*
X284681Y-32750D01*
Y-39250D01*
X284858Y-40137D01*
X285361Y-40890D01*
X286113Y-41392D01*
X287000Y-41568D01*
X291500D01*
X292387Y-41392D01*
X293139Y-40890D01*
X293642Y-40137D01*
X293818Y-39250D01*
Y-38828D01*
X322587D01*
X323154Y-39600D01*
X323351Y-40098D01*
X323172Y-41000D01*
Y-47500D01*
X323387Y-48582D01*
X324000Y-49500D01*
X324918Y-50113D01*
X326000Y-50328D01*
X327082Y-50113D01*
X327635Y-49743D01*
X328500Y-49589D01*
X329365Y-49743D01*
X329918Y-50113D01*
X330542Y-50237D01*
X330417Y-51507D01*
X328080D01*
X326713Y-51779D01*
X325554Y-52554D01*
X324779Y-53713D01*
X324507Y-55080D01*
Y-57417D01*
X323237Y-57542D01*
X323113Y-56918D01*
X322744Y-56365D01*
X322589Y-55500D01*
X322744Y-54635D01*
X323113Y-54082D01*
X323328Y-53000D01*
X323113Y-51918D01*
X322500Y-51000D01*
X321582Y-50387D01*
X320500Y-50172D01*
X314000D01*
X312918Y-50387D01*
X312000Y-51000D01*
X311387Y-51918D01*
X311172Y-53000D01*
X311351Y-53902D01*
X311154Y-54399D01*
X310587Y-55172D01*
X281203D01*
X281028Y-54517D01*
X279839Y-52459D01*
X278159Y-50779D01*
X276102Y-49591D01*
X273806Y-48976D01*
X271430D01*
X269135Y-49591D01*
X267078Y-50779D01*
X265397Y-52459D01*
X264209Y-54517D01*
X263594Y-56812D01*
Y-59188D01*
X264209Y-61483D01*
X264548Y-62070D01*
X211053Y-115566D01*
X209879Y-115080D01*
Y22640D01*
X209879Y22640D01*
X209664Y23722D01*
X209051Y24640D01*
X196614Y37077D01*
Y62739D01*
X197884Y63124D01*
X198180Y62680D01*
X199015Y62122D01*
X200000Y61926D01*
X206000D01*
X206985Y62122D01*
X207820Y62680D01*
X208378Y63515D01*
X208573Y64500D01*
Y64504D01*
X211931D01*
Y64250D01*
X212108Y63363D01*
X212610Y62611D01*
X213363Y62108D01*
X214250Y61932D01*
X218750D01*
X219637Y62108D01*
X220389Y62611D01*
X220892Y63363D01*
X221068Y64250D01*
Y71750D01*
X220892Y72637D01*
X220389Y73390D01*
X219996Y73652D01*
Y76348D01*
X220389Y76611D01*
X220892Y77363D01*
X221068Y78250D01*
Y85750D01*
X220892Y86637D01*
X220389Y87389D01*
X219637Y87892D01*
X218750Y88069D01*
X214250D01*
X213363Y87892D01*
X212610Y87389D01*
X212108Y86637D01*
X211931Y85750D01*
Y78250D01*
X212108Y77363D01*
X212610Y76611D01*
X213004Y76348D01*
Y73652D01*
X212610Y73390D01*
X212108Y72637D01*
X211931Y71750D01*
Y71496D01*
X208370D01*
X207820Y72320D01*
X206985Y72878D01*
X206000Y73073D01*
X200000D01*
X199015Y72878D01*
X198180Y72320D01*
X197622Y71485D01*
X197427Y70500D01*
Y70328D01*
X195250D01*
X194168Y70113D01*
X193250Y69500D01*
X191786Y68035D01*
X191173Y67118D01*
X190957Y66035D01*
Y38702D01*
X189784Y38216D01*
X160068Y67931D01*
Y70750D01*
X159892Y71637D01*
X159389Y72389D01*
X158637Y72892D01*
X157750Y73068D01*
X150250D01*
X149363Y72892D01*
X148770Y72496D01*
X145975D01*
X145878Y72985D01*
X145320Y73820D01*
X144485Y74378D01*
X143996Y74475D01*
Y77348D01*
X144389Y77611D01*
X144892Y78363D01*
X145069Y79250D01*
Y86750D01*
X144892Y87637D01*
X144389Y88389D01*
X143637Y88892D01*
X142750Y89068D01*
X138250D01*
X137363Y88892D01*
X136611Y88389D01*
X136108Y87637D01*
X135932Y86750D01*
Y79250D01*
X136108Y78363D01*
X136611Y77611D01*
X137004Y77348D01*
Y74475D01*
X136515Y74378D01*
X135680Y73820D01*
X135122Y72985D01*
X134927Y72000D01*
Y66000D01*
X135122Y65015D01*
X135680Y64180D01*
X136515Y63622D01*
X137500Y63426D01*
X143500D01*
X144485Y63622D01*
X145320Y64180D01*
X145878Y65015D01*
X145975Y65504D01*
X148080D01*
X148108Y65363D01*
X148610Y64611D01*
X149363Y64108D01*
X150250Y63931D01*
X156069D01*
X200199Y19802D01*
Y-102849D01*
X199025Y-103335D01*
X184667Y-88976D01*
X183749Y-88363D01*
X182667Y-88148D01*
X137148D01*
X51730Y-2730D01*
X53068Y-413D01*
X54024Y3154D01*
Y6846D01*
X53068Y10413D01*
X51222Y13611D01*
X48611Y16222D01*
X45413Y18068D01*
X41846Y19024D01*
X38154D01*
X34587Y18068D01*
X31389Y16222D01*
X28778Y13611D01*
X26932Y10413D01*
X25976Y6846D01*
Y3154D01*
X26932Y-413D01*
X28778Y-3611D01*
X31389Y-6222D01*
X34587Y-8068D01*
X38154Y-9024D01*
X41846D01*
X45413Y-8068D01*
X47730Y-6730D01*
X131998Y-90998D01*
X131512Y-92172D01*
X53761D01*
X53068Y-89587D01*
X51222Y-86389D01*
X48611Y-83778D01*
X45413Y-81932D01*
X41846Y-80976D01*
X38154D01*
X34587Y-81932D01*
X31389Y-83778D01*
X28778Y-86389D01*
X26932Y-89587D01*
X25976Y-93154D01*
Y-96846D01*
X26932Y-100413D01*
X28778Y-103611D01*
X31389Y-106222D01*
X34587Y-108068D01*
X38154Y-109024D01*
X41846D01*
X45413Y-108068D01*
X48611Y-106222D01*
X51222Y-103611D01*
X53068Y-100413D01*
X53761Y-97828D01*
X179828D01*
X192151Y-110150D01*
Y-175767D01*
X190881Y-176397D01*
X189805Y-175952D01*
X189588D01*
X189048Y-175805D01*
Y-174195D01*
X188432Y-172707D01*
X187465Y-171741D01*
X187387Y-170337D01*
X187432Y-170293D01*
X188048Y-168805D01*
Y-167195D01*
X187432Y-165707D01*
X186293Y-164568D01*
X184805Y-163952D01*
X183195D01*
X181707Y-164568D01*
X180568Y-165707D01*
X179952Y-167195D01*
Y-168048D01*
X158000Y-190000D01*
X157387Y-190918D01*
X157172Y-192000D01*
Y-269512D01*
X155998Y-269998D01*
X99000Y-213000D01*
X98082Y-212387D01*
X97000Y-212172D01*
X53761D01*
X53068Y-209587D01*
X51222Y-206389D01*
X48611Y-203778D01*
X45413Y-201932D01*
X41846Y-200976D01*
X38154D01*
X34587Y-201932D01*
X31389Y-203778D01*
X28778Y-206389D01*
X26932Y-209587D01*
X25976Y-213154D01*
Y-216846D01*
X26932Y-220413D01*
X28778Y-223611D01*
X31389Y-226222D01*
X34587Y-228068D01*
X38154Y-229024D01*
X41846D01*
X45413Y-228068D01*
X48611Y-226222D01*
X51222Y-223611D01*
X53068Y-220413D01*
X53761Y-217828D01*
X95829D01*
X138998Y-260998D01*
X138512Y-262172D01*
X53761D01*
X53068Y-259587D01*
X51222Y-256389D01*
X48611Y-253778D01*
X45413Y-251932D01*
X41846Y-250976D01*
X38154D01*
X34587Y-251932D01*
X31389Y-253778D01*
X28778Y-256389D01*
X26932Y-259587D01*
X25976Y-263154D01*
Y-266846D01*
X26932Y-270413D01*
X28778Y-273611D01*
X31389Y-276222D01*
X34587Y-278068D01*
X38154Y-279024D01*
X41846D01*
X45413Y-278068D01*
X48611Y-276222D01*
X51222Y-273611D01*
X53068Y-270413D01*
X53761Y-267828D01*
X139828D01*
X148172Y-276172D01*
Y-350000D01*
X148387Y-351082D01*
X149000Y-352000D01*
X215172Y-418172D01*
Y-477104D01*
X214568Y-477707D01*
X213952Y-479195D01*
Y-480805D01*
X214568Y-482293D01*
X215707Y-483432D01*
X217195Y-484048D01*
X218805D01*
X220293Y-483432D01*
X221432Y-482293D01*
X222048Y-480805D01*
Y-479195D01*
X221605Y-478126D01*
X222682Y-477407D01*
X222707Y-477432D01*
X224195Y-478048D01*
X225805D01*
X226404Y-477800D01*
X227124Y-478876D01*
X166702Y-539298D01*
X166089Y-540216D01*
X165874Y-541298D01*
Y-729337D01*
X166089Y-730420D01*
X166702Y-731337D01*
X173917Y-738552D01*
Y-744500D01*
X174151Y-745680D01*
X174820Y-746680D01*
X174872Y-746715D01*
X174487Y-747985D01*
X172736D01*
X168295Y-747102D01*
X164112Y-745369D01*
X160348Y-742854D01*
X157146Y-739652D01*
X154631Y-735888D01*
X152898Y-731704D01*
X152015Y-727264D01*
Y-725000D01*
X152015Y-550000D01*
X152008Y-549967D01*
X152014Y-549934D01*
X151907Y-546664D01*
X151884Y-546567D01*
X151890Y-546467D01*
X151037Y-539982D01*
X150994Y-539857D01*
X150985Y-539724D01*
X149292Y-533407D01*
X149234Y-533287D01*
X149208Y-533157D01*
X146705Y-527115D01*
X146631Y-527004D01*
X146588Y-526878D01*
X143318Y-521214D01*
X143231Y-521114D01*
X143172Y-520995D01*
X139190Y-515806D01*
X139090Y-515719D01*
X139017Y-515608D01*
X134392Y-510984D01*
X134281Y-510910D01*
X134194Y-510810D01*
X129005Y-506828D01*
X128886Y-506769D01*
X128786Y-506682D01*
X123122Y-503412D01*
X122996Y-503369D01*
X122885Y-503295D01*
X116843Y-500792D01*
X116713Y-500766D01*
X116593Y-500708D01*
X110276Y-499015D01*
X110143Y-499006D01*
X110017Y-498963D01*
X103533Y-498110D01*
X103434Y-498116D01*
X103336Y-498093D01*
X100066Y-497986D01*
X100033Y-497992D01*
X100000Y-497985D01*
X46855D01*
X40619Y-497164D01*
X34543Y-495536D01*
X28731Y-493129D01*
X23284Y-489984D01*
X18293Y-486155D01*
X13845Y-481707D01*
X10016Y-476716D01*
X6871Y-471269D01*
X4464Y-465457D01*
X2836Y-459381D01*
X2015Y-453145D01*
Y-450000D01*
Y90000D01*
Y93145D01*
X2836Y99382D01*
X4464Y105457D01*
X6871Y111269D01*
X10016Y116716D01*
X13845Y121707D01*
X18293Y126155D01*
X23284Y129984D01*
X28731Y133129D01*
X34543Y135536D01*
X40619Y137164D01*
X46855Y137985D01*
X553145D01*
X559381Y137164D01*
D02*
G37*
G36*
X295266Y-62002D02*
X295244Y-62024D01*
X294552Y-63695D01*
Y-65505D01*
X295093Y-66812D01*
X295049Y-67565D01*
X294643Y-68371D01*
X294180Y-68680D01*
X293622Y-69515D01*
X293426Y-70500D01*
Y-76500D01*
X293622Y-77485D01*
X294180Y-78320D01*
X295015Y-78878D01*
X296000Y-79073D01*
X302000D01*
X302985Y-78878D01*
X303820Y-78320D01*
X304377Y-77485D01*
X304573Y-76500D01*
Y-75828D01*
X320500D01*
X321582Y-75613D01*
X322500Y-75000D01*
X323113Y-74082D01*
X323328Y-73000D01*
X323113Y-71918D01*
X322744Y-71365D01*
X322589Y-70500D01*
X322744Y-69635D01*
X323113Y-69082D01*
X323237Y-68457D01*
X324507Y-68583D01*
Y-70920D01*
X324779Y-72287D01*
X325554Y-73446D01*
X326713Y-74221D01*
X328080Y-74493D01*
X330417D01*
X330542Y-75763D01*
X329918Y-75887D01*
X329365Y-76256D01*
X328500Y-76411D01*
X327635Y-76256D01*
X327082Y-75887D01*
X326000Y-75672D01*
X324918Y-75887D01*
X324000Y-76500D01*
X323387Y-77418D01*
X323172Y-78500D01*
Y-87828D01*
X314828Y-96172D01*
X292584D01*
X292409Y-95517D01*
X291221Y-93459D01*
X289541Y-91779D01*
X287483Y-90591D01*
X285188Y-89976D01*
X282812D01*
X280517Y-90591D01*
X278459Y-91779D01*
X276779Y-93459D01*
X275591Y-95517D01*
X275415Y-96172D01*
X240106D01*
X239620Y-94998D01*
X268548Y-66070D01*
X269135Y-66409D01*
X271430Y-67024D01*
X273806D01*
X276102Y-66409D01*
X278159Y-65221D01*
X279839Y-63541D01*
X281028Y-61483D01*
X281203Y-60828D01*
X294780D01*
X295266Y-62002D01*
D02*
G37*
G36*
X403172Y11447D02*
Y-118828D01*
X356828Y-165172D01*
X270209D01*
X269869Y-163902D01*
X270356Y-163620D01*
X271570Y-162406D01*
X272429Y-160918D01*
X272874Y-159259D01*
Y-157541D01*
X272429Y-155882D01*
X271570Y-154394D01*
X270356Y-153180D01*
X269669Y-152783D01*
Y-151317D01*
X270356Y-150920D01*
X271570Y-149706D01*
X272429Y-148218D01*
X272874Y-146559D01*
Y-144841D01*
X272429Y-143182D01*
X271570Y-141694D01*
X270356Y-140479D01*
X269669Y-140083D01*
Y-138617D01*
X270356Y-138221D01*
X271570Y-137006D01*
X272429Y-135518D01*
X272874Y-133859D01*
Y-132141D01*
X272429Y-130482D01*
X271570Y-128994D01*
X270356Y-127780D01*
X269669Y-127383D01*
Y-125917D01*
X270356Y-125520D01*
X271570Y-124306D01*
X272429Y-122818D01*
X272874Y-121159D01*
Y-119441D01*
X272429Y-117782D01*
X271570Y-116294D01*
X270356Y-115079D01*
X269669Y-114683D01*
Y-113217D01*
X270356Y-112821D01*
X271570Y-111606D01*
X272429Y-110118D01*
X272874Y-108459D01*
Y-108362D01*
X266350D01*
Y-106838D01*
X272874D01*
Y-106741D01*
X272429Y-105082D01*
X271570Y-103594D01*
X271075Y-103098D01*
X271601Y-101828D01*
X275415D01*
X275591Y-102483D01*
X276779Y-104541D01*
X278459Y-106221D01*
X280517Y-107409D01*
X282812Y-108024D01*
X285188D01*
X287483Y-107409D01*
X289541Y-106221D01*
X291221Y-104541D01*
X292409Y-102483D01*
X292584Y-101828D01*
X316000D01*
X317082Y-101613D01*
X318000Y-101000D01*
X328000Y-91000D01*
X328613Y-90082D01*
X328828Y-89000D01*
Y-88413D01*
X329601Y-87846D01*
X330098Y-87649D01*
X331000Y-87828D01*
X332082Y-87613D01*
X332635Y-87243D01*
X333335Y-87119D01*
X334054Y-87559D01*
X333978Y-88941D01*
X333437Y-89165D01*
X332165Y-90437D01*
X331476Y-92100D01*
Y-92238D01*
X340524D01*
Y-92100D01*
X339835Y-90437D01*
X338563Y-89165D01*
X338241Y-89031D01*
X338018Y-87565D01*
X338615Y-87000D01*
X339000D01*
X339918Y-87613D01*
X341000Y-87828D01*
X342082Y-87613D01*
X342635Y-87243D01*
X343500Y-87089D01*
X344365Y-87243D01*
X344918Y-87613D01*
X346000Y-87828D01*
X347082Y-87613D01*
X348000Y-87000D01*
X348613Y-86082D01*
X348828Y-85000D01*
Y-78500D01*
X348613Y-77418D01*
X348000Y-76500D01*
X347082Y-75887D01*
X346000Y-75672D01*
X344918Y-75887D01*
X344365Y-76256D01*
X343500Y-76411D01*
X342635Y-76256D01*
X342082Y-75887D01*
X341458Y-75763D01*
X341583Y-74493D01*
X343920D01*
X345287Y-74221D01*
X346446Y-73446D01*
X347221Y-72287D01*
X347493Y-70920D01*
Y-68583D01*
X348763Y-68457D01*
X348887Y-69082D01*
X349257Y-69635D01*
X349411Y-70500D01*
X349257Y-71365D01*
X348887Y-71918D01*
X348672Y-73000D01*
X348887Y-74082D01*
X349500Y-75000D01*
X350418Y-75613D01*
X351500Y-75828D01*
X358000D01*
X359082Y-75613D01*
X360000Y-75000D01*
X360613Y-74082D01*
X360828Y-73000D01*
X360649Y-72098D01*
X360846Y-71601D01*
X361413Y-70828D01*
X366396D01*
X367424Y-71856D01*
X369095Y-72548D01*
X370905D01*
X372576Y-71856D01*
X373856Y-70576D01*
X374548Y-68905D01*
Y-67095D01*
X373856Y-65424D01*
X372576Y-64144D01*
X370905Y-63452D01*
X369095D01*
X367424Y-64144D01*
X366488Y-65080D01*
X365314Y-64954D01*
X364865Y-63826D01*
X400000Y-28691D01*
X400613Y-27773D01*
X400828Y-26691D01*
Y11994D01*
X400841Y12006D01*
X402000Y12618D01*
X403172Y11447D01*
D02*
G37*
G36*
X246671Y-102124D02*
X247221Y-103098D01*
X247072Y-103850D01*
Y-111350D01*
X247287Y-112432D01*
X247900Y-113350D01*
X248818Y-113963D01*
X248995Y-113998D01*
X249172Y-114294D01*
X249358Y-115365D01*
X248430Y-116294D01*
X247750Y-117472D01*
X236823D01*
X235741Y-117687D01*
X234823Y-118300D01*
X219101Y-134022D01*
X217927Y-133536D01*
Y-122382D01*
X238481Y-101828D01*
X246387D01*
X246671Y-102124D01*
D02*
G37*
G36*
X248430Y-124306D02*
X249644Y-125520D01*
X250331Y-125917D01*
Y-127383D01*
X249644Y-127780D01*
X248430Y-128994D01*
X247571Y-130482D01*
X247126Y-132141D01*
Y-133859D01*
X247571Y-135518D01*
X248430Y-137006D01*
X249644Y-138221D01*
X250331Y-138617D01*
Y-140083D01*
X249644Y-140479D01*
X248430Y-141694D01*
X247571Y-143182D01*
X247126Y-144841D01*
Y-146559D01*
X247571Y-148218D01*
X248430Y-149706D01*
X249644Y-150920D01*
X250331Y-151317D01*
Y-152783D01*
X249644Y-153180D01*
X248430Y-154394D01*
X247571Y-155882D01*
X247126Y-157541D01*
Y-159259D01*
X247571Y-160918D01*
X248430Y-162406D01*
X249644Y-163620D01*
X250131Y-163902D01*
X249791Y-165172D01*
X233896D01*
X233293Y-164568D01*
X231805Y-163952D01*
X230195D01*
X228707Y-164568D01*
X227568Y-165707D01*
X226952Y-167195D01*
Y-168805D01*
X227401Y-169889D01*
X226511Y-170895D01*
X225563Y-170503D01*
X223953D01*
X223221Y-170806D01*
X221951Y-169973D01*
Y-139172D01*
X237994Y-123128D01*
X247750D01*
X248430Y-124306D01*
D02*
G37*
G36*
X534297Y-148493D02*
X536107D01*
X536902Y-148164D01*
X538172Y-149012D01*
Y-264828D01*
X533310Y-269691D01*
X532139Y-269065D01*
X532232Y-268596D01*
X532232Y-268596D01*
Y-149012D01*
X533502Y-148164D01*
X534297Y-148493D01*
D02*
G37*
G36*
X192151Y-184233D02*
Y-188854D01*
X192172Y-188960D01*
Y-265931D01*
X191250D01*
X190363Y-266108D01*
X189611Y-266611D01*
X189108Y-267363D01*
X188931Y-268250D01*
Y-272750D01*
X189108Y-273637D01*
X189611Y-274389D01*
X190363Y-274892D01*
X191250Y-275068D01*
X198750D01*
X199637Y-274892D01*
X200389Y-274389D01*
X200892Y-273637D01*
X201068Y-272750D01*
Y-268250D01*
X200892Y-267363D01*
X200389Y-266611D01*
X199637Y-266108D01*
X198750Y-265931D01*
X197828D01*
Y-232105D01*
X199002Y-231619D01*
X224172Y-256789D01*
Y-265931D01*
X223250D01*
X222363Y-266108D01*
X221611Y-266611D01*
X221108Y-267363D01*
X220931Y-268250D01*
Y-272750D01*
X221108Y-273637D01*
X221611Y-274389D01*
X222363Y-274892D01*
X223250Y-275068D01*
X230750D01*
X231637Y-274892D01*
X232390Y-274389D01*
X232892Y-273637D01*
X233069Y-272750D01*
Y-268250D01*
X232892Y-267363D01*
X232390Y-266611D01*
X231637Y-266108D01*
X230750Y-265931D01*
X229828D01*
Y-257488D01*
X231002Y-257002D01*
X237172Y-263172D01*
Y-347000D01*
X237387Y-348082D01*
X238000Y-349000D01*
X240047Y-351046D01*
X239560Y-352220D01*
X227172D01*
X206828Y-331876D01*
Y-318582D01*
X208098Y-318197D01*
X208180Y-318320D01*
X209015Y-318878D01*
X210000Y-319074D01*
X212238D01*
Y-313500D01*
Y-307927D01*
X210000D01*
X209213Y-308083D01*
X208753Y-307605D01*
X208464Y-307036D01*
X211427Y-304074D01*
X216000D01*
X216985Y-303878D01*
X217820Y-303320D01*
X218378Y-302485D01*
X218573Y-301500D01*
Y-301328D01*
X221047D01*
X221108Y-301637D01*
X221611Y-302390D01*
X222363Y-302892D01*
X223250Y-303069D01*
X230750D01*
X231637Y-302892D01*
X232390Y-302390D01*
X232892Y-301637D01*
X233069Y-300750D01*
Y-296250D01*
X232892Y-295363D01*
X232390Y-294611D01*
X231637Y-294108D01*
X230750Y-293932D01*
X229828D01*
Y-290069D01*
X230750D01*
X231637Y-289892D01*
X232390Y-289389D01*
X232892Y-288637D01*
X233069Y-287750D01*
Y-283250D01*
X232892Y-282363D01*
X232390Y-281611D01*
X231637Y-281108D01*
X230750Y-280931D01*
X223250D01*
X222363Y-281108D01*
X221611Y-281611D01*
X221108Y-282363D01*
X220931Y-283250D01*
Y-287750D01*
X221108Y-288637D01*
X221611Y-289389D01*
X222363Y-289892D01*
X223250Y-290069D01*
X224172D01*
Y-293932D01*
X223250D01*
X222363Y-294108D01*
X221611Y-294611D01*
X221108Y-295363D01*
X221047Y-295672D01*
X218573D01*
Y-295500D01*
X218378Y-294515D01*
X217820Y-293680D01*
X216985Y-293123D01*
X216000Y-292927D01*
X210000D01*
X209015Y-293123D01*
X208180Y-293680D01*
X207623Y-294515D01*
X207427Y-295500D01*
Y-300074D01*
X202000Y-305500D01*
X201387Y-306418D01*
X201172Y-307500D01*
Y-308669D01*
X199902Y-309285D01*
X199637Y-309108D01*
X198750Y-308932D01*
X191250D01*
X190363Y-309108D01*
X189611Y-309611D01*
X189108Y-310363D01*
X188931Y-311250D01*
Y-315750D01*
X189108Y-316637D01*
X189611Y-317390D01*
X190363Y-317892D01*
X191250Y-318069D01*
X198750D01*
X199637Y-317892D01*
X199902Y-317715D01*
X201172Y-318331D01*
Y-333048D01*
X201387Y-334130D01*
X202000Y-335048D01*
X222022Y-355070D01*
X221536Y-356244D01*
X212743D01*
X177604Y-321104D01*
X177644Y-319396D01*
X178000Y-319074D01*
X180238D01*
Y-313500D01*
Y-307927D01*
X178000D01*
X177644Y-307604D01*
X177604Y-305896D01*
X179426Y-304073D01*
X184000D01*
X184985Y-303878D01*
X185820Y-303320D01*
X186378Y-302485D01*
X186475Y-301996D01*
X189348D01*
X189611Y-302389D01*
X190363Y-302892D01*
X191250Y-303069D01*
X198750D01*
X199637Y-302892D01*
X200389Y-302389D01*
X200892Y-301637D01*
X201068Y-300750D01*
Y-296250D01*
X200892Y-295363D01*
X200389Y-294611D01*
X199637Y-294108D01*
X198750Y-293931D01*
X198496D01*
Y-290069D01*
X198750D01*
X199637Y-289892D01*
X200389Y-289389D01*
X200892Y-288637D01*
X201068Y-287750D01*
Y-283250D01*
X200892Y-282363D01*
X200389Y-281611D01*
X199637Y-281108D01*
X198750Y-280931D01*
X191250D01*
X190363Y-281108D01*
X189611Y-281611D01*
X189108Y-282363D01*
X188931Y-283250D01*
Y-287750D01*
X189108Y-288637D01*
X189611Y-289389D01*
X190363Y-289892D01*
X191250Y-290069D01*
X191504D01*
Y-293931D01*
X191250D01*
X190363Y-294108D01*
X189611Y-294611D01*
X189348Y-295004D01*
X186475D01*
X186378Y-294515D01*
X185820Y-293680D01*
X184985Y-293122D01*
X184000Y-292927D01*
X178000D01*
X177015Y-293122D01*
X176180Y-293680D01*
X175622Y-294515D01*
X175427Y-295500D01*
Y-300074D01*
X172146Y-303354D01*
X171546Y-303256D01*
X170876Y-302896D01*
Y-202124D01*
X188952Y-184048D01*
X189805D01*
X190881Y-183603D01*
X192151Y-184233D01*
D02*
G37*
G36*
X209402Y-360902D02*
X209272Y-361588D01*
X208932Y-362172D01*
X193244D01*
X170876Y-339804D01*
Y-324104D01*
X171546Y-323744D01*
X172146Y-323646D01*
X209402Y-360902D01*
D02*
G37*
G36*
X280672Y-369672D02*
Y-377441D01*
X280521Y-378521D01*
X279441Y-378672D01*
X272672D01*
X266655Y-372655D01*
X265737Y-372042D01*
X264655Y-371826D01*
X197208D01*
X194383Y-369002D01*
X194869Y-367828D01*
X278828D01*
X280672Y-369672D01*
D02*
G37*
G36*
X262884Y-384884D02*
X262358Y-386154D01*
X261191D01*
X259520Y-386846D01*
X258240Y-388126D01*
X257548Y-389797D01*
Y-391607D01*
X257617Y-391774D01*
X256839Y-393023D01*
X255947Y-393098D01*
X253449Y-390600D01*
X252531Y-389987D01*
X251449Y-389772D01*
X245623D01*
Y-389600D01*
X245428Y-388615D01*
X244870Y-387780D01*
X244035Y-387222D01*
X243050Y-387027D01*
X237050D01*
X236065Y-387222D01*
X235230Y-387780D01*
X234672Y-388615D01*
X234477Y-389600D01*
Y-389772D01*
X231623D01*
Y-389600D01*
X231427Y-388615D01*
X230870Y-387780D01*
X230035Y-387222D01*
X229050Y-387027D01*
X223050D01*
X222065Y-387222D01*
X221230Y-387780D01*
X220672Y-388615D01*
X220476Y-389600D01*
Y-395600D01*
X220672Y-396585D01*
X221230Y-397420D01*
X222065Y-397978D01*
X223050Y-398173D01*
X229050D01*
X230035Y-397978D01*
X230870Y-397420D01*
X231427Y-396585D01*
X231623Y-395600D01*
Y-395428D01*
X234477D01*
Y-395600D01*
X234672Y-396585D01*
X235230Y-397420D01*
X236065Y-397978D01*
X237050Y-398173D01*
X243050D01*
X244035Y-397978D01*
X244870Y-397420D01*
X245428Y-396585D01*
X245623Y-395600D01*
Y-395428D01*
X250277D01*
X253349Y-398500D01*
X253349Y-398500D01*
X254266Y-399113D01*
X255349Y-399328D01*
X255349Y-399328D01*
X269587D01*
X270154Y-400101D01*
X270351Y-400598D01*
X270323Y-400738D01*
X276750D01*
Y-402262D01*
X270323D01*
X270351Y-402402D01*
X270154Y-402900D01*
X269587Y-403672D01*
X258214D01*
X257132Y-403887D01*
X256215Y-404500D01*
X256214Y-404500D01*
X256158Y-404557D01*
X255905Y-404452D01*
X254095D01*
X252424Y-405144D01*
X251144Y-406424D01*
X250452Y-408095D01*
Y-409905D01*
X249792Y-411036D01*
X248324Y-411644D01*
X247044Y-412924D01*
X246352Y-414595D01*
Y-416405D01*
X247044Y-418076D01*
X248324Y-419356D01*
X249995Y-420048D01*
X251805D01*
X253476Y-419356D01*
X254503Y-418328D01*
X261012D01*
X261498Y-419502D01*
X259069Y-421931D01*
X255250D01*
X254363Y-422108D01*
X253611Y-422611D01*
X253108Y-423363D01*
X252931Y-424250D01*
Y-430069D01*
X236000Y-447000D01*
X235387Y-447918D01*
X235172Y-449000D01*
Y-470828D01*
X229877Y-476124D01*
X228800Y-475404D01*
X229048Y-474805D01*
Y-473195D01*
X228432Y-471707D01*
X227828Y-471104D01*
Y-415839D01*
X227613Y-414756D01*
X227404Y-414444D01*
X228083Y-413173D01*
X229050D01*
X230035Y-412978D01*
X230870Y-412420D01*
X231427Y-411585D01*
X231623Y-410600D01*
Y-408362D01*
X226050D01*
Y-407600D01*
X225288D01*
Y-402027D01*
X223050D01*
X222065Y-402223D01*
X221230Y-402780D01*
X220672Y-403615D01*
X220476Y-404600D01*
Y-407705D01*
X219303Y-408191D01*
X194147Y-383034D01*
X194665Y-381955D01*
X194761Y-381852D01*
X259853D01*
X262884Y-384884D01*
D02*
G37*
G36*
X297418Y-429613D02*
X298500Y-429828D01*
X299582Y-429613D01*
X300135Y-429244D01*
X301000Y-429089D01*
X301865Y-429244D01*
X302418Y-429613D01*
X303500Y-429828D01*
X304402Y-429649D01*
X304900Y-429846D01*
X305672Y-430413D01*
Y-451828D01*
X286329Y-471172D01*
X274896D01*
X274293Y-470568D01*
X272805Y-469952D01*
X271195D01*
X269707Y-470568D01*
X268844Y-469656D01*
X290500Y-448000D01*
X291113Y-447082D01*
X291328Y-446000D01*
Y-430413D01*
X292101Y-429846D01*
X292598Y-429649D01*
X293500Y-429828D01*
X294582Y-429613D01*
X295500Y-429000D01*
X296500D01*
X297418Y-429613D01*
D02*
G37*
G36*
X280521Y-419479D02*
X280672Y-420559D01*
Y-432328D01*
X268069Y-444931D01*
X265250D01*
X264363Y-445108D01*
X263610Y-445611D01*
X263108Y-446363D01*
X262931Y-447250D01*
Y-453069D01*
X173673Y-542327D01*
X172295Y-541909D01*
X172261Y-541739D01*
X240000Y-474000D01*
X240613Y-473082D01*
X240828Y-472000D01*
Y-450172D01*
X256931Y-434069D01*
X259750D01*
X260637Y-433892D01*
X261390Y-433390D01*
X261892Y-432637D01*
X262069Y-431750D01*
Y-426931D01*
X269671Y-419328D01*
X279441D01*
X280521Y-419479D01*
D02*
G37*
G36*
X285672Y-437124D02*
Y-444828D01*
X176824Y-553676D01*
X175554Y-553217D01*
Y-548446D01*
X266931Y-457069D01*
X269750D01*
X270637Y-456892D01*
X271389Y-456390D01*
X271892Y-455637D01*
X272069Y-454750D01*
Y-448931D01*
X284402Y-436598D01*
X285672Y-437124D01*
D02*
G37*
%LPC*%
G36*
X273589Y126837D02*
X263314D01*
X263255Y126826D01*
X263202Y126832D01*
X261434Y126600D01*
X259786Y125917D01*
X258371Y124831D01*
X257285Y123416D01*
X256602Y121768D01*
X256369Y120000D01*
Y115000D01*
X256602Y113232D01*
X257285Y111584D01*
X258371Y110169D01*
X259786Y109083D01*
X261434Y108400D01*
X263202Y108168D01*
X263255Y108174D01*
X263314Y108163D01*
X273589D01*
X274852Y108414D01*
X275923Y109129D01*
X276638Y110200D01*
X276889Y111462D01*
Y123538D01*
X276638Y124800D01*
X275923Y125871D01*
X274852Y126586D01*
X273589Y126837D01*
D02*
G37*
G36*
X235875Y123826D02*
X233262D01*
Y118012D01*
X238576D01*
Y121125D01*
X238370Y122159D01*
X237785Y123035D01*
X236909Y123620D01*
X235875Y123826D01*
D02*
G37*
G36*
X231738D02*
X229125D01*
X228091Y123620D01*
X227215Y123035D01*
X226630Y122159D01*
X226424Y121125D01*
Y118012D01*
X231738D01*
Y123826D01*
D02*
G37*
G36*
X164875D02*
X162262D01*
Y118012D01*
X167576D01*
Y121125D01*
X167370Y122159D01*
X166785Y123035D01*
X165909Y123620D01*
X164875Y123826D01*
D02*
G37*
G36*
X160738D02*
X158125D01*
X157091Y123620D01*
X156215Y123035D01*
X155630Y122159D01*
X155424Y121125D01*
Y118012D01*
X160738D01*
Y123826D01*
D02*
G37*
G36*
X194875D02*
X192262D01*
Y118012D01*
X197576D01*
Y121125D01*
X197370Y122159D01*
X196785Y123035D01*
X195909Y123620D01*
X194875Y123826D01*
D02*
G37*
G36*
X123875D02*
X121262D01*
Y118012D01*
X126576D01*
Y121125D01*
X126370Y122159D01*
X125785Y123035D01*
X124909Y123620D01*
X123875Y123826D01*
D02*
G37*
G36*
X190738D02*
X188125D01*
X187091Y123620D01*
X186215Y123035D01*
X185630Y122159D01*
X185424Y121125D01*
Y118012D01*
X190738D01*
Y123826D01*
D02*
G37*
G36*
X119738D02*
X117125D01*
X116091Y123620D01*
X115215Y123035D01*
X114630Y122159D01*
X114424Y121125D01*
Y118012D01*
X119738D01*
Y123826D01*
D02*
G37*
G36*
X482250Y118819D02*
X479762D01*
Y115012D01*
X484568D01*
Y116500D01*
X484392Y117387D01*
X483889Y118139D01*
X483137Y118642D01*
X482250Y118819D01*
D02*
G37*
G36*
X478238D02*
X475750D01*
X474863Y118642D01*
X474110Y118139D01*
X473608Y117387D01*
X473431Y116500D01*
Y115012D01*
X478238D01*
Y118819D01*
D02*
G37*
G36*
X407238D02*
X404750D01*
X403863Y118642D01*
X403111Y118139D01*
X402608Y117387D01*
X402431Y116500D01*
Y115012D01*
X407238D01*
Y118819D01*
D02*
G37*
G36*
X441238D02*
X438750D01*
X437863Y118642D01*
X437111Y118139D01*
X436608Y117387D01*
X436432Y116500D01*
Y115012D01*
X441238D01*
Y118819D01*
D02*
G37*
G36*
X373238D02*
X370750D01*
X369863Y118642D01*
X369111Y118139D01*
X368608Y117387D01*
X368432Y116500D01*
Y115012D01*
X373238D01*
Y118819D01*
D02*
G37*
G36*
X238576Y116488D02*
X233262D01*
Y110674D01*
X235875D01*
X236909Y110880D01*
X237785Y111465D01*
X238370Y112341D01*
X238576Y113375D01*
Y116488D01*
D02*
G37*
G36*
X231738D02*
X226424D01*
Y113375D01*
X226630Y112341D01*
X227215Y111465D01*
X228091Y110880D01*
X229125Y110674D01*
X231738D01*
Y116488D01*
D02*
G37*
G36*
X197576Y116488D02*
X192262D01*
Y110674D01*
X194875D01*
X195909Y110880D01*
X196785Y111465D01*
X197370Y112341D01*
X197576Y113375D01*
Y116488D01*
D02*
G37*
G36*
X190738D02*
X185424D01*
Y113375D01*
X185630Y112341D01*
X186215Y111465D01*
X187091Y110880D01*
X188125Y110674D01*
X190738D01*
Y116488D01*
D02*
G37*
G36*
X167576Y116488D02*
X162262D01*
Y110674D01*
X164875D01*
X165909Y110880D01*
X166785Y111465D01*
X167370Y112341D01*
X167576Y113375D01*
Y116488D01*
D02*
G37*
G36*
X160738D02*
X155424D01*
Y113375D01*
X155630Y112341D01*
X156215Y111465D01*
X157091Y110880D01*
X158125Y110674D01*
X160738D01*
Y116488D01*
D02*
G37*
G36*
X126576Y116488D02*
X121262D01*
Y110674D01*
X123875D01*
X124909Y110880D01*
X125785Y111465D01*
X126370Y112341D01*
X126576Y113375D01*
Y116488D01*
D02*
G37*
G36*
X119738D02*
X114424D01*
Y113375D01*
X114630Y112341D01*
X115215Y111465D01*
X116091Y110880D01*
X117125Y110674D01*
X119738D01*
Y116488D01*
D02*
G37*
G36*
X447569Y113488D02*
X442762D01*
Y109682D01*
X445250D01*
X446137Y109858D01*
X446889Y110361D01*
X447392Y111113D01*
X447569Y112000D01*
Y113488D01*
D02*
G37*
G36*
X441238D02*
X436432D01*
Y112000D01*
X436608Y111113D01*
X437111Y110361D01*
X437863Y109858D01*
X438750Y109682D01*
X441238D01*
Y113488D01*
D02*
G37*
G36*
X413569Y113488D02*
X408762D01*
Y109682D01*
X411250D01*
X412137Y109858D01*
X412890Y110361D01*
X413392Y111113D01*
X413569Y112000D01*
Y113488D01*
D02*
G37*
G36*
X407238D02*
X402431D01*
Y112000D01*
X402608Y111113D01*
X403111Y110361D01*
X403863Y109858D01*
X404750Y109682D01*
X407238D01*
Y113488D01*
D02*
G37*
G36*
X379569Y113488D02*
X374762D01*
Y109682D01*
X377250D01*
X378137Y109858D01*
X378890Y110361D01*
X379392Y111113D01*
X379569Y112000D01*
Y113488D01*
D02*
G37*
G36*
X373238D02*
X368432D01*
Y112000D01*
X368608Y111113D01*
X369111Y110361D01*
X369863Y109858D01*
X370750Y109682D01*
X373238D01*
Y113488D01*
D02*
G37*
G36*
X496750Y119069D02*
X489250D01*
X488363Y118892D01*
X487611Y118390D01*
X487108Y117637D01*
X486931Y116750D01*
Y112250D01*
X487108Y111363D01*
X487611Y110611D01*
X488363Y110108D01*
X489250Y109931D01*
X490137D01*
X490424Y109644D01*
X492095Y108952D01*
X493905D01*
X495576Y109644D01*
X495863Y109931D01*
X496750D01*
X497637Y110108D01*
X498389Y110611D01*
X498892Y111363D01*
X499068Y112250D01*
Y116750D01*
X498892Y117637D01*
X498389Y118390D01*
X497637Y118892D01*
X496750Y119069D01*
D02*
G37*
G36*
X484568Y113488D02*
X479000D01*
X473431D01*
Y112000D01*
X473608Y111113D01*
X474110Y110361D01*
X474863Y109858D01*
X475750Y109682D01*
X476171D01*
X476437Y109415D01*
X478100Y108726D01*
X478238D01*
Y113250D01*
X479762D01*
Y108726D01*
X479900D01*
X481563Y109415D01*
X481829Y109682D01*
X482250D01*
X483137Y109858D01*
X483889Y110361D01*
X484392Y111113D01*
X484568Y112000D01*
Y113488D01*
D02*
G37*
G36*
X333089Y126837D02*
X322814D01*
X321552Y126586D01*
X320481Y125871D01*
X319766Y124800D01*
X319515Y123538D01*
Y111462D01*
X319766Y110200D01*
X320481Y109129D01*
X321552Y108414D01*
X322814Y108163D01*
X333089D01*
X333149Y108174D01*
X333202Y108168D01*
X334970Y108400D01*
X336618Y109083D01*
X338033Y110169D01*
X339119Y111584D01*
X339802Y113232D01*
X340034Y115000D01*
Y120000D01*
X339802Y121768D01*
X339119Y123416D01*
X338033Y124831D01*
X336618Y125917D01*
X334970Y126600D01*
X333202Y126832D01*
X333149Y126826D01*
X333089Y126837D01*
D02*
G37*
G36*
X313827Y126841D02*
X302577D01*
X301251Y126577D01*
X300126Y125826D01*
X299375Y124701D01*
X299111Y123375D01*
Y111625D01*
X299375Y110299D01*
X300126Y109174D01*
X301251Y108423D01*
X302577Y108159D01*
X313827D01*
X315153Y108423D01*
X316278Y109174D01*
X317029Y110299D01*
X317293Y111625D01*
Y123375D01*
X317029Y124701D01*
X316278Y125826D01*
X315153Y126577D01*
X313827Y126841D01*
D02*
G37*
G36*
X293827D02*
X282577D01*
X281251Y126577D01*
X280126Y125826D01*
X279375Y124701D01*
X279111Y123375D01*
Y111625D01*
X279375Y110299D01*
X280126Y109174D01*
X281251Y108423D01*
X282577Y108159D01*
X293827D01*
X295153Y108423D01*
X296278Y109174D01*
X297029Y110299D01*
X297293Y111625D01*
Y123375D01*
X297029Y124701D01*
X296278Y125826D01*
X295153Y126577D01*
X293827Y126841D01*
D02*
G37*
G36*
X235875Y109326D02*
X229125D01*
X228091Y109120D01*
X227215Y108535D01*
X226630Y107659D01*
X226424Y106625D01*
Y106246D01*
X197576D01*
Y106625D01*
X197370Y107659D01*
X196785Y108535D01*
X195909Y109120D01*
X194875Y109326D01*
X188125D01*
X187091Y109120D01*
X186215Y108535D01*
X185630Y107659D01*
X185424Y106625D01*
Y98875D01*
X185630Y97841D01*
X186215Y96965D01*
X187091Y96380D01*
X188125Y96174D01*
X194875D01*
X195909Y96380D01*
X196785Y96965D01*
X197370Y97841D01*
X197576Y98875D01*
Y99254D01*
X226424D01*
Y98875D01*
X226630Y97841D01*
X227215Y96965D01*
X228004Y96438D01*
Y87652D01*
X227611Y87389D01*
X227108Y86637D01*
X226931Y85750D01*
Y78250D01*
X227108Y77363D01*
X227611Y76611D01*
X228363Y76108D01*
X229250Y75932D01*
X233750D01*
X234637Y76108D01*
X235389Y76611D01*
X235892Y77363D01*
X236069Y78250D01*
Y85750D01*
X235892Y86637D01*
X235389Y87389D01*
X234996Y87652D01*
Y96174D01*
X235875D01*
X236909Y96380D01*
X237785Y96965D01*
X238370Y97841D01*
X238576Y98875D01*
Y106625D01*
X238370Y107659D01*
X237785Y108535D01*
X236909Y109120D01*
X235875Y109326D01*
D02*
G37*
G36*
X164875D02*
X158125D01*
X157091Y109120D01*
X156215Y108535D01*
X155630Y107659D01*
X155424Y106625D01*
Y106246D01*
X126576D01*
Y106625D01*
X126370Y107659D01*
X125785Y108535D01*
X124909Y109120D01*
X123875Y109326D01*
X117125D01*
X116091Y109120D01*
X115215Y108535D01*
X114630Y107659D01*
X114424Y106625D01*
Y98875D01*
X114630Y97841D01*
X115215Y96965D01*
X116091Y96380D01*
X117004Y96198D01*
Y89500D01*
X117270Y88162D01*
X118028Y87028D01*
X120932Y84124D01*
Y79250D01*
X121108Y78363D01*
X121611Y77611D01*
X122363Y77108D01*
X123250Y76931D01*
X127750D01*
X128637Y77108D01*
X129389Y77611D01*
X129892Y78363D01*
X130069Y79250D01*
Y86750D01*
X129892Y87637D01*
X129389Y88389D01*
X128637Y88892D01*
X127750Y89068D01*
X125876D01*
X123996Y90948D01*
Y96198D01*
X124909Y96380D01*
X125785Y96965D01*
X126370Y97841D01*
X126576Y98875D01*
Y99254D01*
X155424D01*
Y98875D01*
X155630Y97841D01*
X156215Y96965D01*
X157091Y96380D01*
X158125Y96174D01*
X164875D01*
X165909Y96380D01*
X166785Y96965D01*
X167370Y97841D01*
X167576Y98875D01*
Y106625D01*
X167370Y107659D01*
X166785Y108535D01*
X165909Y109120D01*
X164875Y109326D01*
D02*
G37*
G36*
X482250Y104319D02*
X475750D01*
X474863Y104142D01*
X474110Y103639D01*
X473608Y102887D01*
X473431Y102000D01*
Y97500D01*
X473608Y96613D01*
X474110Y95861D01*
X474863Y95358D01*
X475750Y95182D01*
X482250D01*
X483137Y95358D01*
X483889Y95861D01*
X484392Y96613D01*
X484454Y96922D01*
X486997D01*
X487108Y96363D01*
X487611Y95611D01*
X488363Y95108D01*
X489250Y94931D01*
X496750D01*
X497637Y95108D01*
X498389Y95611D01*
X498892Y96363D01*
X499068Y97250D01*
Y101750D01*
X498892Y102637D01*
X498389Y103390D01*
X497637Y103892D01*
X496750Y104068D01*
X489250D01*
X488363Y103892D01*
X487611Y103390D01*
X487108Y102637D01*
X487096Y102578D01*
X484454D01*
X484392Y102887D01*
X483889Y103639D01*
X483137Y104142D01*
X482250Y104319D01*
D02*
G37*
G36*
X445250D02*
X438750D01*
X437863Y104142D01*
X437111Y103639D01*
X436608Y102887D01*
X436432Y102000D01*
Y97500D01*
X436608Y96613D01*
X437111Y95861D01*
X437863Y95358D01*
X438750Y95182D01*
X445250D01*
X446137Y95358D01*
X446889Y95861D01*
X447392Y96613D01*
X447454Y96922D01*
X449997D01*
X450108Y96363D01*
X450611Y95611D01*
X451363Y95108D01*
X452250Y94931D01*
X459750D01*
X460637Y95108D01*
X461390Y95611D01*
X461892Y96363D01*
X462069Y97250D01*
Y101750D01*
X461892Y102637D01*
X461390Y103390D01*
X460637Y103892D01*
X459750Y104068D01*
X452250D01*
X451363Y103892D01*
X450611Y103390D01*
X450108Y102637D01*
X450096Y102578D01*
X447454D01*
X447392Y102887D01*
X446889Y103639D01*
X446137Y104142D01*
X445250Y104319D01*
D02*
G37*
G36*
X411250D02*
X404750D01*
X403863Y104142D01*
X403111Y103639D01*
X402608Y102887D01*
X402431Y102000D01*
Y97500D01*
X402608Y96613D01*
X403111Y95861D01*
X403863Y95358D01*
X404750Y95182D01*
X411250D01*
X412137Y95358D01*
X412890Y95861D01*
X413392Y96613D01*
X413454Y96922D01*
X415997D01*
X416108Y96363D01*
X416611Y95611D01*
X417363Y95108D01*
X418250Y94931D01*
X425750D01*
X426637Y95108D01*
X427389Y95611D01*
X427892Y96363D01*
X428069Y97250D01*
Y101750D01*
X427892Y102637D01*
X427389Y103390D01*
X426637Y103892D01*
X425750Y104068D01*
X418250D01*
X417363Y103892D01*
X416611Y103390D01*
X416108Y102637D01*
X416096Y102578D01*
X413454D01*
X413392Y102887D01*
X412890Y103639D01*
X412137Y104142D01*
X411250Y104319D01*
D02*
G37*
G36*
X377250D02*
X370750D01*
X369863Y104142D01*
X369111Y103639D01*
X368608Y102887D01*
X368432Y102000D01*
Y97500D01*
X368608Y96613D01*
X369111Y95861D01*
X369863Y95358D01*
X370750Y95182D01*
X377250D01*
X378137Y95358D01*
X378890Y95861D01*
X379392Y96613D01*
X379454Y96922D01*
X381997D01*
X382108Y96363D01*
X382611Y95611D01*
X383363Y95108D01*
X384250Y94931D01*
X391750D01*
X392637Y95108D01*
X393390Y95611D01*
X393892Y96363D01*
X394069Y97250D01*
Y101750D01*
X393892Y102637D01*
X393390Y103390D01*
X392637Y103892D01*
X391750Y104068D01*
X384250D01*
X383363Y103892D01*
X382611Y103390D01*
X382108Y102637D01*
X382096Y102578D01*
X379454D01*
X379392Y102887D01*
X378890Y103639D01*
X378137Y104142D01*
X377250Y104319D01*
D02*
G37*
G36*
X552722Y131524D02*
X550762D01*
Y90762D01*
X591524D01*
Y92722D01*
X590813Y98118D01*
X589405Y103376D01*
X587322Y108405D01*
X584600Y113119D01*
X581286Y117437D01*
X577437Y121286D01*
X573119Y124600D01*
X568405Y127322D01*
X563376Y129405D01*
X558118Y130814D01*
X552722Y131524D01*
D02*
G37*
G36*
X549238D02*
X547278D01*
X541882Y130814D01*
X536624Y129405D01*
X531595Y127322D01*
X526881Y124600D01*
X522562Y121286D01*
X518714Y117437D01*
X515400Y113119D01*
X512678Y108405D01*
X510595Y103376D01*
X509187Y98118D01*
X508476Y92722D01*
Y90762D01*
X549238D01*
Y131524D01*
D02*
G37*
G36*
X52722D02*
X50762D01*
Y90762D01*
X91524D01*
Y92722D01*
X90814Y98118D01*
X89405Y103376D01*
X87322Y108405D01*
X84600Y113119D01*
X81286Y117437D01*
X77437Y121286D01*
X73119Y124600D01*
X68405Y127322D01*
X63376Y129405D01*
X58118Y130814D01*
X52722Y131524D01*
D02*
G37*
G36*
X49238D02*
X47278D01*
X41882Y130814D01*
X36624Y129405D01*
X31595Y127322D01*
X26881Y124600D01*
X22563Y121286D01*
X18714Y117437D01*
X15400Y113119D01*
X12678Y108405D01*
X10595Y103376D01*
X9186Y98118D01*
X8476Y92722D01*
Y90762D01*
X49238D01*
Y131524D01*
D02*
G37*
G36*
X206000Y88074D02*
X203762D01*
Y83262D01*
X208573D01*
Y85500D01*
X208378Y86485D01*
X207820Y87320D01*
X206985Y87878D01*
X206000Y88074D01*
D02*
G37*
G36*
X202238D02*
X200000D01*
X199015Y87878D01*
X198180Y87320D01*
X197622Y86485D01*
X197427Y85500D01*
Y83262D01*
X202238D01*
Y88074D01*
D02*
G37*
G36*
X157750Y88069D02*
X150250D01*
X149363Y87892D01*
X148610Y87389D01*
X148108Y86637D01*
X147931Y85750D01*
Y81250D01*
X148108Y80363D01*
X148610Y79611D01*
X149363Y79108D01*
X150250Y78931D01*
X157750D01*
X158637Y79108D01*
X159389Y79611D01*
X159892Y80363D01*
X160068Y81250D01*
Y85750D01*
X159892Y86637D01*
X159389Y87389D01*
X158637Y87892D01*
X157750Y88069D01*
D02*
G37*
G36*
X277238Y81524D02*
X277100D01*
X275437Y80835D01*
X274165Y79563D01*
X273476Y77900D01*
Y77762D01*
X277238D01*
Y81524D01*
D02*
G37*
G36*
X208573Y81738D02*
X203762D01*
Y76927D01*
X206000D01*
X206985Y77123D01*
X207820Y77680D01*
X208378Y78515D01*
X208573Y79500D01*
Y81738D01*
D02*
G37*
G36*
X202238D02*
X197427D01*
Y79500D01*
X197622Y78515D01*
X198180Y77680D01*
X199015Y77123D01*
X200000Y76927D01*
X202238D01*
Y81738D01*
D02*
G37*
G36*
X289524Y76238D02*
X285762D01*
Y72476D01*
X285900D01*
X287563Y73165D01*
X288835Y74437D01*
X289524Y76100D01*
Y76238D01*
D02*
G37*
G36*
X277238D02*
X273476D01*
Y76100D01*
X274165Y74437D01*
X275437Y73165D01*
X277100Y72476D01*
X277238D01*
Y76238D01*
D02*
G37*
G36*
X128500Y74573D02*
X126262D01*
Y69762D01*
X131073D01*
Y72000D01*
X130878Y72985D01*
X130320Y73820D01*
X129485Y74378D01*
X128500Y74573D01*
D02*
G37*
G36*
X124738D02*
X122500D01*
X121515Y74378D01*
X120680Y73820D01*
X120122Y72985D01*
X119927Y72000D01*
Y69762D01*
X124738D01*
Y74573D01*
D02*
G37*
G36*
X131073Y68238D02*
X126262D01*
Y63426D01*
X128500D01*
X129485Y63622D01*
X130320Y64180D01*
X130878Y65015D01*
X131073Y66000D01*
Y68238D01*
D02*
G37*
G36*
X124738D02*
X119927D01*
Y66000D01*
X120122Y65015D01*
X120680Y64180D01*
X121515Y63622D01*
X122500Y63426D01*
X124738D01*
Y68238D01*
D02*
G37*
G36*
X233750Y74069D02*
X229250D01*
X228363Y73892D01*
X227611Y73390D01*
X227108Y72637D01*
X226931Y71750D01*
Y64250D01*
X227108Y63363D01*
X227611Y62611D01*
X228363Y62108D01*
X229250Y61932D01*
X233750D01*
X234637Y62108D01*
X235389Y62611D01*
X235892Y63363D01*
X236069Y64250D01*
Y71750D01*
X235892Y72637D01*
X235389Y73390D01*
X234637Y73892D01*
X233750Y74069D01*
D02*
G37*
G36*
X299500Y59573D02*
X297262D01*
Y54762D01*
X302073D01*
Y57000D01*
X301878Y57985D01*
X301320Y58820D01*
X300485Y59378D01*
X299500Y59573D01*
D02*
G37*
G36*
X295738D02*
X293500D01*
X292515Y59378D01*
X291680Y58820D01*
X291122Y57985D01*
X290926Y57000D01*
Y54762D01*
X295738D01*
Y59573D01*
D02*
G37*
G36*
X591524Y89238D02*
X550762D01*
Y48476D01*
X552722D01*
X558118Y49187D01*
X563376Y50595D01*
X568405Y52678D01*
X573119Y55400D01*
X577437Y58714D01*
X581286Y62563D01*
X584600Y66881D01*
X587322Y71595D01*
X589405Y76624D01*
X590813Y81882D01*
X591524Y87278D01*
Y89238D01*
D02*
G37*
G36*
X549238D02*
X508476D01*
Y87278D01*
X509187Y81882D01*
X510595Y76624D01*
X512678Y71595D01*
X515400Y66881D01*
X518714Y62563D01*
X522562Y58714D01*
X526881Y55400D01*
X531595Y52678D01*
X536624Y50595D01*
X541882Y49187D01*
X547278Y48476D01*
X549238D01*
Y89238D01*
D02*
G37*
G36*
X91524D02*
X50762D01*
Y48476D01*
X52722D01*
X58118Y49187D01*
X63376Y50595D01*
X68405Y52678D01*
X73119Y55400D01*
X77437Y58714D01*
X81286Y62563D01*
X84600Y66881D01*
X87322Y71595D01*
X89405Y76624D01*
X90814Y81882D01*
X91524Y87278D01*
Y89238D01*
D02*
G37*
G36*
X49238D02*
X8476D01*
Y87278D01*
X9186Y81882D01*
X10595Y76624D01*
X12678Y71595D01*
X15400Y66881D01*
X18714Y62563D01*
X22563Y58714D01*
X26881Y55400D01*
X31595Y52678D01*
X36624Y50595D01*
X41882Y49187D01*
X47278Y48476D01*
X49238D01*
Y89238D01*
D02*
G37*
G36*
X314500Y59573D02*
X308500D01*
X307515Y59378D01*
X306680Y58820D01*
X306122Y57985D01*
X305927Y57000D01*
Y51000D01*
X306122Y50015D01*
X306680Y49180D01*
X307515Y48622D01*
X308500Y48426D01*
X314500D01*
X315485Y48622D01*
X316320Y49180D01*
X316878Y50015D01*
X317073Y51000D01*
Y57000D01*
X316878Y57985D01*
X316320Y58820D01*
X315485Y59378D01*
X314500Y59573D01*
D02*
G37*
G36*
X302073Y53238D02*
X297262D01*
Y48426D01*
X299500D01*
X300485Y48622D01*
X301320Y49180D01*
X301878Y50015D01*
X302073Y51000D01*
Y53238D01*
D02*
G37*
G36*
X295738D02*
X290926D01*
Y51000D01*
X291122Y50015D01*
X291680Y49180D01*
X292515Y48622D01*
X293500Y48426D01*
X295738D01*
Y53238D01*
D02*
G37*
G36*
X561846Y24024D02*
X560762D01*
Y10762D01*
X574024D01*
Y11846D01*
X573068Y15413D01*
X571222Y18611D01*
X568611Y21222D01*
X565413Y23068D01*
X561846Y24024D01*
D02*
G37*
G36*
X559238D02*
X558154D01*
X554587Y23068D01*
X551389Y21222D01*
X548778Y18611D01*
X546932Y15413D01*
X545976Y11846D01*
Y10762D01*
X559238D01*
Y24024D01*
D02*
G37*
G36*
X291750Y16069D02*
X287250D01*
X286363Y15892D01*
X285611Y15389D01*
X285108Y14637D01*
X284932Y13750D01*
Y6250D01*
X285108Y5363D01*
X285611Y4611D01*
X286363Y4108D01*
X287250Y3931D01*
X291750D01*
X292637Y4108D01*
X293389Y4611D01*
X293892Y5363D01*
X294069Y6250D01*
Y13750D01*
X293892Y14637D01*
X293389Y15389D01*
X292637Y15892D01*
X291750Y16069D01*
D02*
G37*
G36*
X386000Y4073D02*
X380000D01*
X379015Y3878D01*
X378180Y3320D01*
X377622Y2485D01*
X377525Y1996D01*
X374475D01*
X374378Y2485D01*
X373820Y3320D01*
X372985Y3878D01*
X372000Y4073D01*
X366000D01*
X365015Y3878D01*
X364180Y3320D01*
X363623Y2485D01*
X363427Y1500D01*
Y-4500D01*
X363623Y-5485D01*
X364180Y-6320D01*
X365015Y-6878D01*
X366000Y-7073D01*
X372000D01*
X372985Y-6878D01*
X373820Y-6320D01*
X374378Y-5485D01*
X374475Y-4996D01*
X377525D01*
X377622Y-5485D01*
X378180Y-6320D01*
X379015Y-6878D01*
X380000Y-7073D01*
X386000D01*
X386985Y-6878D01*
X387820Y-6320D01*
X388378Y-5485D01*
X388573Y-4500D01*
Y1500D01*
X388378Y2485D01*
X387820Y3320D01*
X386985Y3878D01*
X386000Y4073D01*
D02*
G37*
G36*
X344000Y4073D02*
X341762D01*
Y-738D01*
X346573D01*
Y1500D01*
X346378Y2485D01*
X345820Y3320D01*
X344985Y3877D01*
X344000Y4073D01*
D02*
G37*
G36*
X340238D02*
X338000D01*
X337015Y3877D01*
X336180Y3320D01*
X335622Y2485D01*
X335427Y1500D01*
Y-738D01*
X340238D01*
Y4073D01*
D02*
G37*
G36*
X358000Y4073D02*
X355762D01*
Y-738D01*
X360574D01*
Y1500D01*
X360378Y2485D01*
X359820Y3320D01*
X358985Y3878D01*
X358000Y4073D01*
D02*
G37*
G36*
X354238D02*
X352000D01*
X351015Y3878D01*
X350180Y3320D01*
X349622Y2485D01*
X349427Y1500D01*
Y-738D01*
X354238D01*
Y4073D01*
D02*
G37*
G36*
X574024Y9238D02*
X560762D01*
Y-4024D01*
X561846D01*
X565413Y-3068D01*
X568611Y-1222D01*
X571222Y1389D01*
X573068Y4587D01*
X574024Y8154D01*
Y9238D01*
D02*
G37*
G36*
X559238D02*
X545976D01*
Y8154D01*
X546932Y4587D01*
X548778Y1389D01*
X551389Y-1222D01*
X554587Y-3068D01*
X558154Y-4024D01*
X559238D01*
Y9238D01*
D02*
G37*
G36*
X360574Y-2262D02*
X355762D01*
Y-7073D01*
X358000D01*
X358985Y-6878D01*
X359820Y-6320D01*
X360378Y-5485D01*
X360574Y-4500D01*
Y-2262D01*
D02*
G37*
G36*
X354238D02*
X349427D01*
Y-4500D01*
X349622Y-5485D01*
X350180Y-6320D01*
X351015Y-6878D01*
X352000Y-7073D01*
X354238D01*
Y-2262D01*
D02*
G37*
G36*
X346573Y-2262D02*
X341762D01*
Y-7074D01*
X344000D01*
X344985Y-6878D01*
X345820Y-6320D01*
X346378Y-5485D01*
X346573Y-4500D01*
Y-2262D01*
D02*
G37*
G36*
X340238D02*
X335427D01*
Y-4500D01*
X335622Y-5485D01*
X336180Y-6320D01*
X337015Y-6878D01*
X338000Y-7074D01*
X340238D01*
Y-2262D01*
D02*
G37*
G36*
X291500Y1568D02*
X287000D01*
X286113Y1392D01*
X285361Y889D01*
X284858Y137D01*
X284681Y-750D01*
Y-7250D01*
X284858Y-8137D01*
X285361Y-8889D01*
X286113Y-9392D01*
X287000Y-9569D01*
X291500D01*
X292387Y-9392D01*
X293139Y-8889D01*
X293642Y-8137D01*
X293818Y-7250D01*
Y-6828D01*
X302397D01*
X303424Y-7856D01*
X305095Y-8548D01*
X306905D01*
X308576Y-7856D01*
X309856Y-6576D01*
X310548Y-4905D01*
Y-3095D01*
X309856Y-1424D01*
X308576Y-144D01*
X306905Y548D01*
X305095D01*
X303424Y-144D01*
X302396Y-1172D01*
X293818D01*
Y-750D01*
X293642Y137D01*
X293139Y889D01*
X292387Y1392D01*
X291500Y1568D01*
D02*
G37*
G36*
X276750Y16069D02*
X272250D01*
X271363Y15892D01*
X270611Y15389D01*
X270108Y14637D01*
X269931Y13750D01*
Y6250D01*
X270108Y5363D01*
X270611Y4611D01*
X271363Y4108D01*
X271922Y3997D01*
Y1453D01*
X271613Y1392D01*
X270861Y889D01*
X270358Y137D01*
X270182Y-750D01*
Y-7250D01*
X270358Y-8137D01*
X270861Y-8889D01*
X271613Y-9392D01*
X272500Y-9569D01*
X277000D01*
X277887Y-9392D01*
X278639Y-8889D01*
X279142Y-8137D01*
X279319Y-7250D01*
Y-750D01*
X279142Y137D01*
X278639Y889D01*
X277887Y1392D01*
X277578Y1453D01*
Y4096D01*
X277637Y4108D01*
X278389Y4611D01*
X278892Y5363D01*
X279069Y6250D01*
Y13750D01*
X278892Y14637D01*
X278389Y15389D01*
X277637Y15892D01*
X276750Y16069D01*
D02*
G37*
G36*
X386000Y-10927D02*
X383762D01*
Y-15738D01*
X388573D01*
Y-13500D01*
X388378Y-12515D01*
X387820Y-11680D01*
X386985Y-11122D01*
X386000Y-10927D01*
D02*
G37*
G36*
X382238D02*
X380000D01*
X379015Y-11122D01*
X378180Y-11680D01*
X377622Y-12515D01*
X377427Y-13500D01*
Y-15738D01*
X382238D01*
Y-10927D01*
D02*
G37*
G36*
X388573Y-17262D02*
X383762D01*
Y-22074D01*
X386000D01*
X386985Y-21878D01*
X387820Y-21320D01*
X388378Y-20485D01*
X388573Y-19500D01*
Y-17262D01*
D02*
G37*
G36*
X382238D02*
X377427D01*
Y-19500D01*
X377622Y-20485D01*
X378180Y-21320D01*
X379015Y-21878D01*
X380000Y-22074D01*
X382238D01*
Y-17262D01*
D02*
G37*
G36*
X291750Y-15932D02*
X287250D01*
X286363Y-16108D01*
X285611Y-16611D01*
X285108Y-17363D01*
X284932Y-18250D01*
Y-25750D01*
X285108Y-26637D01*
X285611Y-27390D01*
X286363Y-27892D01*
X287250Y-28068D01*
X291750D01*
X292637Y-27892D01*
X293389Y-27390D01*
X293892Y-26637D01*
X294069Y-25750D01*
Y-18250D01*
X293892Y-17363D01*
X293389Y-16611D01*
X292637Y-16108D01*
X291750Y-15932D01*
D02*
G37*
G36*
X334238Y-27476D02*
X334100D01*
X332437Y-28165D01*
X331165Y-29437D01*
X330476Y-31100D01*
Y-31238D01*
X334238D01*
Y-27476D01*
D02*
G37*
G36*
X276750Y-15932D02*
X272250D01*
X271363Y-16108D01*
X270611Y-16611D01*
X270108Y-17363D01*
X269931Y-18250D01*
Y-25750D01*
X270108Y-26637D01*
X270611Y-27390D01*
X271363Y-27892D01*
X271922Y-28003D01*
Y-30547D01*
X271613Y-30608D01*
X270861Y-31111D01*
X270358Y-31863D01*
X270182Y-32750D01*
Y-39250D01*
X270358Y-40137D01*
X270861Y-40890D01*
X271613Y-41392D01*
X272500Y-41568D01*
X277000D01*
X277887Y-41392D01*
X278639Y-40890D01*
X279142Y-40137D01*
X279319Y-39250D01*
Y-32750D01*
X279142Y-31863D01*
X278639Y-31111D01*
X277887Y-30608D01*
X277578Y-30547D01*
Y-27904D01*
X277637Y-27892D01*
X278389Y-27390D01*
X278892Y-26637D01*
X279069Y-25750D01*
Y-18250D01*
X278892Y-17363D01*
X278389Y-16611D01*
X277637Y-16108D01*
X276750Y-15932D01*
D02*
G37*
G36*
X41846Y-30976D02*
X40762D01*
Y-44238D01*
X54024D01*
Y-43154D01*
X53068Y-39587D01*
X51222Y-36389D01*
X48611Y-33778D01*
X45413Y-31932D01*
X41846Y-30976D01*
D02*
G37*
G36*
X39238D02*
X38154D01*
X34587Y-31932D01*
X31389Y-33778D01*
X28778Y-36389D01*
X26932Y-39587D01*
X25976Y-43154D01*
Y-44238D01*
X39238D01*
Y-30976D01*
D02*
G37*
G36*
X54024Y-45762D02*
X40762D01*
Y-59024D01*
X41846D01*
X45413Y-58068D01*
X48611Y-56222D01*
X51222Y-53611D01*
X53068Y-50413D01*
X54024Y-46846D01*
Y-45762D01*
D02*
G37*
G36*
X39238D02*
X25976D01*
Y-46846D01*
X26932Y-50413D01*
X28778Y-53611D01*
X31389Y-56222D01*
X34587Y-58068D01*
X38154Y-59024D01*
X39238D01*
Y-45762D01*
D02*
G37*
G36*
X41846Y-130976D02*
X40762D01*
Y-144238D01*
X54024D01*
Y-143154D01*
X53068Y-139587D01*
X51222Y-136389D01*
X48611Y-133778D01*
X45413Y-131932D01*
X41846Y-130976D01*
D02*
G37*
G36*
X39238D02*
X38154D01*
X34587Y-131932D01*
X31389Y-133778D01*
X28778Y-136389D01*
X26932Y-139587D01*
X25976Y-143154D01*
Y-144238D01*
X39238D01*
Y-130976D01*
D02*
G37*
G36*
X561846Y-125976D02*
X558154D01*
X554587Y-126932D01*
X551389Y-128778D01*
X548778Y-131389D01*
X546932Y-134587D01*
X545976Y-138154D01*
Y-141846D01*
X546932Y-145413D01*
X548778Y-148611D01*
X551389Y-151222D01*
X554587Y-153068D01*
X558154Y-154024D01*
X561846D01*
X565413Y-153068D01*
X568611Y-151222D01*
X571222Y-148611D01*
X573068Y-145413D01*
X574024Y-141846D01*
Y-138154D01*
X573068Y-134587D01*
X571222Y-131389D01*
X568611Y-128778D01*
X565413Y-126932D01*
X561846Y-125976D01*
D02*
G37*
G36*
X54024Y-145762D02*
X40762D01*
Y-159024D01*
X41846D01*
X45413Y-158068D01*
X48611Y-156222D01*
X51222Y-153611D01*
X53068Y-150413D01*
X54024Y-146846D01*
Y-145762D01*
D02*
G37*
G36*
X39238D02*
X25976D01*
Y-146846D01*
X26932Y-150413D01*
X28778Y-153611D01*
X31389Y-156222D01*
X34587Y-158068D01*
X38154Y-159024D01*
X39238D01*
Y-145762D01*
D02*
G37*
G36*
X369204Y-181856D02*
X366796D01*
X364470Y-182479D01*
X362385Y-183683D01*
X360683Y-185385D01*
X359479Y-187470D01*
X358856Y-189796D01*
Y-192204D01*
X359479Y-194529D01*
X360683Y-196614D01*
X362385Y-198317D01*
X364470Y-199521D01*
X366796Y-200144D01*
X369204D01*
X371530Y-199521D01*
X373615Y-198317D01*
X375317Y-196614D01*
X376521Y-194529D01*
X377144Y-192204D01*
Y-189796D01*
X376521Y-187470D01*
X375317Y-185385D01*
X373615Y-183683D01*
X371530Y-182479D01*
X369204Y-181856D01*
D02*
G37*
G36*
X561846Y-195976D02*
X560762D01*
Y-209238D01*
X574024D01*
Y-208154D01*
X573068Y-204587D01*
X571222Y-201389D01*
X568611Y-198778D01*
X565413Y-196932D01*
X561846Y-195976D01*
D02*
G37*
G36*
X559238D02*
X558154D01*
X554587Y-196932D01*
X551389Y-198778D01*
X548778Y-201389D01*
X546932Y-204587D01*
X545976Y-208154D01*
Y-209238D01*
X559238D01*
Y-195976D01*
D02*
G37*
G36*
X343804Y-207256D02*
X341396D01*
X339071Y-207879D01*
X336986Y-209083D01*
X335283Y-210785D01*
X334275Y-212532D01*
X333185Y-212591D01*
X332886Y-212498D01*
X332856Y-212424D01*
X331576Y-211144D01*
X329905Y-210452D01*
X328095D01*
X326424Y-211144D01*
X325144Y-212424D01*
X324452Y-214095D01*
Y-215905D01*
X325144Y-217576D01*
X326424Y-218856D01*
X328095Y-219548D01*
X329905D01*
X331576Y-218856D01*
X332286Y-218146D01*
X333703Y-218525D01*
X334079Y-219929D01*
X335283Y-222015D01*
X336986Y-223717D01*
X339071Y-224921D01*
X341396Y-225544D01*
X343804D01*
X346129Y-224921D01*
X348214Y-223717D01*
X349917Y-222015D01*
X351121Y-219929D01*
X351744Y-217604D01*
Y-215196D01*
X351121Y-212871D01*
X349917Y-210785D01*
X348214Y-209083D01*
X346129Y-207879D01*
X343804Y-207256D01*
D02*
G37*
G36*
X574024Y-210762D02*
X560762D01*
Y-224024D01*
X561846D01*
X565413Y-223068D01*
X568611Y-221222D01*
X571222Y-218611D01*
X573068Y-215413D01*
X574024Y-211846D01*
Y-210762D01*
D02*
G37*
G36*
X559238D02*
X545976D01*
Y-211846D01*
X546932Y-215413D01*
X548778Y-218611D01*
X551389Y-221222D01*
X554587Y-223068D01*
X558154Y-224024D01*
X559238D01*
Y-210762D01*
D02*
G37*
G36*
X261804Y-208256D02*
X259396D01*
X257071Y-208879D01*
X254986Y-210083D01*
X253283Y-211786D01*
X252079Y-213871D01*
X251456Y-216196D01*
Y-218604D01*
X252079Y-220930D01*
X253283Y-223015D01*
X254986Y-224717D01*
X257071Y-225921D01*
X259396Y-226544D01*
X261804D01*
X264130Y-225921D01*
X266215Y-224717D01*
X267917Y-223015D01*
X269121Y-220930D01*
X269744Y-218604D01*
Y-216196D01*
X269121Y-213871D01*
X267917Y-211786D01*
X266215Y-210083D01*
X264130Y-208879D01*
X261804Y-208256D01*
D02*
G37*
G36*
X369204Y-232656D02*
X366796D01*
X364470Y-233279D01*
X362385Y-234483D01*
X360683Y-236185D01*
X359479Y-238270D01*
X358856Y-240596D01*
Y-243004D01*
X359479Y-245329D01*
X360683Y-247414D01*
X362385Y-249117D01*
X364470Y-250321D01*
X364504Y-250330D01*
Y-257080D01*
X364363Y-257108D01*
X363611Y-257610D01*
X363108Y-258363D01*
X362932Y-259250D01*
Y-259504D01*
X359573D01*
Y-259500D01*
X359378Y-258515D01*
X358820Y-257680D01*
X357985Y-257122D01*
X357000Y-256926D01*
X351000D01*
X350015Y-257122D01*
X349180Y-257680D01*
X348622Y-258515D01*
X348427Y-259500D01*
Y-265500D01*
X348622Y-266485D01*
X349180Y-267320D01*
X350015Y-267878D01*
X351000Y-268073D01*
X357000D01*
X357985Y-267878D01*
X358820Y-267320D01*
X359370Y-266496D01*
X362932D01*
Y-266750D01*
X363108Y-267637D01*
X363611Y-268389D01*
X364363Y-268892D01*
X365250Y-269069D01*
X369750D01*
X370637Y-268892D01*
X371390Y-268389D01*
X371892Y-267637D01*
X372068Y-266750D01*
Y-259250D01*
X371892Y-258363D01*
X371496Y-257770D01*
Y-250330D01*
X371530Y-250321D01*
X373615Y-249117D01*
X375317Y-247414D01*
X376521Y-245329D01*
X377144Y-243004D01*
Y-240596D01*
X376521Y-238270D01*
X375317Y-236185D01*
X373615Y-234483D01*
X371530Y-233279D01*
X369204Y-232656D01*
D02*
G37*
G36*
X287204Y-233656D02*
X284796D01*
X282471Y-234279D01*
X280385Y-235483D01*
X278683Y-237185D01*
X277479Y-239270D01*
X276856Y-241596D01*
Y-244004D01*
X277479Y-246329D01*
X278683Y-248414D01*
X280385Y-250117D01*
X282471Y-251321D01*
X282504Y-251330D01*
Y-259770D01*
X282108Y-260363D01*
X281931Y-261250D01*
Y-261504D01*
X278573D01*
Y-261500D01*
X278377Y-260515D01*
X277820Y-259680D01*
X276985Y-259122D01*
X276000Y-258927D01*
X270000D01*
X269015Y-259122D01*
X268180Y-259680D01*
X267622Y-260515D01*
X267426Y-261500D01*
Y-267500D01*
X267622Y-268485D01*
X268180Y-269320D01*
X269015Y-269877D01*
X270000Y-270073D01*
X276000D01*
X276985Y-269877D01*
X277820Y-269320D01*
X278370Y-268496D01*
X281931D01*
Y-268750D01*
X282108Y-269637D01*
X282610Y-270389D01*
X283363Y-270892D01*
X284250Y-271068D01*
X288750D01*
X289637Y-270892D01*
X290389Y-270389D01*
X290892Y-269637D01*
X291068Y-268750D01*
Y-261250D01*
X290892Y-260363D01*
X290389Y-259611D01*
X289637Y-259108D01*
X289496Y-259080D01*
Y-251330D01*
X289529Y-251321D01*
X291615Y-250117D01*
X293317Y-248414D01*
X294521Y-246329D01*
X295144Y-244004D01*
Y-241596D01*
X294521Y-239270D01*
X293317Y-237185D01*
X291615Y-235483D01*
X289529Y-234279D01*
X287204Y-233656D01*
D02*
G37*
G36*
X384750Y-256931D02*
X383262D01*
Y-262238D01*
X387069D01*
Y-259250D01*
X386892Y-258363D01*
X386390Y-257610D01*
X385637Y-257108D01*
X384750Y-256931D01*
D02*
G37*
G36*
X381738D02*
X380250D01*
X379363Y-257108D01*
X378611Y-257610D01*
X378108Y-258363D01*
X377932Y-259250D01*
Y-262238D01*
X381738D01*
Y-256931D01*
D02*
G37*
G36*
X303750Y-258931D02*
X302262D01*
Y-264238D01*
X306069D01*
Y-261250D01*
X305892Y-260363D01*
X305389Y-259611D01*
X304637Y-259108D01*
X303750Y-258931D01*
D02*
G37*
G36*
X300738D02*
X299250D01*
X298363Y-259108D01*
X297611Y-259611D01*
X297108Y-260363D01*
X296931Y-261250D01*
Y-264238D01*
X300738D01*
Y-258931D01*
D02*
G37*
G36*
X387069Y-263762D02*
X383262D01*
Y-269069D01*
X384750D01*
X385637Y-268892D01*
X386390Y-268389D01*
X386892Y-267637D01*
X387069Y-266750D01*
Y-263762D01*
D02*
G37*
G36*
X381738D02*
X377932D01*
Y-266750D01*
X378108Y-267637D01*
X378611Y-268389D01*
X379363Y-268892D01*
X380250Y-269069D01*
X381738D01*
Y-263762D01*
D02*
G37*
G36*
X306069Y-265762D02*
X302262D01*
Y-271068D01*
X303750D01*
X304637Y-270892D01*
X305389Y-270389D01*
X305892Y-269637D01*
X306069Y-268750D01*
Y-265762D01*
D02*
G37*
G36*
X300738D02*
X296931D01*
Y-268750D01*
X297108Y-269637D01*
X297611Y-270389D01*
X298363Y-270892D01*
X299250Y-271068D01*
X300738D01*
Y-265762D01*
D02*
G37*
G36*
X385500Y-271427D02*
X383262D01*
Y-276238D01*
X388073D01*
Y-274000D01*
X387878Y-273015D01*
X387320Y-272180D01*
X386485Y-271622D01*
X385500Y-271427D01*
D02*
G37*
G36*
X381738D02*
X379500D01*
X378515Y-271622D01*
X377680Y-272180D01*
X377122Y-273015D01*
X376927Y-274000D01*
Y-276238D01*
X381738D01*
Y-271427D01*
D02*
G37*
G36*
X304500Y-273426D02*
X302262D01*
Y-278238D01*
X307073D01*
Y-276000D01*
X306878Y-275015D01*
X306320Y-274180D01*
X305485Y-273622D01*
X304500Y-273426D01*
D02*
G37*
G36*
X300738D02*
X298500D01*
X297515Y-273622D01*
X296680Y-274180D01*
X296122Y-275015D01*
X295927Y-276000D01*
Y-278238D01*
X300738D01*
Y-273426D01*
D02*
G37*
G36*
X388073Y-277762D02*
X383262D01*
Y-282573D01*
X385500D01*
X386485Y-282377D01*
X387320Y-281820D01*
X387878Y-280985D01*
X388073Y-280000D01*
Y-277762D01*
D02*
G37*
G36*
X381738D02*
X376927D01*
Y-280000D01*
X377122Y-280985D01*
X377680Y-281820D01*
X378515Y-282377D01*
X379500Y-282573D01*
X381738D01*
Y-277762D01*
D02*
G37*
G36*
X307073Y-279762D02*
X302262D01*
Y-284573D01*
X304500D01*
X305485Y-284377D01*
X306320Y-283820D01*
X306878Y-282985D01*
X307073Y-282000D01*
Y-279762D01*
D02*
G37*
G36*
X300738D02*
X295927D01*
Y-282000D01*
X296122Y-282985D01*
X296680Y-283820D01*
X297515Y-284377D01*
X298500Y-284573D01*
X300738D01*
Y-279762D01*
D02*
G37*
G36*
X385500Y-285427D02*
X383262D01*
Y-290238D01*
X388073D01*
Y-288000D01*
X387878Y-287015D01*
X387320Y-286180D01*
X386485Y-285622D01*
X385500Y-285427D01*
D02*
G37*
G36*
X381738D02*
X379500D01*
X378515Y-285622D01*
X377680Y-286180D01*
X377122Y-287015D01*
X376927Y-288000D01*
Y-290238D01*
X381738D01*
Y-285427D01*
D02*
G37*
G36*
X304500Y-287426D02*
X302262D01*
Y-292238D01*
X307073D01*
Y-290000D01*
X306878Y-289015D01*
X306320Y-288180D01*
X305485Y-287622D01*
X304500Y-287426D01*
D02*
G37*
G36*
X300738D02*
X298500D01*
X297515Y-287622D01*
X296680Y-288180D01*
X296122Y-289015D01*
X295927Y-290000D01*
Y-292238D01*
X300738D01*
Y-287426D01*
D02*
G37*
G36*
X388073Y-291762D02*
X383262D01*
Y-296573D01*
X385500D01*
X386485Y-296378D01*
X387320Y-295820D01*
X387878Y-294985D01*
X388073Y-294000D01*
Y-291762D01*
D02*
G37*
G36*
X381738D02*
X376927D01*
Y-294000D01*
X377122Y-294985D01*
X377680Y-295820D01*
X378515Y-296378D01*
X379500Y-296573D01*
X381738D01*
Y-291762D01*
D02*
G37*
G36*
X70905Y-311452D02*
X69095D01*
X67424Y-312144D01*
X66144Y-313424D01*
X65452Y-315095D01*
Y-316905D01*
X66144Y-318576D01*
X67424Y-319856D01*
X69095Y-320548D01*
X70905D01*
X72576Y-319856D01*
X73856Y-318576D01*
X74548Y-316905D01*
Y-315095D01*
X73856Y-313424D01*
X72576Y-312144D01*
X70905Y-311452D01*
D02*
G37*
G36*
X307200Y-322127D02*
X304962D01*
Y-326938D01*
X309773D01*
Y-324700D01*
X309578Y-323715D01*
X309020Y-322880D01*
X308185Y-322322D01*
X307200Y-322127D01*
D02*
G37*
G36*
X303438D02*
X301200D01*
X300215Y-322322D01*
X299380Y-322880D01*
X298822Y-323715D01*
X298626Y-324700D01*
Y-326938D01*
X303438D01*
Y-322127D01*
D02*
G37*
G36*
X41846Y-300976D02*
X38154D01*
X34587Y-301932D01*
X31389Y-303778D01*
X28778Y-306389D01*
X26932Y-309587D01*
X25976Y-313154D01*
Y-316846D01*
X26932Y-320413D01*
X28778Y-323611D01*
X31389Y-326222D01*
X34587Y-328068D01*
X38154Y-329024D01*
X41846D01*
X45413Y-328068D01*
X48611Y-326222D01*
X51222Y-323611D01*
X53068Y-320413D01*
X54024Y-316846D01*
Y-313154D01*
X53068Y-309587D01*
X51222Y-306389D01*
X48611Y-303778D01*
X45413Y-301932D01*
X41846Y-300976D01*
D02*
G37*
G36*
X309773Y-328462D02*
X304962D01*
Y-333273D01*
X307200D01*
X308185Y-333078D01*
X309020Y-332520D01*
X309578Y-331685D01*
X309773Y-330700D01*
Y-328462D01*
D02*
G37*
G36*
X303438D02*
X298626D01*
Y-330700D01*
X298822Y-331685D01*
X299380Y-332520D01*
X300215Y-333078D01*
X301200Y-333273D01*
X303438D01*
Y-328462D01*
D02*
G37*
G36*
X307200Y-336127D02*
X304962D01*
Y-340938D01*
X309773D01*
Y-338700D01*
X309578Y-337715D01*
X309020Y-336880D01*
X308185Y-336322D01*
X307200Y-336127D01*
D02*
G37*
G36*
X303438D02*
X301200D01*
X300215Y-336322D01*
X299380Y-336880D01*
X298822Y-337715D01*
X298626Y-338700D01*
Y-340938D01*
X303438D01*
Y-336127D01*
D02*
G37*
G36*
X309773Y-342462D02*
X304962D01*
Y-347273D01*
X307200D01*
X308185Y-347078D01*
X309020Y-346520D01*
X309578Y-345685D01*
X309773Y-344700D01*
Y-342462D01*
D02*
G37*
G36*
X303438D02*
X298626D01*
Y-344700D01*
X298822Y-345685D01*
X299380Y-346520D01*
X300215Y-347078D01*
X301200Y-347273D01*
X303438D01*
Y-342462D01*
D02*
G37*
G36*
X41846Y-350976D02*
X40762D01*
Y-364238D01*
X54024D01*
Y-363154D01*
X53068Y-359587D01*
X51222Y-356389D01*
X48611Y-353778D01*
X45413Y-351932D01*
X41846Y-350976D01*
D02*
G37*
G36*
X39238D02*
X38154D01*
X34587Y-351932D01*
X31389Y-353778D01*
X28778Y-356389D01*
X26932Y-359587D01*
X25976Y-363154D01*
Y-364238D01*
X39238D01*
Y-350976D01*
D02*
G37*
G36*
X538905Y-355452D02*
X537095D01*
X535424Y-356144D01*
X534144Y-357424D01*
X533452Y-359095D01*
Y-360905D01*
X534144Y-362576D01*
X535424Y-363856D01*
X537095Y-364548D01*
X538905D01*
X540576Y-363856D01*
X541856Y-362576D01*
X542548Y-360905D01*
Y-359095D01*
X541856Y-357424D01*
X540576Y-356144D01*
X538905Y-355452D01*
D02*
G37*
G36*
X561846Y-345976D02*
X558154D01*
X554587Y-346932D01*
X551389Y-348778D01*
X548778Y-351389D01*
X546932Y-354587D01*
X545976Y-358154D01*
Y-361846D01*
X546932Y-365413D01*
X548778Y-368611D01*
X551389Y-371222D01*
X554587Y-373068D01*
X558154Y-374024D01*
X561846D01*
X565413Y-373068D01*
X568611Y-371222D01*
X571222Y-368611D01*
X573068Y-365413D01*
X574024Y-361846D01*
Y-358154D01*
X573068Y-354587D01*
X571222Y-351389D01*
X568611Y-348778D01*
X565413Y-346932D01*
X561846Y-345976D01*
D02*
G37*
G36*
X54024Y-365762D02*
X40762D01*
Y-379024D01*
X41846D01*
X45413Y-378068D01*
X48611Y-376222D01*
X51222Y-373611D01*
X53068Y-370413D01*
X54024Y-366846D01*
Y-365762D01*
D02*
G37*
G36*
X39238D02*
X25976D01*
Y-366846D01*
X26932Y-370413D01*
X28778Y-373611D01*
X31389Y-376222D01*
X34587Y-378068D01*
X38154Y-379024D01*
X39238D01*
Y-365762D01*
D02*
G37*
G36*
X366500Y-420427D02*
X360500D01*
X359515Y-420622D01*
X358680Y-421180D01*
X358122Y-422015D01*
X357927Y-423000D01*
Y-429000D01*
X358122Y-429985D01*
X358680Y-430820D01*
X359515Y-431378D01*
X360500Y-431573D01*
X366500D01*
X367485Y-431378D01*
X368320Y-430820D01*
X368878Y-429985D01*
X369073Y-429000D01*
Y-423000D01*
X368878Y-422015D01*
X368320Y-421180D01*
X367485Y-420622D01*
X366500Y-420427D01*
D02*
G37*
G36*
Y-434427D02*
X364262D01*
Y-439238D01*
X369073D01*
Y-437000D01*
X368878Y-436015D01*
X368320Y-435180D01*
X367485Y-434622D01*
X366500Y-434427D01*
D02*
G37*
G36*
X362738D02*
X360500D01*
X359515Y-434622D01*
X358680Y-435180D01*
X358122Y-436015D01*
X357927Y-437000D01*
Y-439238D01*
X362738D01*
Y-434427D01*
D02*
G37*
G36*
X369073Y-440762D02*
X364262D01*
Y-445574D01*
X366500D01*
X367485Y-445378D01*
X368320Y-444820D01*
X368878Y-443985D01*
X369073Y-443000D01*
Y-440762D01*
D02*
G37*
G36*
X362738D02*
X357927D01*
Y-443000D01*
X358122Y-443985D01*
X358680Y-444820D01*
X359515Y-445378D01*
X360500Y-445574D01*
X362738D01*
Y-440762D01*
D02*
G37*
G36*
X552722Y-408476D02*
X550762D01*
Y-449238D01*
X591524D01*
Y-447278D01*
X590813Y-441882D01*
X589405Y-436624D01*
X587322Y-431595D01*
X584600Y-426881D01*
X581286Y-422563D01*
X577437Y-418714D01*
X573119Y-415400D01*
X568405Y-412678D01*
X563376Y-410595D01*
X558118Y-409187D01*
X552722Y-408476D01*
D02*
G37*
G36*
X549238D02*
X547278D01*
X541882Y-409187D01*
X536624Y-410595D01*
X531595Y-412678D01*
X526881Y-415400D01*
X522563Y-418714D01*
X518714Y-422563D01*
X515400Y-426881D01*
X512678Y-431595D01*
X510595Y-436624D01*
X509187Y-441882D01*
X508476Y-447278D01*
Y-449238D01*
X549238D01*
Y-408476D01*
D02*
G37*
G36*
X52722D02*
X50762D01*
Y-449238D01*
X91524D01*
Y-447278D01*
X90814Y-441882D01*
X89405Y-436624D01*
X87322Y-431595D01*
X84600Y-426881D01*
X81286Y-422563D01*
X77437Y-418714D01*
X73119Y-415400D01*
X68405Y-412678D01*
X63376Y-410595D01*
X58118Y-409187D01*
X52722Y-408476D01*
D02*
G37*
G36*
X49238D02*
X47278D01*
X41882Y-409187D01*
X36624Y-410595D01*
X31595Y-412678D01*
X26881Y-415400D01*
X22563Y-418714D01*
X18714Y-422563D01*
X15400Y-426881D01*
X12678Y-431595D01*
X10595Y-436624D01*
X9186Y-441882D01*
X8476Y-447278D01*
Y-449238D01*
X49238D01*
Y-408476D01*
D02*
G37*
G36*
X366500Y-448427D02*
X364262D01*
Y-453238D01*
X369073D01*
Y-451000D01*
X368878Y-450015D01*
X368320Y-449180D01*
X367485Y-448622D01*
X366500Y-448427D01*
D02*
G37*
G36*
X362738D02*
X360500D01*
X359515Y-448622D01*
X358680Y-449180D01*
X358122Y-450015D01*
X357927Y-451000D01*
Y-453238D01*
X362738D01*
Y-448427D01*
D02*
G37*
G36*
X369073Y-454762D02*
X364262D01*
Y-459574D01*
X366500D01*
X367485Y-459378D01*
X368320Y-458820D01*
X368878Y-457985D01*
X369073Y-457000D01*
Y-454762D01*
D02*
G37*
G36*
X362738D02*
X357927D01*
Y-457000D01*
X358122Y-457985D01*
X358680Y-458820D01*
X359515Y-459378D01*
X360500Y-459574D01*
X362738D01*
Y-454762D01*
D02*
G37*
G36*
X591524Y-450762D02*
X550762D01*
Y-491524D01*
X552722D01*
X558118Y-490813D01*
X563376Y-489405D01*
X568405Y-487322D01*
X573119Y-484600D01*
X577437Y-481286D01*
X581286Y-477437D01*
X584600Y-473119D01*
X587322Y-468405D01*
X589405Y-463376D01*
X590813Y-458118D01*
X591524Y-452722D01*
Y-450762D01*
D02*
G37*
G36*
X549238D02*
X508476D01*
Y-452722D01*
X509187Y-458118D01*
X510595Y-463376D01*
X512678Y-468405D01*
X515400Y-473119D01*
X518714Y-477437D01*
X522563Y-481286D01*
X526881Y-484600D01*
X531595Y-487322D01*
X536624Y-489405D01*
X541882Y-490813D01*
X547278Y-491524D01*
X549238D01*
Y-450762D01*
D02*
G37*
G36*
X91524D02*
X50762D01*
Y-491524D01*
X52722D01*
X58118Y-490813D01*
X63376Y-489405D01*
X68405Y-487322D01*
X73119Y-484600D01*
X77437Y-481286D01*
X81286Y-477437D01*
X84600Y-473119D01*
X87322Y-468405D01*
X89405Y-463376D01*
X90814Y-458118D01*
X91524Y-452722D01*
Y-450762D01*
D02*
G37*
G36*
X49238D02*
X8476D01*
Y-452722D01*
X9186Y-458118D01*
X10595Y-463376D01*
X12678Y-468405D01*
X15400Y-473119D01*
X18714Y-477437D01*
X22563Y-481286D01*
X26881Y-484600D01*
X31595Y-487322D01*
X36624Y-489405D01*
X41882Y-490813D01*
X47278Y-491524D01*
X49238D01*
Y-450762D01*
D02*
G37*
G36*
X431000Y-619926D02*
X425000D01*
X424015Y-620122D01*
X423180Y-620680D01*
X422622Y-621515D01*
X422427Y-622500D01*
Y-628500D01*
X422622Y-629485D01*
X423180Y-630320D01*
X424015Y-630878D01*
X425000Y-631073D01*
X431000D01*
X431985Y-630878D01*
X432820Y-630320D01*
X433378Y-629485D01*
X433573Y-628500D01*
Y-622500D01*
X433378Y-621515D01*
X432820Y-620680D01*
X431985Y-620122D01*
X431000Y-619926D01*
D02*
G37*
G36*
X416500Y-648426D02*
X414262D01*
Y-653238D01*
X419073D01*
Y-651000D01*
X418878Y-650015D01*
X418320Y-649180D01*
X417485Y-648622D01*
X416500Y-648426D01*
D02*
G37*
G36*
X403188Y-632976D02*
X400812D01*
X398517Y-633591D01*
X396459Y-634779D01*
X394779Y-636459D01*
X393591Y-638517D01*
X392976Y-640812D01*
Y-643188D01*
X393591Y-645483D01*
X394779Y-647541D01*
X396459Y-649221D01*
X398517Y-650409D01*
X399472Y-650665D01*
Y-677072D01*
X398925Y-677180D01*
X397760Y-677959D01*
X396981Y-679125D01*
X396707Y-680500D01*
Y-699500D01*
X396981Y-700875D01*
X397760Y-702041D01*
X398925Y-702820D01*
X400300Y-703093D01*
X404300D01*
X405675Y-702820D01*
X406841Y-702041D01*
X407620Y-700875D01*
X407893Y-699500D01*
Y-680500D01*
X407620Y-679125D01*
X406841Y-677959D01*
X405675Y-677180D01*
X405129Y-677072D01*
Y-650504D01*
X405483Y-650409D01*
X407025Y-649519D01*
X407121Y-649563D01*
X408047Y-650395D01*
X407927Y-651000D01*
Y-653238D01*
X412738D01*
Y-648426D01*
X410500D01*
X410040Y-648518D01*
X409564Y-647950D01*
X409322Y-647366D01*
X410409Y-645483D01*
X411024Y-643188D01*
Y-640812D01*
X410409Y-638517D01*
X409221Y-636459D01*
X407541Y-634779D01*
X405483Y-633591D01*
X403188Y-632976D01*
D02*
G37*
G36*
X419073Y-654762D02*
X414262D01*
Y-659573D01*
X416500D01*
X417485Y-659377D01*
X418320Y-658820D01*
X418878Y-657985D01*
X419073Y-657000D01*
Y-654762D01*
D02*
G37*
G36*
X412738D02*
X407927D01*
Y-657000D01*
X408122Y-657985D01*
X408680Y-658820D01*
X409515Y-659377D01*
X410500Y-659573D01*
X412738D01*
Y-654762D01*
D02*
G37*
G36*
X416500Y-662426D02*
X414262D01*
Y-667238D01*
X419073D01*
Y-665000D01*
X418878Y-664015D01*
X418320Y-663180D01*
X417485Y-662622D01*
X416500Y-662426D01*
D02*
G37*
G36*
X412738D02*
X410500D01*
X409515Y-662622D01*
X408680Y-663180D01*
X408122Y-664015D01*
X407927Y-665000D01*
Y-667238D01*
X412738D01*
Y-662426D01*
D02*
G37*
G36*
X419073Y-668762D02*
X414262D01*
Y-673573D01*
X416500D01*
X417485Y-673377D01*
X418320Y-672820D01*
X418878Y-671985D01*
X419073Y-671000D01*
Y-668762D01*
D02*
G37*
G36*
X412738D02*
X407927D01*
Y-671000D01*
X408122Y-671985D01*
X408680Y-672820D01*
X409515Y-673377D01*
X410500Y-673573D01*
X412738D01*
Y-668762D01*
D02*
G37*
G36*
X210000Y-676926D02*
X207762D01*
Y-681738D01*
X212573D01*
Y-679500D01*
X212377Y-678515D01*
X211819Y-677680D01*
X210985Y-677122D01*
X210000Y-676926D01*
D02*
G37*
G36*
X206238D02*
X204000D01*
X203015Y-677122D01*
X202180Y-677680D01*
X201622Y-678515D01*
X201426Y-679500D01*
Y-681738D01*
X206238D01*
Y-676926D01*
D02*
G37*
G36*
X196000D02*
X193762D01*
Y-681738D01*
X198573D01*
Y-679500D01*
X198377Y-678515D01*
X197819Y-677680D01*
X196985Y-677122D01*
X196000Y-676926D01*
D02*
G37*
G36*
X192238D02*
X190000D01*
X189015Y-677122D01*
X188180Y-677680D01*
X187622Y-678515D01*
X187426Y-679500D01*
Y-681738D01*
X192238D01*
Y-676926D01*
D02*
G37*
G36*
X212573Y-683262D02*
X207762D01*
Y-688073D01*
X210000D01*
X210985Y-687878D01*
X211819Y-687320D01*
X212377Y-686485D01*
X212573Y-685500D01*
Y-683262D01*
D02*
G37*
G36*
X206238D02*
X201426D01*
Y-685500D01*
X201622Y-686485D01*
X202180Y-687320D01*
X203015Y-687878D01*
X204000Y-688073D01*
X206238D01*
Y-683262D01*
D02*
G37*
G36*
X198573Y-683262D02*
X193762D01*
Y-688073D01*
X196000D01*
X196985Y-687878D01*
X197819Y-687320D01*
X198377Y-686485D01*
X198573Y-685500D01*
Y-683262D01*
D02*
G37*
G36*
X192238D02*
X187426D01*
Y-685500D01*
X187622Y-686485D01*
X188180Y-687320D01*
X189015Y-687878D01*
X190000Y-688073D01*
X192238D01*
Y-683262D01*
D02*
G37*
G36*
X417000Y-676907D02*
X415762D01*
Y-689238D01*
X420593D01*
Y-680500D01*
X420320Y-679125D01*
X419541Y-677959D01*
X418375Y-677180D01*
X417000Y-676907D01*
D02*
G37*
G36*
X414238D02*
X413000D01*
X411625Y-677180D01*
X410460Y-677959D01*
X409681Y-679125D01*
X409407Y-680500D01*
Y-689238D01*
X414238D01*
Y-676907D01*
D02*
G37*
G36*
X210000Y-691927D02*
X204000D01*
X203015Y-692122D01*
X202180Y-692680D01*
X201622Y-693515D01*
X201426Y-694500D01*
Y-700500D01*
X201622Y-701485D01*
X202180Y-702320D01*
X203015Y-702878D01*
X204000Y-703073D01*
X210000D01*
X210985Y-702878D01*
X211819Y-702320D01*
X212377Y-701485D01*
X212573Y-700500D01*
Y-694500D01*
X212377Y-693515D01*
X211819Y-692680D01*
X210985Y-692122D01*
X210000Y-691927D01*
D02*
G37*
G36*
X196000D02*
X190000D01*
X189015Y-692122D01*
X188180Y-692680D01*
X187622Y-693515D01*
X187426Y-694500D01*
Y-700500D01*
X187622Y-701485D01*
X188180Y-702320D01*
X189015Y-702878D01*
X190000Y-703073D01*
X196000D01*
X196985Y-702878D01*
X197819Y-702320D01*
X198377Y-701485D01*
X198573Y-700500D01*
Y-694500D01*
X198377Y-693515D01*
X197819Y-692680D01*
X196985Y-692122D01*
X196000Y-691927D01*
D02*
G37*
G36*
X431000Y-634927D02*
X425000D01*
X424015Y-635122D01*
X423180Y-635680D01*
X422622Y-636515D01*
X422427Y-637500D01*
Y-643500D01*
X422622Y-644485D01*
X423180Y-645320D01*
X424015Y-645878D01*
X425000Y-646074D01*
X425172D01*
Y-648492D01*
X424515Y-648622D01*
X423680Y-649180D01*
X423122Y-650015D01*
X422927Y-651000D01*
Y-657000D01*
X423122Y-657985D01*
X423680Y-658820D01*
X424515Y-659377D01*
X425172Y-659508D01*
Y-662492D01*
X424515Y-662622D01*
X423680Y-663180D01*
X423122Y-664015D01*
X422927Y-665000D01*
Y-671000D01*
X423122Y-671985D01*
X423680Y-672820D01*
X424515Y-673377D01*
X425172Y-673508D01*
Y-677012D01*
X424325Y-677180D01*
X423159Y-677959D01*
X422381Y-679125D01*
X422107Y-680500D01*
Y-699500D01*
X422381Y-700875D01*
X423159Y-702041D01*
X424325Y-702820D01*
X425700Y-703093D01*
X429700D01*
X431075Y-702820D01*
X432241Y-702041D01*
X433020Y-700875D01*
X433293Y-699500D01*
Y-680500D01*
X433020Y-679125D01*
X432241Y-677959D01*
X431075Y-677180D01*
X430828Y-677131D01*
Y-673573D01*
X431500D01*
X432485Y-673377D01*
X433320Y-672820D01*
X433878Y-671985D01*
X434073Y-671000D01*
Y-665000D01*
X433878Y-664015D01*
X433320Y-663180D01*
X432485Y-662622D01*
X431500Y-662426D01*
X430828D01*
Y-659573D01*
X431500D01*
X432485Y-659377D01*
X433320Y-658820D01*
X433878Y-657985D01*
X434073Y-657000D01*
Y-651000D01*
X433878Y-650015D01*
X433320Y-649180D01*
X432485Y-648622D01*
X431500Y-648426D01*
X430828D01*
Y-646074D01*
X431000D01*
X431985Y-645878D01*
X432820Y-645320D01*
X433378Y-644485D01*
X433573Y-643500D01*
Y-637500D01*
X433378Y-636515D01*
X432820Y-635680D01*
X431985Y-635122D01*
X431000Y-634927D01*
D02*
G37*
G36*
X420593Y-690762D02*
X415762D01*
Y-703093D01*
X417000D01*
X418375Y-702820D01*
X419541Y-702041D01*
X420320Y-700875D01*
X420593Y-699500D01*
Y-690762D01*
D02*
G37*
G36*
X414238D02*
X409407D01*
Y-699500D01*
X409681Y-700875D01*
X410460Y-702041D01*
X411625Y-702820D01*
X413000Y-703093D01*
X414238D01*
Y-690762D01*
D02*
G37*
G36*
X199000Y-708417D02*
X196000D01*
X194820Y-708652D01*
X193820Y-709320D01*
X193151Y-710320D01*
X192917Y-711500D01*
Y-718500D01*
X193151Y-719680D01*
X193820Y-720680D01*
X194820Y-721348D01*
X196000Y-721583D01*
X199000D01*
X200180Y-721348D01*
X201180Y-720680D01*
X201848Y-719680D01*
X202083Y-718500D01*
Y-711500D01*
X201848Y-710320D01*
X201180Y-709320D01*
X200180Y-708652D01*
X199000Y-708417D01*
D02*
G37*
G36*
X302000Y-82927D02*
X299762D01*
Y-87738D01*
X304573D01*
Y-85500D01*
X304377Y-84515D01*
X303820Y-83680D01*
X302985Y-83122D01*
X302000Y-82927D01*
D02*
G37*
G36*
X298238D02*
X296000D01*
X295015Y-83122D01*
X294180Y-83680D01*
X293622Y-84515D01*
X293426Y-85500D01*
Y-87738D01*
X298238D01*
Y-82927D01*
D02*
G37*
G36*
X304573Y-89262D02*
X299762D01*
Y-94073D01*
X302000D01*
X302985Y-93878D01*
X303820Y-93320D01*
X304377Y-92485D01*
X304573Y-91500D01*
Y-89262D01*
D02*
G37*
G36*
X298238D02*
X293426D01*
Y-91500D01*
X293622Y-92485D01*
X294180Y-93320D01*
X295015Y-93878D01*
X296000Y-94073D01*
X298238D01*
Y-89262D01*
D02*
G37*
G36*
X340524Y-93762D02*
X336762D01*
Y-97524D01*
X336900D01*
X338563Y-96835D01*
X339835Y-95563D01*
X340524Y-93900D01*
Y-93762D01*
D02*
G37*
G36*
X335238D02*
X331476D01*
Y-93900D01*
X332165Y-95563D01*
X333437Y-96835D01*
X335100Y-97524D01*
X335238D01*
Y-93762D01*
D02*
G37*
G36*
X184000Y-307927D02*
X181762D01*
Y-312738D01*
X186573D01*
Y-310500D01*
X186378Y-309515D01*
X185820Y-308680D01*
X184985Y-308122D01*
X184000Y-307927D01*
D02*
G37*
G36*
X216000Y-307927D02*
X213762D01*
Y-312738D01*
X218573D01*
Y-310500D01*
X218378Y-309515D01*
X217820Y-308680D01*
X216985Y-308123D01*
X216000Y-307927D01*
D02*
G37*
G36*
X230750Y-308932D02*
X223250D01*
X222363Y-309108D01*
X221611Y-309611D01*
X221108Y-310363D01*
X220931Y-311250D01*
Y-315750D01*
X221108Y-316637D01*
X221611Y-317390D01*
X222363Y-317892D01*
X223250Y-318069D01*
X230750D01*
X231637Y-317892D01*
X232390Y-317390D01*
X232892Y-316637D01*
X233069Y-315750D01*
Y-311250D01*
X232892Y-310363D01*
X232390Y-309611D01*
X231637Y-309108D01*
X230750Y-308932D01*
D02*
G37*
G36*
X186573Y-314262D02*
X181762D01*
Y-319074D01*
X184000D01*
X184985Y-318878D01*
X185820Y-318320D01*
X186378Y-317485D01*
X186573Y-316500D01*
Y-314262D01*
D02*
G37*
G36*
X218573Y-314262D02*
X213762D01*
Y-319074D01*
X216000D01*
X216985Y-318878D01*
X217820Y-318320D01*
X218378Y-317485D01*
X218573Y-316500D01*
Y-314262D01*
D02*
G37*
G36*
X243050Y-402027D02*
X240812D01*
Y-406838D01*
X245623D01*
Y-404600D01*
X245428Y-403615D01*
X244870Y-402780D01*
X244035Y-402223D01*
X243050Y-402027D01*
D02*
G37*
G36*
X229050D02*
X226812D01*
Y-406838D01*
X231623D01*
Y-404600D01*
X231427Y-403615D01*
X230870Y-402780D01*
X230035Y-402223D01*
X229050Y-402027D01*
D02*
G37*
G36*
X239288D02*
X237050D01*
X236065Y-402223D01*
X235230Y-402780D01*
X234672Y-403615D01*
X234477Y-404600D01*
Y-406838D01*
X239288D01*
Y-402027D01*
D02*
G37*
G36*
X245623Y-408362D02*
X240812D01*
Y-413173D01*
X243050D01*
X244035Y-412978D01*
X244870Y-412420D01*
X245428Y-411585D01*
X245623Y-410600D01*
Y-408362D01*
D02*
G37*
G36*
X239288D02*
X234477D01*
Y-410600D01*
X234672Y-411585D01*
X235230Y-412420D01*
X236065Y-412978D01*
X237050Y-413173D01*
X239288D01*
Y-408362D01*
D02*
G37*
G36*
X244750Y-421931D02*
X240250D01*
X239363Y-422108D01*
X238610Y-422611D01*
X238108Y-423363D01*
X237931Y-424250D01*
Y-431750D01*
X238108Y-432637D01*
X238610Y-433390D01*
X239363Y-433892D01*
X240250Y-434069D01*
X244750D01*
X245637Y-433892D01*
X246389Y-433390D01*
X246892Y-432637D01*
X247069Y-431750D01*
Y-424250D01*
X246892Y-423363D01*
X246389Y-422611D01*
X245637Y-422108D01*
X244750Y-421931D01*
D02*
G37*
G36*
X254750Y-444931D02*
X250250D01*
X249363Y-445108D01*
X248610Y-445611D01*
X248108Y-446363D01*
X247931Y-447250D01*
Y-454750D01*
X248108Y-455637D01*
X248610Y-456390D01*
X249363Y-456892D01*
X250250Y-457069D01*
X254750D01*
X255637Y-456892D01*
X256389Y-456390D01*
X256892Y-455637D01*
X257069Y-454750D01*
Y-451913D01*
X257072Y-451905D01*
Y-450095D01*
X257069Y-450087D01*
Y-447250D01*
X256892Y-446363D01*
X256389Y-445611D01*
X255637Y-445108D01*
X254750Y-444931D01*
D02*
G37*
%LPD*%
D12*
X349000Y69619D02*
Y123382D01*
Y69619D02*
X406000Y12618D01*
X414048Y-123334D02*
Y15952D01*
X353976Y70333D02*
Y122667D01*
X358000Y72000D02*
Y121000D01*
X353976Y70333D02*
X410024Y14285D01*
Y-121667D02*
Y14285D01*
X358000Y72000D02*
X414048Y15952D01*
X428000Y-689700D02*
Y-640500D01*
X427700Y-690000D02*
X428000Y-689700D01*
X541000Y-266000D02*
Y-109000D01*
X560000Y-90000D01*
X529404Y-268596D02*
Y-70596D01*
X560000Y-40000D01*
X410500Y-396500D02*
X541000Y-266000D01*
X406500Y-391500D02*
X529404Y-268596D01*
X325250Y-391500D02*
X406500D01*
X325250Y-396500D02*
X410500D01*
X418500Y-401500D02*
X560000Y-260000D01*
X325250Y-401500D02*
X418500D01*
X325250Y-406500D02*
X463500D01*
X560000Y-310000D01*
X325250Y-411500D02*
X334000D01*
X348500Y-426000D01*
X97000Y-215000D02*
X155556Y-273556D01*
X40000Y-215000D02*
X97000D01*
X155556Y-348444D02*
Y-273556D01*
X151000Y-350000D02*
Y-275000D01*
X218000Y-480000D02*
Y-417000D01*
X151000Y-350000D02*
X218000Y-417000D01*
X40000Y-265000D02*
X141000D01*
X155556Y-348444D02*
X221487Y-414374D01*
X141000Y-265000D02*
X151000Y-275000D01*
X221487Y-414374D02*
X223535D01*
X225000Y-415839D01*
X168048Y-340976D02*
X192072Y-365000D01*
X225000Y-474000D02*
Y-415839D01*
X196036Y-374655D02*
X264655D01*
X168048Y-340976D02*
Y-200952D01*
X194715Y-379024D02*
X261024D01*
X160000Y-344309D02*
X194715Y-379024D01*
X192072Y-365000D02*
X280000D01*
X164024Y-342643D02*
X196036Y-374655D01*
X164024Y-342643D02*
Y-195976D01*
X160000Y-344309D02*
Y-192000D01*
X272000Y-474000D02*
X287500D01*
X308500Y-453000D01*
X266000Y-480000D02*
X291000D01*
X313500Y-457500D01*
X168702Y-729337D02*
Y-541298D01*
X238000Y-472000D02*
Y-449000D01*
X168702Y-541298D02*
X238000Y-472000D01*
Y-449000D02*
X256500Y-430500D01*
X288500Y-446000D02*
Y-423250D01*
X178500Y-556000D02*
X288500Y-446000D01*
X267500Y-452500D02*
Y-451000D01*
X265750Y-454250D02*
X267500Y-452500D01*
X265750Y-454250D02*
X265750D01*
X172726Y-547274D02*
X265750Y-454250D01*
X172726Y-723785D02*
Y-547274D01*
X267483Y-449517D02*
X283500Y-433500D01*
X256500Y-428500D02*
X268500Y-416500D01*
X256500Y-430500D02*
Y-428500D01*
X356618Y131000D02*
X438000D01*
X454500Y114500D01*
X353976Y122667D02*
X358285Y126976D01*
X408024D01*
X420500Y114500D01*
X349000Y123382D02*
X356618Y131000D01*
X378366Y122952D02*
X384750Y116568D01*
X358000Y121000D02*
X359952Y122952D01*
X378366D01*
X386500Y114500D02*
X388000D01*
X384750Y116250D02*
X386500Y114500D01*
X384750Y116250D02*
Y116568D01*
X406000Y-120000D02*
Y12618D01*
X219123Y-173333D02*
Y-138000D01*
X236823Y-120300D02*
X253650D01*
X219123Y-138000D02*
X236823Y-120300D01*
X160000Y-192000D02*
X184000Y-168000D01*
X164024Y-195976D02*
X185000Y-175000D01*
X168048Y-200952D02*
X188868Y-180132D01*
X231000Y-168000D02*
X358000D01*
X357140Y-174551D02*
X410024Y-121667D01*
X224758Y-174551D02*
X357140D01*
X358000Y-168000D02*
X406000Y-120000D01*
X356786Y-180596D02*
X414048Y-123334D01*
X226524Y-180596D02*
X356786D01*
X215099Y-121210D02*
X237309Y-99000D01*
X316000D02*
X326000Y-89000D01*
X237309Y-99000D02*
X316000D01*
X215099Y-175000D02*
X215120Y-175021D01*
X199024Y-227641D02*
Y-181688D01*
X211075Y-176667D02*
Y-119544D01*
X211096Y-221096D02*
Y-176688D01*
X181000Y-95000D02*
X194979Y-108979D01*
X207051Y-178334D02*
X207072Y-178355D01*
X215099Y-175000D02*
Y-121210D01*
X219123Y-173333D02*
X219144Y-173355D01*
X203048Y-225048D02*
Y-180022D01*
X203027Y-180001D02*
Y20973D01*
X207072Y-222763D02*
Y-178355D01*
X203027Y-180001D02*
X203048Y-180022D01*
X193785Y35905D02*
X207051Y22640D01*
X215120Y-218120D02*
Y-175021D01*
X211075Y-119544D02*
X272619Y-58000D01*
X211075Y-176667D02*
X211096Y-176688D01*
X207051Y-178334D02*
Y22640D01*
X195000Y-270500D02*
Y-188875D01*
X219144Y-216453D02*
Y-173355D01*
X155500Y68500D02*
X203027Y20973D01*
X199003Y-181667D02*
X199024Y-181688D01*
X194979Y-188854D02*
X195000Y-188875D01*
X199003Y-181667D02*
Y-107312D01*
X194979Y-188854D02*
Y-108979D01*
X182667Y-90976D02*
X199003Y-107312D01*
X370000Y-68000D02*
X370000Y-68000D01*
X354750Y-68000D02*
X370000D01*
X454500Y114500D02*
X456000D01*
X420500D02*
X422000D01*
X215120Y-218120D02*
X256202Y-259202D01*
X211096Y-221096D02*
X250500Y-260500D01*
X272619Y-58000D02*
X314000D01*
X250500Y-340000D02*
Y-260500D01*
X40000Y-95000D02*
X181000D01*
X136667Y-90976D02*
X182667D01*
X135976D02*
X136667D01*
X199024Y-227641D02*
X227000Y-255617D01*
X207072Y-222763D02*
X244024Y-259715D01*
X203048Y-225048D02*
X240000Y-262000D01*
X40000Y5000D02*
X135976Y-90976D01*
X219144Y-216453D02*
X262096Y-259405D01*
X256202Y-333904D02*
Y-259202D01*
X262096Y-340000D02*
Y-259405D01*
X240000Y-347000D02*
Y-262000D01*
X244024Y-345333D02*
Y-259715D01*
X227000Y-270500D02*
Y-255617D01*
X336000Y-93000D02*
X336000Y-93000D01*
Y-81750D01*
X264655Y-374655D02*
X271500Y-381500D01*
X313500Y-457500D02*
Y-423250D01*
X308500Y-453000D02*
Y-423250D01*
X178500Y-715000D02*
Y-556000D01*
X174000Y-321500D02*
X211572Y-359072D01*
X174000Y-305500D02*
X181000Y-298500D01*
X174000Y-321500D02*
Y-305500D01*
X204000Y-307500D02*
X213000Y-298500D01*
X204000Y-333048D02*
Y-307500D01*
X226000Y-355048D02*
X282430D01*
X204000Y-333048D02*
X226000Y-355048D01*
X240000Y-347000D02*
X244024Y-351024D01*
X244024Y-345333D02*
X245691Y-347000D01*
X332500Y-381500D02*
X367500Y-346500D01*
Y-291000D01*
X295500Y-302000D02*
X309000D01*
X326500Y-356500D02*
Y-319500D01*
X309000Y-302000D02*
X326500Y-319500D01*
X286500Y-293000D02*
X295500Y-302000D01*
X325250Y-381500D02*
X332500D01*
X244024Y-351024D02*
X285024D01*
X256202Y-333904D02*
X256298Y-334000D01*
X245691Y-347000D02*
X286691D01*
X193785Y35905D02*
Y66035D01*
X195250Y67500D02*
X203000D01*
X193785Y66035D02*
X195250Y67500D01*
X325250Y-386500D02*
X337500D01*
X347000Y-377000D01*
X402300Y-690000D02*
Y-642300D01*
X402000Y-642000D02*
X402300Y-642300D01*
X318500Y-374750D02*
Y-364500D01*
X326500Y-356500D01*
X261024Y-379024D02*
X268500Y-386500D01*
X276750D01*
X271500Y-381500D02*
X276750D01*
X262096Y-390702D02*
X263043D01*
X251449Y-392600D02*
X255349Y-396500D01*
X263841Y-391500D02*
X276750D01*
X255349Y-396500D02*
X276750D01*
X240050Y-392600D02*
X251449D01*
X263043Y-390702D02*
X263841Y-391500D01*
X226050Y-392600D02*
X240050D01*
X280000Y-365000D02*
X283500Y-368500D01*
Y-374750D02*
Y-368500D01*
X255714Y-409000D02*
X258214Y-406500D01*
X276750D01*
X255000Y-409000D02*
X255714D01*
X314000Y66000D02*
X338309D01*
X393976Y10333D01*
X304702Y75298D02*
X314000Y66000D01*
X311000Y78000D02*
X311202Y78202D01*
X346000Y-29214D02*
X346330Y-28884D01*
X346000Y-32000D02*
Y-29214D01*
X346330Y-28884D02*
Y-26670D01*
X346000Y-44250D02*
Y-32000D01*
X346000Y-32000D01*
X346330Y-26670D02*
X347000Y-26000D01*
X341000Y-44250D02*
Y-36493D01*
X341000Y-36492D01*
Y-16500D01*
X335000Y-32947D02*
X336000Y-33947D01*
X335000Y-32947D02*
Y-32000D01*
X336000Y-44250D02*
Y-33947D01*
X329000Y-36000D02*
X331000Y-38000D01*
X289250Y-36000D02*
X329000D01*
X331000Y-44250D02*
Y-38000D01*
X331000Y72000D02*
X338000D01*
X398000Y12000D01*
X346000Y-45000D02*
X352000D01*
X299000Y-73409D02*
Y-64700D01*
Y-73500D02*
Y-73409D01*
X299409Y-73000D01*
X298955Y-73454D02*
X299000Y-73409D01*
X299409Y-73000D02*
X317250D01*
X299000Y-64700D02*
X299100Y-64600D01*
X314000Y-58000D02*
X317250D01*
X314000Y-58000D02*
X314000Y-58000D01*
X304150Y-341750D02*
X304200Y-341700D01*
X304150Y-354450D02*
Y-341750D01*
X308500Y-374750D02*
Y-358800D01*
X304150Y-354450D02*
X308500Y-358800D01*
X319200Y-352900D02*
Y-341700D01*
X313500Y-358600D02*
X319200Y-352900D01*
X313500Y-374750D02*
Y-358600D01*
X303500Y-374750D02*
Y-363809D01*
X286691Y-347000D02*
X303500Y-363809D01*
X246150Y-401500D02*
X276750D01*
X240050Y-407600D02*
X246150Y-401500D01*
X250900Y-415500D02*
X263200D01*
X267200Y-411500D02*
X276750D01*
X263200Y-415500D02*
X267200Y-411500D01*
X274750Y-4000D02*
Y9750D01*
X274500Y10000D02*
X274750Y9750D01*
Y-36000D02*
Y-22250D01*
X274500Y-22000D02*
X274750Y-22250D01*
X304702Y75298D02*
Y90500D01*
X298000Y72000D02*
X298202Y72202D01*
Y90500D01*
X348000Y-454500D02*
X348500Y-454000D01*
X393976Y-25024D02*
Y10333D01*
X354750Y-58000D02*
X361000D01*
X361691Y-63000D02*
X398000Y-26691D01*
Y12000D01*
X354750Y-63000D02*
X361691D01*
X361000Y-58000D02*
X393976Y-25024D01*
X354750Y-53000D02*
Y-47750D01*
X352000Y-45000D02*
X354750Y-47750D01*
X326000Y-89000D02*
Y-81750D01*
X268500Y-416500D02*
X276750D01*
X283500Y-433500D02*
Y-423250D01*
X211572Y-359072D02*
X280763D01*
X282430Y-355048D02*
X293500Y-366119D01*
X280763Y-359072D02*
X288500Y-366809D01*
X285024Y-351024D02*
X298500Y-364500D01*
X168702Y-729337D02*
X178500Y-739135D01*
X172726Y-723785D02*
X175940Y-727000D01*
X193000D01*
X197500Y-741000D02*
Y-731500D01*
X193000Y-727000D02*
X197500Y-731500D01*
X178500Y-741000D02*
Y-739135D01*
X293500Y-374750D02*
Y-366119D01*
X288500Y-374750D02*
Y-366809D01*
X298500Y-374750D02*
Y-364500D01*
X154000Y68500D02*
X155500D01*
X213000Y-298500D02*
X227000D01*
X348500Y-454000D02*
Y-440000D01*
Y-426000D01*
X479000Y99750D02*
X492750D01*
X493000Y99500D01*
X442000Y99750D02*
X455750D01*
X456000Y99500D01*
X408000Y99750D02*
X421750D01*
X422000Y99500D01*
X374000Y99750D02*
X387750D01*
X388000Y99500D01*
X319200Y-327700D02*
X319700Y-328200D01*
X289250Y-4000D02*
X306000D01*
X306000Y-4000D01*
X286500Y-293000D02*
Y-279000D01*
X273000Y-279500D02*
X286000D01*
X286500Y-279000D01*
X227000Y-298500D02*
Y-285500D01*
Y-298500D02*
X227000Y-298500D01*
D16*
X284000Y-99000D02*
D03*
X272619Y-58000D02*
D03*
X402000Y-642000D02*
D03*
X367000Y-310000D02*
D03*
X317000D02*
D03*
D17*
X428000Y-625500D02*
D03*
Y-640500D02*
D03*
X213000Y-298500D02*
D03*
Y-313500D02*
D03*
X354000Y-277500D02*
D03*
Y-262500D02*
D03*
X299000Y-73500D02*
D03*
Y-88500D02*
D03*
X369000Y-16500D02*
D03*
Y-1500D02*
D03*
X383000D02*
D03*
Y-16500D02*
D03*
X341000Y-16500D02*
D03*
Y-1500D02*
D03*
X355000Y-16500D02*
D03*
Y-1500D02*
D03*
X207000Y-697500D02*
D03*
Y-682500D02*
D03*
X193000Y-697500D02*
D03*
Y-682500D02*
D03*
X273000Y-264500D02*
D03*
Y-279500D02*
D03*
X181000Y-313500D02*
D03*
Y-298500D02*
D03*
X203000Y82500D02*
D03*
Y67500D02*
D03*
X240050Y-407600D02*
D03*
Y-392600D02*
D03*
X226050Y-407600D02*
D03*
Y-392600D02*
D03*
D18*
X227000Y-298500D02*
D03*
Y-313500D02*
D03*
X195000Y-298500D02*
D03*
Y-313500D02*
D03*
Y-270500D02*
D03*
Y-285500D02*
D03*
X154000Y83500D02*
D03*
Y68500D02*
D03*
X227000Y-270500D02*
D03*
Y-285500D02*
D03*
X493000Y99500D02*
D03*
Y114500D02*
D03*
X456000Y99500D02*
D03*
Y114500D02*
D03*
X422000Y99500D02*
D03*
Y114500D02*
D03*
X388000Y99500D02*
D03*
Y114500D02*
D03*
D19*
X367500Y-263000D02*
D03*
X382500D02*
D03*
X267500Y-451000D02*
D03*
X252500D02*
D03*
X289500Y-22000D02*
D03*
X274500D02*
D03*
X289500Y10000D02*
D03*
X274500D02*
D03*
X242500Y-428000D02*
D03*
X257500D02*
D03*
X125500Y83000D02*
D03*
X140500D02*
D03*
X301500Y-265000D02*
D03*
X286500D02*
D03*
X231500Y82000D02*
D03*
X216500D02*
D03*
X231500Y68000D02*
D03*
X216500D02*
D03*
D20*
X367500Y-277000D02*
D03*
X382500D02*
D03*
X367500Y-291000D02*
D03*
X382500D02*
D03*
X319200Y-341700D02*
D03*
X304200D02*
D03*
X363500Y-426000D02*
D03*
X348500D02*
D03*
X125500Y69000D02*
D03*
X140500D02*
D03*
X301500Y-279000D02*
D03*
X286500D02*
D03*
X301500Y-293000D02*
D03*
X286500D02*
D03*
X304200Y-327700D02*
D03*
X319200D02*
D03*
X363500Y-440000D02*
D03*
X348500D02*
D03*
X363500Y-454000D02*
D03*
X348500D02*
D03*
X413500Y-654000D02*
D03*
X428500D02*
D03*
X413500Y-668000D02*
D03*
X428500D02*
D03*
X296500Y54000D02*
D03*
X311500D02*
D03*
D21*
X326000Y-81750D02*
D03*
X331000D02*
D03*
X336000D02*
D03*
X341000D02*
D03*
X346000D02*
D03*
Y-44250D02*
D03*
X341000D02*
D03*
X336000D02*
D03*
X331000D02*
D03*
X326000D02*
D03*
D22*
X354750Y-73000D02*
D03*
Y-68000D02*
D03*
Y-63000D02*
D03*
Y-58000D02*
D03*
Y-53000D02*
D03*
X317250D02*
D03*
Y-58000D02*
D03*
Y-63000D02*
D03*
Y-68000D02*
D03*
Y-73000D02*
D03*
D23*
X336000Y-63000D02*
D03*
D24*
X289250Y-36000D02*
D03*
X274750D02*
D03*
X289250Y-4000D02*
D03*
X274750D02*
D03*
D25*
X415000Y-690000D02*
D03*
X402300D02*
D03*
X427700D02*
D03*
D26*
X178500Y-741000D02*
D03*
X188000D02*
D03*
X197500D02*
D03*
Y-715000D02*
D03*
X178500D02*
D03*
D27*
X301000Y-399000D02*
D03*
D28*
X276750Y-416500D02*
D03*
Y-411500D02*
D03*
Y-406500D02*
D03*
Y-401500D02*
D03*
Y-396500D02*
D03*
Y-391500D02*
D03*
Y-386500D02*
D03*
Y-381500D02*
D03*
X325250D02*
D03*
Y-386500D02*
D03*
Y-391500D02*
D03*
Y-396500D02*
D03*
Y-401500D02*
D03*
Y-406500D02*
D03*
Y-411500D02*
D03*
Y-416500D02*
D03*
D29*
X283500Y-374750D02*
D03*
X288500D02*
D03*
X293500D02*
D03*
X298500D02*
D03*
X303500D02*
D03*
X308500D02*
D03*
X313500D02*
D03*
X318500D02*
D03*
Y-423250D02*
D03*
X313500D02*
D03*
X308500D02*
D03*
X303500D02*
D03*
X298500D02*
D03*
X293500D02*
D03*
X288500D02*
D03*
X283500D02*
D03*
D30*
X161500Y102750D02*
D03*
Y117250D02*
D03*
X120500Y102750D02*
D03*
Y117250D02*
D03*
X232500Y102750D02*
D03*
Y117250D02*
D03*
X191500Y102750D02*
D03*
Y117250D02*
D03*
D31*
X327952Y117500D02*
D03*
X268452D02*
D03*
D32*
X298202Y90500D02*
D03*
X291702D02*
D03*
X285202D02*
D03*
X304702D02*
D03*
X311202D02*
D03*
D33*
X288202Y117500D02*
D03*
X308202D02*
D03*
D34*
X479000Y99750D02*
D03*
Y114250D02*
D03*
X442000Y99750D02*
D03*
Y114250D02*
D03*
X408000Y99750D02*
D03*
Y114250D02*
D03*
X374000Y99750D02*
D03*
Y114250D02*
D03*
D63*
X368000Y-262500D02*
Y-241800D01*
X367500Y-263000D02*
X368000Y-262500D01*
X354000D02*
X354500Y-263000D01*
X367500D01*
X367000Y-277500D02*
X367500Y-277000D01*
X354000Y-277500D02*
X367000D01*
X367500Y-291000D02*
Y-277000D01*
X369000Y-1500D02*
X383000D01*
X203500Y68000D02*
X216500D01*
X203000Y67500D02*
X203500Y68000D01*
X216500D02*
Y82000D01*
X231500D02*
Y101750D01*
X232500Y102750D01*
X319200Y-341700D02*
Y-327700D01*
X355000Y-16500D02*
X369000D01*
X341000Y-16500D02*
X355000D01*
X355000Y-16500D01*
X231500Y80500D02*
Y82000D01*
X140500Y69000D02*
X153500D01*
X154000Y68500D01*
X140500Y69000D02*
Y83000D01*
X140500Y69000D02*
X140500Y69000D01*
X125500Y83000D02*
Y84500D01*
X120500Y89500D02*
X125500Y84500D01*
X120500Y89500D02*
Y102750D01*
X161500D01*
X120500Y117250D02*
X161500D01*
X191500D02*
X232500D01*
X191500Y102750D02*
X232500D01*
X273500Y-265000D02*
X286500D01*
X273000Y-264500D02*
X273500Y-265000D01*
X286000Y-264500D02*
Y-242800D01*
Y-264500D02*
X286500Y-265000D01*
X181000Y-298500D02*
X195000D01*
Y-285500D01*
D64*
X285202Y77000D02*
Y90500D01*
X311202Y78202D02*
Y90500D01*
D65*
X40000Y-315000D02*
D03*
Y-365000D02*
D03*
Y-265000D02*
D03*
Y-215000D02*
D03*
X560000Y-140000D02*
D03*
Y-90000D02*
D03*
Y10000D02*
D03*
Y-40000D02*
D03*
Y-260000D02*
D03*
Y-210000D02*
D03*
Y-310000D02*
D03*
Y-360000D02*
D03*
X40000Y5000D02*
D03*
Y-45000D02*
D03*
Y-145000D02*
D03*
Y-95000D02*
D03*
D66*
X260600Y-217400D02*
D03*
X286000Y-192000D02*
D03*
Y-242800D02*
D03*
X342600Y-216400D02*
D03*
X368000Y-191000D02*
D03*
Y-241800D02*
D03*
D67*
X550000Y90000D02*
D03*
X50000D02*
D03*
Y-450000D02*
D03*
X550000D02*
D03*
D68*
X253650Y-107600D02*
D03*
D69*
X266350D02*
D03*
Y-120300D02*
D03*
X253650D02*
D03*
X266350Y-133000D02*
D03*
X253650D02*
D03*
X266350Y-145700D02*
D03*
X253650D02*
D03*
X266350Y-158400D02*
D03*
X253650D02*
D03*
D70*
X263202Y117500D02*
D03*
X333202D02*
D03*
D71*
X273202Y90500D02*
D03*
X323202D02*
D03*
D72*
X535202Y-143945D02*
D03*
X370000Y-68000D02*
D03*
X428000Y-625000D02*
D03*
X363500Y-426000D02*
D03*
X336000Y-93000D02*
D03*
X252524Y-451000D02*
D03*
X227000Y-313500D02*
D03*
X195000Y-313500D02*
D03*
X213000Y-313500D02*
D03*
X256298Y-334000D02*
D03*
X250500Y-340000D02*
D03*
X262096D02*
D03*
X382476Y-263000D02*
D03*
X262096Y-390702D02*
D03*
X255000Y-409000D02*
D03*
X347000Y-26000D02*
D03*
X335000Y-32000D02*
D03*
X299100Y-64600D02*
D03*
X197500Y-715000D02*
D03*
X427700Y-690000D02*
D03*
X207000Y-697500D02*
D03*
X193000D02*
D03*
X319450Y-327950D02*
D03*
X319200Y-341700D02*
D03*
X250900Y-415500D02*
D03*
X203000Y82500D02*
D03*
X311500Y54000D02*
D03*
X240050Y-392600D02*
D03*
X242500Y-428000D02*
D03*
X363500Y-440000D02*
D03*
Y-454000D02*
D03*
X240050Y-407600D02*
D03*
X226050D02*
D03*
X299000Y-88500D02*
D03*
X383000Y-16500D02*
D03*
X355000Y-1500D02*
D03*
X341000Y-1500D02*
D03*
X296500Y54000D02*
D03*
X415000Y-690000D02*
D03*
X188000Y-741000D02*
D03*
X193000Y-682500D02*
D03*
X207000D02*
D03*
X413500Y-668000D02*
D03*
Y-654000D02*
D03*
X301500Y-265000D02*
D03*
Y-279000D02*
D03*
Y-293000D02*
D03*
X382500Y-291000D02*
D03*
Y-277000D02*
D03*
X479000Y113250D02*
D03*
X442000Y114250D02*
D03*
X408000D02*
D03*
X374000D02*
D03*
X181000Y-313500D02*
D03*
X125500Y69000D02*
D03*
X120500Y117250D02*
D03*
X161500D02*
D03*
X191500D02*
D03*
X232500D02*
D03*
X278000Y77000D02*
D03*
X285000D02*
D03*
X304200Y-341700D02*
D03*
Y-327700D02*
D03*
X289500Y-22000D02*
D03*
Y10000D02*
D03*
X383000Y-1500D02*
D03*
X318000Y78000D02*
D03*
X311000D02*
D03*
X331000Y72000D02*
D03*
X298000D02*
D03*
X493000Y113500D02*
D03*
X154000Y83500D02*
D03*
X231500Y68000D02*
D03*
X70000Y-316000D02*
D03*
X329000Y-215000D02*
D03*
X538000Y-360000D02*
D03*
X306000Y-4000D02*
D03*
X330500Y-68500D02*
D03*
Y-57500D02*
D03*
X341500Y-68500D02*
D03*
Y-57500D02*
D03*
D73*
X225000Y-474000D02*
D03*
X218000Y-480000D02*
D03*
X272000Y-474000D02*
D03*
X266000Y-480000D02*
D03*
X189000Y-180000D02*
D03*
X185000Y-175000D02*
D03*
X184000Y-168000D02*
D03*
X231000D02*
D03*
X226524Y-180596D02*
D03*
X224758Y-174551D02*
D03*
X347000Y-377000D02*
D03*
X402000Y-642000D02*
D03*
D74*
X312000Y-388000D02*
D03*
Y-399000D02*
D03*
Y-410000D02*
D03*
X301000Y-388000D02*
D03*
Y-399000D02*
D03*
Y-410000D02*
D03*
X290000Y-388000D02*
D03*
Y-399000D02*
D03*
Y-410000D02*
D03*
M02*
