G04*
G04 #@! TF.GenerationSoftware,Altium Limited,Altium Designer,23.4.1 (23)*
G04*
G04 Layer_Physical_Order=2*
G04 Layer_Color=32768*
%FSLAX44Y44*%
%MOMM*%
G71*
G04*
G04 #@! TF.SameCoordinates,810E8BC2-B951-4309-8685-973D218C77A5*
G04*
G04*
G04 #@! TF.FilePolarity,Negative*
G04*
G01*
G75*
%ADD16C,1.5000*%
%ADD74C,0.5000*%
%ADD75C,1.0160*%
G04:AMPARAMS|DCode=76|XSize=2mm|YSize=2mm|CornerRadius=0mm|HoleSize=0mm|Usage=FLASHONLY|Rotation=0.000|XOffset=0mm|YOffset=0mm|HoleType=Round|Shape=Relief|Width=0.1524mm|Gap=0.2mm|Entries=4|*
%AMTHD76*
7,0,0,2.0000,1.6000,0.1524,45*
%
%ADD76THD76*%
G04:AMPARAMS|DCode=77|XSize=1.462mm|YSize=1.462mm|CornerRadius=0mm|HoleSize=0mm|Usage=FLASHONLY|Rotation=0.000|XOffset=0mm|YOffset=0mm|HoleType=Round|Shape=Relief|Width=0.1524mm|Gap=0.2mm|Entries=4|*
%AMTHD77*
7,0,0,1.4620,1.0620,0.1524,45*
%
%ADD77THD77*%
%ADD78C,0.9620*%
%ADD79C,5.2000*%
%ADD80C,0.8000*%
G04:AMPARAMS|DCode=81|XSize=1.3mm|YSize=1.3mm|CornerRadius=0mm|HoleSize=0mm|Usage=FLASHONLY|Rotation=0.000|XOffset=0mm|YOffset=0mm|HoleType=Round|Shape=Relief|Width=0.1524mm|Gap=0.2mm|Entries=4|*
%AMTHD81*
7,0,0,1.3000,0.9000,0.1524,45*
%
%ADD81THD81*%
%ADD82O,0.8500X1.3500*%
%ADD83O,1.0500X0.8500*%
G04:AMPARAMS|DCode=84|XSize=1mm|YSize=1mm|CornerRadius=0mm|HoleSize=0mm|Usage=FLASHONLY|Rotation=0.000|XOffset=0mm|YOffset=0mm|HoleType=Round|Shape=Relief|Width=0.1524mm|Gap=0.2mm|Entries=4|*
%AMTHD84*
7,0,0,1.0000,0.6000,0.1524,45*
%
%ADD84THD84*%
%ADD85C,0.4000*%
D16*
X40000Y-365000D02*
D03*
Y-265000D02*
D03*
Y-215000D02*
D03*
X560000Y-90000D02*
D03*
Y10000D02*
D03*
Y-40000D02*
D03*
Y-260000D02*
D03*
Y-210000D02*
D03*
Y-310000D02*
D03*
X40000Y5000D02*
D03*
Y-45000D02*
D03*
Y-145000D02*
D03*
Y-95000D02*
D03*
D74*
X370000Y-68000D02*
D03*
X336000Y-93000D02*
D03*
X213000Y-313500D02*
D03*
X256298Y-334000D02*
D03*
X250500Y-340000D02*
D03*
X262096D02*
D03*
X382476Y-263000D02*
D03*
X262096Y-390702D02*
D03*
X255000Y-409000D02*
D03*
X347000Y-26000D02*
D03*
X335000Y-32000D02*
D03*
X299100Y-64600D02*
D03*
X427700Y-690000D02*
D03*
X250900Y-415500D02*
D03*
X203000Y82500D02*
D03*
X363500Y-440000D02*
D03*
Y-454000D02*
D03*
X240050Y-407600D02*
D03*
X226050D02*
D03*
X299000Y-88500D02*
D03*
X383000Y-16500D02*
D03*
X355000Y-1500D02*
D03*
X341000Y-1500D02*
D03*
X296500Y54000D02*
D03*
X415000Y-690000D02*
D03*
X188000Y-741000D02*
D03*
X193000Y-682500D02*
D03*
X207000D02*
D03*
X413500Y-668000D02*
D03*
Y-654000D02*
D03*
X301500Y-265000D02*
D03*
Y-279000D02*
D03*
Y-293000D02*
D03*
X382500Y-291000D02*
D03*
Y-277000D02*
D03*
X479000Y113250D02*
D03*
X442000Y114250D02*
D03*
X408000D02*
D03*
X374000D02*
D03*
X181000Y-313500D02*
D03*
X125500Y69000D02*
D03*
X120500Y117250D02*
D03*
X161500D02*
D03*
X191500D02*
D03*
X232500D02*
D03*
X278000Y77000D02*
D03*
X285000D02*
D03*
X304200Y-341700D02*
D03*
Y-327700D02*
D03*
X331000Y72000D02*
D03*
X298000D02*
D03*
X306000Y-4000D02*
D03*
X330500Y-68500D02*
D03*
Y-57500D02*
D03*
X341500Y-68500D02*
D03*
Y-57500D02*
D03*
D75*
X200000Y-750000D02*
G03*
X225000Y-725000I0J25000D01*
G01*
X275000Y-500000D02*
G03*
X225000Y-550000I0J-50000D01*
G01*
X375000Y-550000D02*
G03*
X325000Y-500000I-50000J0D01*
G01*
X375000Y-725000D02*
G03*
X400000Y-750000I25000J0D01*
G01*
X425000D02*
G03*
X450000Y-725000I0J25000D01*
G01*
X500000Y-500000D02*
G03*
X450000Y-550000I0J-50000D01*
G01*
X150000D02*
G03*
X100000Y-500000I-50000J0D01*
G01*
X150000Y-725000D02*
G03*
X175000Y-750000I25000J0D01*
G01*
X550000Y-500000D02*
G03*
X600000Y-450000I0J50000D01*
G01*
Y90000D02*
G03*
X550000Y140000I-50000J0D01*
G01*
X50000D02*
G03*
X0Y90000I0J-50000D01*
G01*
Y-450000D02*
G03*
X50000Y-500000I50000J0D01*
G01*
X175000Y-750000D02*
X200000D01*
X225000Y-725000D02*
Y-550000D01*
X275000Y-500000D02*
X325000D01*
X375000Y-725000D02*
Y-550000D01*
X400000Y-750000D02*
X425000D01*
X450000Y-725000D02*
Y-550000D01*
X500000Y-500000D02*
X550000D01*
X50000D02*
X100000D01*
X150000Y-725000D02*
Y-550000D01*
X600000Y-450000D02*
Y90000D01*
X50000Y140000D02*
X550000D01*
X0Y-450000D02*
Y90000D01*
D76*
X40000Y-315000D02*
D03*
X560000Y-140000D02*
D03*
Y-360000D02*
D03*
D77*
X260600Y-217400D02*
D03*
X342600Y-216400D02*
D03*
D78*
X286000Y-192000D02*
D03*
Y-242800D02*
D03*
X368000Y-191000D02*
D03*
Y-241800D02*
D03*
D79*
X550000Y90000D02*
D03*
X50000D02*
D03*
Y-450000D02*
D03*
X550000D02*
D03*
D80*
X253650Y-107600D02*
D03*
X266350D02*
D03*
X253650Y-120300D02*
D03*
X266350Y-133000D02*
D03*
X253650D02*
D03*
X266350Y-145700D02*
D03*
X253650D02*
D03*
X266350Y-158400D02*
D03*
X253650D02*
D03*
D81*
X266350Y-120300D02*
D03*
D82*
X263202Y117500D02*
D03*
X333202D02*
D03*
D83*
X273202Y90500D02*
D03*
X323202D02*
D03*
D84*
X535202Y-143945D02*
D03*
X428000Y-625000D02*
D03*
X363500Y-426000D02*
D03*
X252524Y-451000D02*
D03*
X227000Y-313500D02*
D03*
X195000Y-313500D02*
D03*
X197500Y-715000D02*
D03*
X207000Y-697500D02*
D03*
X193000D02*
D03*
X319450Y-327950D02*
D03*
X319200Y-341700D02*
D03*
X311500Y54000D02*
D03*
X240050Y-392600D02*
D03*
X242500Y-428000D02*
D03*
X289500Y-22000D02*
D03*
Y10000D02*
D03*
X383000Y-1500D02*
D03*
X318000Y78000D02*
D03*
X311000D02*
D03*
X493000Y113500D02*
D03*
X154000Y83500D02*
D03*
X231500Y68000D02*
D03*
X70000Y-316000D02*
D03*
X329000Y-215000D02*
D03*
X538000Y-360000D02*
D03*
D85*
X225000Y-474000D02*
D03*
X218000Y-480000D02*
D03*
X272000Y-474000D02*
D03*
X266000Y-480000D02*
D03*
X189000Y-180000D02*
D03*
X185000Y-175000D02*
D03*
X184000Y-168000D02*
D03*
X231000D02*
D03*
X226524Y-180596D02*
D03*
X224758Y-174551D02*
D03*
X347000Y-377000D02*
D03*
X402000Y-642000D02*
D03*
X312000Y-388000D02*
D03*
Y-399000D02*
D03*
Y-410000D02*
D03*
X301000Y-388000D02*
D03*
Y-399000D02*
D03*
Y-410000D02*
D03*
X290000Y-388000D02*
D03*
Y-399000D02*
D03*
Y-410000D02*
D03*
M02*
