G04*
G04 #@! TF.GenerationSoftware,Altium Limited,Altium Designer,23.4.1 (23)*
G04*
G04 Layer_Color=16711935*
%FSLAX44Y44*%
%MOMM*%
G71*
G04*
G04 #@! TF.SameCoordinates,810E8BC2-B951-4309-8685-973D218C77A5*
G04*
G04*
G04 #@! TF.FilePolarity,Negative*
G04*
G01*
G75*
%ADD54C,2.6524*%
%ADD55C,1.6764*%
%ADD56C,8.1524*%
G04:AMPARAMS|DCode=57|XSize=1.1524mm|YSize=1.1524mm|CornerRadius=0.2012mm|HoleSize=0mm|Usage=FLASHONLY|Rotation=0.000|XOffset=0mm|YOffset=0mm|HoleType=Round|Shape=RoundedRectangle|*
%AMROUNDEDRECTD57*
21,1,1.1524,0.7500,0,0,0.0*
21,1,0.7500,1.1524,0,0,0.0*
1,1,0.4024,0.3750,-0.3750*
1,1,0.4024,-0.3750,-0.3750*
1,1,0.4024,-0.3750,0.3750*
1,1,0.4024,0.3750,0.3750*
%
%ADD57ROUNDEDRECTD57*%
%ADD58C,1.1524*%
G04:AMPARAMS|DCode=59|XSize=1.7024mm|YSize=1.2024mm|CornerRadius=0.6012mm|HoleSize=0mm|Usage=FLASHONLY|Rotation=270.000|XOffset=0mm|YOffset=0mm|HoleType=Round|Shape=RoundedRectangle|*
%AMROUNDEDRECTD59*
21,1,1.7024,0.0000,0,0,270.0*
21,1,0.5000,1.2024,0,0,270.0*
1,1,1.2024,0.0000,-0.2500*
1,1,1.2024,0.0000,0.2500*
1,1,1.2024,0.0000,0.2500*
1,1,1.2024,0.0000,-0.2500*
%
%ADD59ROUNDEDRECTD59*%
G04:AMPARAMS|DCode=60|XSize=1.4024mm|YSize=1.2024mm|CornerRadius=0.6012mm|HoleSize=0mm|Usage=FLASHONLY|Rotation=0.000|XOffset=0mm|YOffset=0mm|HoleType=Round|Shape=RoundedRectangle|*
%AMROUNDEDRECTD60*
21,1,1.4024,0.0000,0,0,0.0*
21,1,0.2000,1.2024,0,0,0.0*
1,1,1.2024,0.1000,0.0000*
1,1,1.2024,-0.1000,0.0000*
1,1,1.2024,-0.1000,0.0000*
1,1,1.2024,0.1000,0.0000*
%
%ADD60ROUNDEDRECTD60*%
%ADD61C,0.7524*%
%ADD62C,0.6524*%
D54*
X40000Y-315000D02*
D03*
Y-365000D02*
D03*
Y-265000D02*
D03*
Y-215000D02*
D03*
X560000Y-140000D02*
D03*
Y-90000D02*
D03*
Y10000D02*
D03*
Y-40000D02*
D03*
Y-260000D02*
D03*
Y-210000D02*
D03*
Y-310000D02*
D03*
Y-360000D02*
D03*
X40000Y5000D02*
D03*
Y-45000D02*
D03*
Y-145000D02*
D03*
Y-95000D02*
D03*
D55*
X260600Y-217400D02*
D03*
X286000Y-192000D02*
D03*
Y-242800D02*
D03*
X342600Y-216400D02*
D03*
X368000Y-191000D02*
D03*
Y-241800D02*
D03*
D56*
X550000Y90000D02*
D03*
X50000D02*
D03*
Y-450000D02*
D03*
X550000D02*
D03*
D57*
X253650Y-107600D02*
D03*
D58*
X266350D02*
D03*
Y-120300D02*
D03*
X253650D02*
D03*
X266350Y-133000D02*
D03*
X253650D02*
D03*
X266350Y-145700D02*
D03*
X253650D02*
D03*
X266350Y-158400D02*
D03*
X253650D02*
D03*
D59*
X263202Y117500D02*
D03*
X333202D02*
D03*
D60*
X273202Y90500D02*
D03*
X323202D02*
D03*
D61*
X330500Y-68500D02*
D03*
Y-57500D02*
D03*
X341500Y-68500D02*
D03*
Y-57500D02*
D03*
D62*
X312000Y-388000D02*
D03*
Y-399000D02*
D03*
Y-410000D02*
D03*
X301000Y-388000D02*
D03*
Y-399000D02*
D03*
Y-410000D02*
D03*
X290000Y-388000D02*
D03*
Y-399000D02*
D03*
Y-410000D02*
D03*
M02*
