G04*
G04 #@! TF.GenerationSoftware,Altium Limited,Altium Designer,23.4.1 (23)*
G04*
G04 Layer_Color=8388736*
%FSLAX44Y44*%
%MOMM*%
G71*
G04*
G04 #@! TF.SameCoordinates,810E8BC2-B951-4309-8685-973D218C77A5*
G04*
G04*
G04 #@! TF.FilePolarity,Negative*
G04*
G01*
G75*
%ADD35C,1.6524*%
G04:AMPARAMS|DCode=36|XSize=0.9524mm|YSize=0.9524mm|CornerRadius=0.1762mm|HoleSize=0mm|Usage=FLASHONLY|Rotation=270.000|XOffset=0mm|YOffset=0mm|HoleType=Round|Shape=RoundedRectangle|*
%AMROUNDEDRECTD36*
21,1,0.9524,0.6000,0,0,270.0*
21,1,0.6000,0.9524,0,0,270.0*
1,1,0.3524,-0.3000,-0.3000*
1,1,0.3524,-0.3000,0.3000*
1,1,0.3524,0.3000,0.3000*
1,1,0.3524,0.3000,-0.3000*
%
%ADD36ROUNDEDRECTD36*%
G04:AMPARAMS|DCode=37|XSize=0.7524mm|YSize=1.0524mm|CornerRadius=0.1512mm|HoleSize=0mm|Usage=FLASHONLY|Rotation=90.000|XOffset=0mm|YOffset=0mm|HoleType=Round|Shape=RoundedRectangle|*
%AMROUNDEDRECTD37*
21,1,0.7524,0.7500,0,0,90.0*
21,1,0.4500,1.0524,0,0,90.0*
1,1,0.3024,0.3750,0.2250*
1,1,0.3024,0.3750,-0.2250*
1,1,0.3024,-0.3750,-0.2250*
1,1,0.3024,-0.3750,0.2250*
%
%ADD37ROUNDEDRECTD37*%
G04:AMPARAMS|DCode=38|XSize=0.7524mm|YSize=1.0524mm|CornerRadius=0.1512mm|HoleSize=0mm|Usage=FLASHONLY|Rotation=180.000|XOffset=0mm|YOffset=0mm|HoleType=Round|Shape=RoundedRectangle|*
%AMROUNDEDRECTD38*
21,1,0.7524,0.7500,0,0,180.0*
21,1,0.4500,1.0524,0,0,180.0*
1,1,0.3024,-0.2250,0.3750*
1,1,0.3024,0.2250,0.3750*
1,1,0.3024,0.2250,-0.3750*
1,1,0.3024,-0.2250,-0.3750*
%
%ADD38ROUNDEDRECTD38*%
G04:AMPARAMS|DCode=39|XSize=0.9524mm|YSize=0.9524mm|CornerRadius=0.1762mm|HoleSize=0mm|Usage=FLASHONLY|Rotation=180.000|XOffset=0mm|YOffset=0mm|HoleType=Round|Shape=RoundedRectangle|*
%AMROUNDEDRECTD39*
21,1,0.9524,0.6000,0,0,180.0*
21,1,0.6000,0.9524,0,0,180.0*
1,1,0.3524,-0.3000,0.3000*
1,1,0.3524,0.3000,0.3000*
1,1,0.3524,0.3000,-0.3000*
1,1,0.3524,-0.3000,-0.3000*
%
%ADD39ROUNDEDRECTD39*%
%ADD40O,0.4024X1.0524*%
%ADD41O,1.0524X0.4024*%
G04:AMPARAMS|DCode=42|XSize=2.1324mm|YSize=2.1324mm|CornerRadius=0.2742mm|HoleSize=0mm|Usage=FLASHONLY|Rotation=90.000|XOffset=0mm|YOffset=0mm|HoleType=Round|Shape=RoundedRectangle|*
%AMROUNDEDRECTD42*
21,1,2.1324,1.5840,0,0,90.0*
21,1,1.5840,2.1324,0,0,90.0*
1,1,0.5484,0.7920,0.7920*
1,1,0.5484,0.7920,-0.7920*
1,1,0.5484,-0.7920,-0.7920*
1,1,0.5484,-0.7920,0.7920*
%
%ADD42ROUNDEDRECTD42*%
G04:AMPARAMS|DCode=43|XSize=0.7524mm|YSize=0.9524mm|CornerRadius=0.1512mm|HoleSize=0mm|Usage=FLASHONLY|Rotation=0.000|XOffset=0mm|YOffset=0mm|HoleType=Round|Shape=RoundedRectangle|*
%AMROUNDEDRECTD43*
21,1,0.7524,0.6500,0,0,0.0*
21,1,0.4500,0.9524,0,0,0.0*
1,1,0.3024,0.2250,-0.3250*
1,1,0.3024,-0.2250,-0.3250*
1,1,0.3024,-0.2250,0.3250*
1,1,0.3024,0.2250,0.3250*
%
%ADD43ROUNDEDRECTD43*%
G04:AMPARAMS|DCode=44|XSize=0.9524mm|YSize=2.4524mm|CornerRadius=0.2762mm|HoleSize=0mm|Usage=FLASHONLY|Rotation=180.000|XOffset=0mm|YOffset=0mm|HoleType=Round|Shape=RoundedRectangle|*
%AMROUNDEDRECTD44*
21,1,0.9524,1.9000,0,0,180.0*
21,1,0.4000,2.4524,0,0,180.0*
1,1,0.5524,-0.2000,0.9500*
1,1,0.5524,0.2000,0.9500*
1,1,0.5524,0.2000,-0.9500*
1,1,0.5524,-0.2000,-0.9500*
%
%ADD44ROUNDEDRECTD44*%
G04:AMPARAMS|DCode=45|XSize=0.7524mm|YSize=1.1524mm|CornerRadius=0.2262mm|HoleSize=0mm|Usage=FLASHONLY|Rotation=180.000|XOffset=0mm|YOffset=0mm|HoleType=Round|Shape=RoundedRectangle|*
%AMROUNDEDRECTD45*
21,1,0.7524,0.7000,0,0,180.0*
21,1,0.3000,1.1524,0,0,180.0*
1,1,0.4524,-0.1500,0.3500*
1,1,0.4524,0.1500,0.3500*
1,1,0.4524,0.1500,-0.3500*
1,1,0.4524,-0.1500,-0.3500*
%
%ADD45ROUNDEDRECTD45*%
%ADD46R,3.2524X3.2524*%
%ADD47O,1.1524X0.4024*%
%ADD48O,0.4024X1.1524*%
G04:AMPARAMS|DCode=49|XSize=1.0524mm|YSize=1.1524mm|CornerRadius=0.1887mm|HoleSize=0mm|Usage=FLASHONLY|Rotation=0.000|XOffset=0mm|YOffset=0mm|HoleType=Round|Shape=RoundedRectangle|*
%AMROUNDEDRECTD49*
21,1,1.0524,0.7750,0,0,0.0*
21,1,0.6750,1.1524,0,0,0.0*
1,1,0.3774,0.3375,-0.3875*
1,1,0.3774,-0.3375,-0.3875*
1,1,0.3774,-0.3375,0.3875*
1,1,0.3774,0.3375,0.3875*
%
%ADD49ROUNDEDRECTD49*%
G04:AMPARAMS|DCode=50|XSize=1.5224mm|YSize=1.7024mm|CornerRadius=0.2475mm|HoleSize=0mm|Usage=FLASHONLY|Rotation=0.000|XOffset=0mm|YOffset=0mm|HoleType=Round|Shape=RoundedRectangle|*
%AMROUNDEDRECTD50*
21,1,1.5224,1.2075,0,0,0.0*
21,1,1.0275,1.7024,0,0,0.0*
1,1,0.4949,0.5138,-0.6038*
1,1,0.4949,-0.5138,-0.6038*
1,1,0.4949,-0.5138,0.6038*
1,1,0.4949,0.5138,0.6038*
%
%ADD50ROUNDEDRECTD50*%
G04:AMPARAMS|DCode=51|XSize=0.5524mm|YSize=1.5024mm|CornerRadius=0.1262mm|HoleSize=0mm|Usage=FLASHONLY|Rotation=180.000|XOffset=0mm|YOffset=0mm|HoleType=Round|Shape=RoundedRectangle|*
%AMROUNDEDRECTD51*
21,1,0.5524,1.2500,0,0,180.0*
21,1,0.3000,1.5024,0,0,180.0*
1,1,0.2524,-0.1500,0.6250*
1,1,0.2524,0.1500,0.6250*
1,1,0.2524,0.1500,-0.6250*
1,1,0.2524,-0.1500,-0.6250*
%
%ADD51ROUNDEDRECTD51*%
G04:AMPARAMS|DCode=52|XSize=1.6524mm|YSize=1.7024mm|CornerRadius=0.2637mm|HoleSize=0mm|Usage=FLASHONLY|Rotation=180.000|XOffset=0mm|YOffset=0mm|HoleType=Round|Shape=RoundedRectangle|*
%AMROUNDEDRECTD52*
21,1,1.6524,1.1750,0,0,180.0*
21,1,1.1250,1.7024,0,0,180.0*
1,1,0.5274,-0.5625,0.5875*
1,1,0.5274,0.5625,0.5875*
1,1,0.5274,0.5625,-0.5875*
1,1,0.5274,-0.5625,-0.5875*
%
%ADD52ROUNDEDRECTD52*%
G04:AMPARAMS|DCode=53|XSize=0.7524mm|YSize=0.9524mm|CornerRadius=0.1512mm|HoleSize=0mm|Usage=FLASHONLY|Rotation=90.000|XOffset=0mm|YOffset=0mm|HoleType=Round|Shape=RoundedRectangle|*
%AMROUNDEDRECTD53*
21,1,0.7524,0.6500,0,0,90.0*
21,1,0.4500,0.9524,0,0,90.0*
1,1,0.3024,0.3250,0.2250*
1,1,0.3024,0.3250,-0.2250*
1,1,0.3024,-0.3250,-0.2250*
1,1,0.3024,-0.3250,0.2250*
%
%ADD53ROUNDEDRECTD53*%
%ADD54C,2.6524*%
%ADD55C,1.6764*%
%ADD56C,8.1524*%
G04:AMPARAMS|DCode=57|XSize=1.1524mm|YSize=1.1524mm|CornerRadius=0.2012mm|HoleSize=0mm|Usage=FLASHONLY|Rotation=0.000|XOffset=0mm|YOffset=0mm|HoleType=Round|Shape=RoundedRectangle|*
%AMROUNDEDRECTD57*
21,1,1.1524,0.7500,0,0,0.0*
21,1,0.7500,1.1524,0,0,0.0*
1,1,0.4024,0.3750,-0.3750*
1,1,0.4024,-0.3750,-0.3750*
1,1,0.4024,-0.3750,0.3750*
1,1,0.4024,0.3750,0.3750*
%
%ADD57ROUNDEDRECTD57*%
%ADD58C,1.1524*%
G04:AMPARAMS|DCode=59|XSize=1.7024mm|YSize=1.2024mm|CornerRadius=0.6012mm|HoleSize=0mm|Usage=FLASHONLY|Rotation=270.000|XOffset=0mm|YOffset=0mm|HoleType=Round|Shape=RoundedRectangle|*
%AMROUNDEDRECTD59*
21,1,1.7024,0.0000,0,0,270.0*
21,1,0.5000,1.2024,0,0,270.0*
1,1,1.2024,0.0000,-0.2500*
1,1,1.2024,0.0000,0.2500*
1,1,1.2024,0.0000,0.2500*
1,1,1.2024,0.0000,-0.2500*
%
%ADD59ROUNDEDRECTD59*%
G04:AMPARAMS|DCode=60|XSize=1.4024mm|YSize=1.2024mm|CornerRadius=0.6012mm|HoleSize=0mm|Usage=FLASHONLY|Rotation=0.000|XOffset=0mm|YOffset=0mm|HoleType=Round|Shape=RoundedRectangle|*
%AMROUNDEDRECTD60*
21,1,1.4024,0.0000,0,0,0.0*
21,1,0.2000,1.2024,0,0,0.0*
1,1,1.2024,0.1000,0.0000*
1,1,1.2024,-0.1000,0.0000*
1,1,1.2024,-0.1000,0.0000*
1,1,1.2024,0.1000,0.0000*
%
%ADD60ROUNDEDRECTD60*%
%ADD61C,0.7524*%
%ADD62C,0.6524*%
D35*
X284000Y-99000D02*
D03*
X272619Y-58000D02*
D03*
X402000Y-642000D02*
D03*
X367000Y-310000D02*
D03*
X317000D02*
D03*
D36*
X428000Y-625500D02*
D03*
Y-640500D02*
D03*
X213000Y-298500D02*
D03*
Y-313500D02*
D03*
X354000Y-277500D02*
D03*
Y-262500D02*
D03*
X299000Y-73500D02*
D03*
Y-88500D02*
D03*
X369000Y-16500D02*
D03*
Y-1500D02*
D03*
X383000D02*
D03*
Y-16500D02*
D03*
X341000Y-16500D02*
D03*
Y-1500D02*
D03*
X355000Y-16500D02*
D03*
Y-1500D02*
D03*
X207000Y-697500D02*
D03*
Y-682500D02*
D03*
X193000Y-697500D02*
D03*
Y-682500D02*
D03*
X273000Y-264500D02*
D03*
Y-279500D02*
D03*
X181000Y-313500D02*
D03*
Y-298500D02*
D03*
X203000Y82500D02*
D03*
Y67500D02*
D03*
X240050Y-407600D02*
D03*
Y-392600D02*
D03*
X226050Y-407600D02*
D03*
Y-392600D02*
D03*
D37*
X227000Y-298500D02*
D03*
Y-313500D02*
D03*
X195000Y-298500D02*
D03*
Y-313500D02*
D03*
Y-270500D02*
D03*
Y-285500D02*
D03*
X154000Y83500D02*
D03*
Y68500D02*
D03*
X227000Y-270500D02*
D03*
Y-285500D02*
D03*
X493000Y99500D02*
D03*
Y114500D02*
D03*
X456000Y99500D02*
D03*
Y114500D02*
D03*
X422000Y99500D02*
D03*
Y114500D02*
D03*
X388000Y99500D02*
D03*
Y114500D02*
D03*
D38*
X367500Y-263000D02*
D03*
X382500D02*
D03*
X267500Y-451000D02*
D03*
X252500D02*
D03*
X289500Y-22000D02*
D03*
X274500D02*
D03*
X289500Y10000D02*
D03*
X274500D02*
D03*
X242500Y-428000D02*
D03*
X257500D02*
D03*
X125500Y83000D02*
D03*
X140500D02*
D03*
X301500Y-265000D02*
D03*
X286500D02*
D03*
X231500Y82000D02*
D03*
X216500D02*
D03*
X231500Y68000D02*
D03*
X216500D02*
D03*
D39*
X367500Y-277000D02*
D03*
X382500D02*
D03*
X367500Y-291000D02*
D03*
X382500D02*
D03*
X319200Y-341700D02*
D03*
X304200D02*
D03*
X363500Y-426000D02*
D03*
X348500D02*
D03*
X125500Y69000D02*
D03*
X140500D02*
D03*
X301500Y-279000D02*
D03*
X286500D02*
D03*
X301500Y-293000D02*
D03*
X286500D02*
D03*
X304200Y-327700D02*
D03*
X319200D02*
D03*
X363500Y-440000D02*
D03*
X348500D02*
D03*
X363500Y-454000D02*
D03*
X348500D02*
D03*
X413500Y-654000D02*
D03*
X428500D02*
D03*
X413500Y-668000D02*
D03*
X428500D02*
D03*
X296500Y54000D02*
D03*
X311500D02*
D03*
D40*
X326000Y-81750D02*
D03*
X331000D02*
D03*
X336000D02*
D03*
X341000D02*
D03*
X346000D02*
D03*
Y-44250D02*
D03*
X341000D02*
D03*
X336000D02*
D03*
X331000D02*
D03*
X326000D02*
D03*
D41*
X354750Y-73000D02*
D03*
Y-68000D02*
D03*
Y-63000D02*
D03*
Y-58000D02*
D03*
Y-53000D02*
D03*
X317250D02*
D03*
Y-58000D02*
D03*
Y-63000D02*
D03*
Y-68000D02*
D03*
Y-73000D02*
D03*
D42*
X336000Y-63000D02*
D03*
D43*
X289250Y-36000D02*
D03*
X274750D02*
D03*
X289250Y-4000D02*
D03*
X274750D02*
D03*
D44*
X415000Y-690000D02*
D03*
X402300D02*
D03*
X427700D02*
D03*
D45*
X178500Y-741000D02*
D03*
X188000D02*
D03*
X197500D02*
D03*
Y-715000D02*
D03*
X178500D02*
D03*
D46*
X301000Y-399000D02*
D03*
D47*
X276750Y-416500D02*
D03*
Y-411500D02*
D03*
Y-406500D02*
D03*
Y-401500D02*
D03*
Y-396500D02*
D03*
Y-391500D02*
D03*
Y-386500D02*
D03*
Y-381500D02*
D03*
X325250D02*
D03*
Y-386500D02*
D03*
Y-391500D02*
D03*
Y-396500D02*
D03*
Y-401500D02*
D03*
Y-406500D02*
D03*
Y-411500D02*
D03*
Y-416500D02*
D03*
D48*
X283500Y-374750D02*
D03*
X288500D02*
D03*
X293500D02*
D03*
X298500D02*
D03*
X303500D02*
D03*
X308500D02*
D03*
X313500D02*
D03*
X318500D02*
D03*
Y-423250D02*
D03*
X313500D02*
D03*
X308500D02*
D03*
X303500D02*
D03*
X298500D02*
D03*
X293500D02*
D03*
X288500D02*
D03*
X283500D02*
D03*
D49*
X161500Y102750D02*
D03*
Y117250D02*
D03*
X120500Y102750D02*
D03*
Y117250D02*
D03*
X232500Y102750D02*
D03*
Y117250D02*
D03*
X191500Y102750D02*
D03*
Y117250D02*
D03*
D50*
X327952Y117500D02*
D03*
X268452D02*
D03*
D51*
X298202Y90500D02*
D03*
X291702D02*
D03*
X285202D02*
D03*
X304702D02*
D03*
X311202D02*
D03*
D52*
X288202Y117500D02*
D03*
X308202D02*
D03*
D53*
X479000Y99750D02*
D03*
Y114250D02*
D03*
X442000Y99750D02*
D03*
Y114250D02*
D03*
X408000Y99750D02*
D03*
Y114250D02*
D03*
X374000Y99750D02*
D03*
Y114250D02*
D03*
D54*
X40000Y-315000D02*
D03*
Y-365000D02*
D03*
Y-265000D02*
D03*
Y-215000D02*
D03*
X560000Y-140000D02*
D03*
Y-90000D02*
D03*
Y10000D02*
D03*
Y-40000D02*
D03*
Y-260000D02*
D03*
Y-210000D02*
D03*
Y-310000D02*
D03*
Y-360000D02*
D03*
X40000Y5000D02*
D03*
Y-45000D02*
D03*
Y-145000D02*
D03*
Y-95000D02*
D03*
D55*
X260600Y-217400D02*
D03*
X286000Y-192000D02*
D03*
Y-242800D02*
D03*
X342600Y-216400D02*
D03*
X368000Y-191000D02*
D03*
Y-241800D02*
D03*
D56*
X550000Y90000D02*
D03*
X50000D02*
D03*
Y-450000D02*
D03*
X550000D02*
D03*
D57*
X253650Y-107600D02*
D03*
D58*
X266350D02*
D03*
Y-120300D02*
D03*
X253650D02*
D03*
X266350Y-133000D02*
D03*
X253650D02*
D03*
X266350Y-145700D02*
D03*
X253650D02*
D03*
X266350Y-158400D02*
D03*
X253650D02*
D03*
D59*
X263202Y117500D02*
D03*
X333202D02*
D03*
D60*
X273202Y90500D02*
D03*
X323202D02*
D03*
D61*
X330500Y-68500D02*
D03*
Y-57500D02*
D03*
X341500Y-68500D02*
D03*
Y-57500D02*
D03*
D62*
X312000Y-388000D02*
D03*
Y-399000D02*
D03*
Y-410000D02*
D03*
X301000Y-388000D02*
D03*
Y-399000D02*
D03*
Y-410000D02*
D03*
X290000Y-388000D02*
D03*
Y-399000D02*
D03*
Y-410000D02*
D03*
M02*
